<?xml version="1.0" encoding="UTF-8" standalone="no"?>
<!-- Created with Inkscape (http://www.inkscape.org/) -->

<svg
   xmlns:dc="http://purl.org/dc/elements/1.1/"
   xmlns:cc="http://creativecommons.org/ns#"
   xmlns:rdf="http://www.w3.org/1999/02/22-rdf-syntax-ns#"
   xmlns:svg="http://www.w3.org/2000/svg"
   xmlns="http://www.w3.org/2000/svg"
   xmlns:sodipodi="http://sodipodi.sourceforge.net/DTD/sodipodi-0.dtd"
   xmlns:inkscape="http://www.inkscape.org/namespaces/inkscape"
   width="450"
   height="200"
   viewBox="0 0 450 200"
   version="1.1"
   id="svg279"
   inkscape:version="0.92.3 (2405546, 2018-03-11)"
   sodipodi:docname="dessin5.svg">
  <defs
     id="defs273" />
  <sodipodi:namedview
     id="base"
     pagecolor="#ffffff"
     bordercolor="#666666"
     borderopacity="1.0"
     inkscape:pageopacity="0.0"
     inkscape:pageshadow="2"
     inkscape:zoom="2.8"
     inkscape:cx="227.25962"
     inkscape:cy="107.19428"
     inkscape:document-units="px"
     inkscape:current-layer="svg279"
     showgrid="false"
     units="px"
     inkscape:window-width="1846"
     inkscape:window-height="1053"
     inkscape:window-x="1911"
     inkscape:window-y="-9"
     inkscape:window-maximized="1" />
  <metadata
     id="metadata276">
    <rdf:RDF>
      <cc:Work
         rdf:about="">
        <dc:format>image/svg+xml</dc:format>
        <dc:type
           rdf:resource="http://purl.org/dc/dcmitype/StillImage" />
        <dc:title></dc:title>
      </cc:Work>
    </rdf:RDF>
  </metadata>
  <g
     id="g38"
     transform="rotate({{servo2}}, 92, 134)">
    <path
       inkscape:connector-curvature="0"
       id="pinceg"
       transform="rotate(-{{servo1}}, 29, 86)"
       d="m 35.544138,93.268928 -0.174916,0.208455 -0.820124,0.07175 -0.820127,0.07175 -0.782765,-0.889064 -0.782762,-0.889073 0.106628,0.395403 0.106637,0.395399 -0.425695,0.140643 -0.425687,0.140636 -0.476981,1.230728 -0.476982,1.230728 -0.653121,0.05714 -0.653125,0.05714 -0.631067,-1.533752 -0.631069,-1.533754 -0.170444,-0.14302 -0.170443,-0.143018 -0.04422,0.303783 -0.04421,0.303778 -0.31951,-0.04651 -0.31951,-0.04651 -0.766958,0.952202 -0.766957,0.952216 -0.346412,0.114438 -0.346396,0.114446 -0.383795,-0.322042 -0.383792,-0.32204 -0.01417,-0.652733 -0.01417,-0.652734 0.232254,-0.995241 0.232256,-0.995242 -0.324454,-0.272248 -0.324451,-0.272248 -1.206764,0.609517 -1.206756,0.609511 -0.573434,-0.120262 -0.57343,-0.120273 -0.196524,-0.518238 -0.196527,-0.518239 0.193435,-0.230527 0.193433,-0.230525 0.095,0.522278 0.095,0.522278 0.377604,0.05497 0.377604,0.05497 1.186807,-0.582387 1.1868,-0.582382 0.590002,0.243075 0.590002,0.243074 -0.01412,0.807629 -0.01411,0.807626 -0.216498,0.258012 -0.216496,0.258012 0.04454,0.857411 0.04454,0.857411 0.552321,0.003 0.552316,0.003 0.708325,-1.114266 0.708325,-1.114266 0.427662,-0.237119 0.427662,-0.237121 0.62168,0.521653 0.621679,0.521651 -0.141439,0.168559 -0.141438,0.168561 0.314755,0.892352 0.314757,0.892353 0.342903,0.287729 0.342903,0.287729 0.372656,-0.444114 0.372662,-0.444121 0.05379,-1.155127 0.05379,-1.155125 0.27645,-0.329461 0.276456,-0.329467 0.543497,0.0029 0.543495,0.0029 0.80469,0.89972 0.804688,0.899717 0.461717,0.05885 0.461709,0.05886 0.161648,-0.469287 0.161647,-0.469288 -0.60968,-1.242415 -0.609674,-1.242422 0.157129,-0.187259 0.157129,-0.18726 0.153919,-0.446845 0.153914,-0.446837 1.276179,0.385243 1.27618,0.385242 0.625799,-0.113836 0.6258,-0.113835 -0.151241,-0.614591 -0.15124,-0.614584 -1.146051,-0.751258 -1.146051,-0.751259 0.217912,-0.785528 0.217919,-0.785533 0.842311,-0.113525 0.842315,-0.113534 0.597092,-0.251091 0.597092,-0.251091 0.06191,-0.425256 0.0619,-0.42525 -0.620736,-0.296642 -0.620731,-0.296651 0.68529,0.154841 0.685296,0.154834 0.09941,0.546525 0.09942,0.546518 -0.257353,0.306701 -0.257347,0.306694 -0.779082,0.335104 -0.77909,0.335113 -0.665895,0.492569 -0.665897,0.49257 1.091429,0.668078 1.091424,0.668085 0.241291,0.601883 0.241283,0.601889 -0.434215,0.517478 -0.434216,0.517479 -0.738616,-0.0645 -0.738609,-0.06451 -0.677161,0.657193 -0.677168,0.657201 0.245401,1.020319 0.245391,1.020326 z m 2.390326,-10.704076 -0.06637,0.0791 -0.758463,0.0284 -0.758464,0.0284 -0.01816,-0.20751 -0.01815,-0.207519 0.842983,0.10002 0.84299,0.100011 z m -1.959219,-0.586144 0.119638,0.378208 -0.355638,-0.293194 -0.355638,-0.293194 0.163767,-0.475445 0.163767,-0.475447 0.878571,-0.776514 0.878571,-0.776517 -0.104609,-0.575073 -0.104609,-0.575074 -0.813215,-0.0046 -0.813214,-0.0046 0.928079,-0.118046 0.928077,-0.118057 0.176599,0.547196 0.176597,0.547193 -0.993001,1.317236 -0.993001,1.317236 z m -5.728968,3.366229 -0.232891,0.548194 -0.734223,0.196621 -0.734216,0.196614 -0.572977,-0.492534 -0.572979,-0.492536 -0.136522,-0.601016 -0.136521,-0.601017 0.448042,-0.533956 0.448042,-0.533956 0.691393,-0.02589 0.6914,-0.0259 0.547717,0.45959 0.547715,0.459587 -0.01049,0.448939 -0.01049,0.448937 -0.23289,0.548194 z m -1.329899,-0.760965 0.09016,-0.107446 -0.107447,-0.09016 -0.107447,-0.09016 -0.09016,0.107447 -0.09016,0.107446 0.107447,0.09016 0.107447,0.09016 z m 6.041212,-5.673774 0.01908,0.21813 -0.451741,-0.0177 -0.451738,-0.01771 -0.465387,-0.09999 -0.465381,-0.1 0.898039,-0.100441 0.898038,-0.100442 z m -1.373625,-1.920698 -0.339618,1.521985 -0.215567,-0.180882 -0.215564,-0.180881 0.34341,-1.085067 0.343409,-1.085069 -0.0193,-0.672789 -0.0193,-0.67279 0.231075,0.416755 0.231073,0.416752 z m -11.864429,11.364134 -0.582973,0.688071 0.06216,-0.497128 0.06216,-0.497127 0.312256,-0.378823 0.312258,-0.378823 -0.296025,-0.248394 -0.296023,-0.248392 -0.561636,0.102168 -0.561632,0.102158 -0.872599,-0.195936 -0.872597,-0.195934 -0.235704,-0.587979 -0.235711,-0.587971 0.1755,-0.209154 0.175493,-0.209145 0.195154,0.600085 0.195154,0.600087 0.808005,0.05914 0.808005,0.05914 0.751135,0.05749 0.751135,0.05749 0.244716,0.610448 0.24472,0.610439 z m 9.392623,-11.623421 -0.544807,0.649275 -0.715896,-0.198589 -0.715889,-0.198598 -0.265672,-1.182177 -0.26568,-1.182171 -0.235646,-0.197731 -0.235649,-0.197733 0.04736,-0.325343 0.04736,-0.325351 0.391423,0.700849 0.391417,0.700857 0.181303,0.86696 0.181295,0.866965 0.553543,-0.04843 0.553542,-0.04843 0.373511,-0.445134 0.373504,-0.445125 0.214891,0.180314 0.214891,0.180315 z m 1.143905,-1.397729 -0.362554,0.397647 0.123797,-0.376747 0.123797,-0.376748 0.238768,-0.02089 0.238776,-0.0209 z m -10.827122,8.573628 -0.145283,0.173141 -1.187065,0.265206 -1.187059,0.265198 0.464071,-0.277962 0.464072,-0.27796 0.126266,-0.602051 0.126267,-0.602051 -5.302518,-4.239678 -5.3025177,-4.23968 -0.126623,0.01111 -0.1266235,0.01111 -0.4338966,-0.97175 -0.4338967,-0.97175 -0.9532803,-8.469869 -0.9532793,-8.46987 0.1394933,-0.404971 0.1394869,-0.404963 0.1042881,-0.0049 0.1042881,-0.0049 2.910569,2.204661 2.9105627,2.204667 -0.507863,-0.04937 -0.507857,-0.04937 -2.4820379,-2.060746 -2.4820388,-2.060747 0.74562,7.403216 0.7456201,7.403216 0.3342231,1.749618 0.3342251,1.749618 5.8448114,4.851641 5.844812,4.851641 0.469232,0.422713 0.469233,0.422713 z m 5.239619,-6.680745 -0.260419,0.310355 -1.031657,-0.843471 -1.031656,-0.843471 -4.426181,-3.529356 -4.42618,-3.529356 -0.338356,-0.829941 -0.338356,-0.82994 -0.401651,-3.26572 -0.401646,-3.265727 -0.659926,-0.706072 -0.659919,-0.706079 0.832662,0.640073 0.832661,0.640073 0.465324,3.654755 0.465322,3.654754 0.638636,0.778188 0.638636,0.778189 3.781794,2.950012 3.781801,2.950004 0.766595,0.462607 0.766595,0.462608 0.387014,-0.214585 0.387018,-0.214583 0.195964,-0.476404 0.195967,-0.476402 0.05019,1.069563 0.05019,1.069571 z m 0.52644,-2.843896 -0.362553,0.397647 0.123796,-0.376748 0.123797,-0.376747 0.238767,-0.02089 0.238772,-0.02089 -0.362578,0.397627 z m -5.239206,4.532653 -0.526564,0.627536 -0.758295,-0.06623 -0.758287,-0.06623 -0.322459,-0.282325 -0.322458,-0.282324 -0.115994,-0.543425 -0.116004,-0.543419 0.175608,-0.497832 0.175602,-0.497824 0.698936,-0.333443 0.698937,-0.333444 0.607663,0.295203 0.607664,0.295203 0.241153,0.800451 0.241155,0.800451 z m -0.934129,-1.079712 -0.178005,-0.289734 -0.439666,0.03847 -0.439661,0.03846 0.329498,0.276481 0.329499,0.276483 0.288167,-0.02521 0.288173,-0.02522 z"
       style="fill:#000000;stroke-width:0.28051949"
       inkscape:label="#path78" />
    <path
       style="fill:#000000;stroke-width:0.28051949"
       transform="rotate({{servo1}}, 40, 70)"
       d="m 49.83392,73.737509 0.174915,-0.208457 -0.07175,-0.820124 -0.07176,-0.820126 -1.011482,-0.616489 -1.011491,-0.616484 0.407912,0.03635 0.407909,0.03636 0.06459,-0.44365 0.06458,-0.443641 1.129202,-0.683449 1.129204,-0.683448 -0.05714,-0.653121 -0.05714,-0.653124 -1.620034,-0.355146 -1.620037,-0.355149 -0.170444,-0.143019 -0.170443,-0.143019 0.291489,-0.0963 0.291484,-0.0963 -0.101286,-0.30658 -0.101285,-0.30658 0.804555,-0.920655 0.804569,-0.920655 0.05254,-0.36102 0.05256,-0.361008 -0.383794,-0.322041 -0.383792,-0.32204 -0.645278,0.09939 -0.645278,0.09939 -0.939791,0.401548 -0.939791,0.401549 -0.324453,-0.272249 -0.324453,-0.272247 0.390705,-1.294272 0.3907,-1.294263 -0.21801,-0.543839 -0.218021,-0.543833 -0.544491,-0.103548 -0.544492,-0.103549 -0.193435,0.230526 -0.193433,0.230525 0.530839,0.0029 0.53084,0.0029 0.119704,0.362322 0.119704,0.362322 -0.367453,1.269908 -0.367448,1.269899 0.341835,0.538829 0.341834,0.538829 0.792908,-0.154143 0.792905,-0.154143 0.216498,-0.258012 0.216498,-0.258011 0.852119,-0.105026 0.852119,-0.105027 0.09885,0.543412 0.09886,0.543404 -0.974338,0.891055 -0.974338,0.891054 -0.159254,0.46234 -0.159256,0.462341 0.621681,0.521651 0.621679,0.521651 0.141438,-0.168561 0.14144,-0.168559 0.933452,0.155018 0.933452,0.155019 0.342903,0.28773 0.342903,0.28773 -0.372656,0.444114 -0.372663,0.444122 -1.128237,0.253553 -1.128237,0.253553 -0.27645,0.329461 -0.276456,0.329468 0.09727,0.534728 0.09727,0.534727 1.025785,0.636231 1.025781,0.636228 0.138135,0.444483 0.138144,0.444473 -0.434087,0.240683 -0.434089,0.240682 -1.329409,-0.384675 -1.329416,-0.384667 -0.157129,0.18726 -0.157131,0.187259 -0.413328,0.229174 -0.413321,0.229168 0.600996,1.189895 0.600995,1.189895 -0.0034,0.636059 -0.0034,0.63606 -0.631516,-0.04222 -0.63151,-0.04222 -0.938854,-0.998185 -0.938856,-0.998185 -0.735754,0.351007 -0.735758,0.351015 0.03447,0.849228 0.03446,0.849233 -0.143592,0.631621 -0.143593,0.631623 -0.408045,0.134816 -0.408039,0.134806 -0.399925,-0.559794 -0.399934,-0.559788 0.271488,0.647991 0.271482,0.647998 0.555486,0.003 0.555478,0.003 0.257353,-0.306702 0.257347,-0.306693 0.194727,-0.825438 0.194734,-0.825444 0.369455,-0.741313 0.369454,-0.741314 0.847453,0.958837 0.84746,0.958831 0.634638,0.133109 0.634643,0.133101 0.434217,-0.517478 0.434216,-0.517479 -0.191784,-0.716193 -0.191789,-0.716186 0.529621,-0.780993 0.529628,-0.781002 1.047432,0.0645 1.047436,0.06449 z m -10.126381,4.212755 0.06637,-0.0791 -0.103735,-0.751872 -0.103735,-0.751873 -0.20751,0.01815 -0.207518,0.01816 0.244883,0.812808 0.244875,0.812816 z m -0.917454,-1.827672 0.393237,0.05215 -0.350495,-0.299323 -0.350496,-0.299322 -0.439784,0.243839 -0.439786,0.243839 -0.612155,1.000065 -0.612158,1.000063 -0.584502,-0.0032 -0.584502,-0.0032 -0.145735,-0.800063 -0.145734,-0.800062 0.04491,0.934478 0.0449,0.934477 0.569549,0.0789 0.569546,0.0789 1.124791,-1.206651 1.124792,-1.20665 z m 2.320263,-6.226471 0.499425,-0.324545 0.06614,-0.757212 0.06613,-0.757203 -0.584548,-0.478745 -0.584549,-0.478746 -0.615593,-0.03008 -0.615592,-0.03008 -0.448043,0.533956 -0.448042,0.533955 0.09456,0.685385 0.09455,0.685392 0.547718,0.45959 0.547714,0.459587 0.440297,-0.08829 0.440294,-0.08829 0.499426,-0.324545 z m -0.980338,-1.177555 -0.09016,0.107447 -0.107447,-0.09016 -0.107447,-0.09016 0.09016,-0.107447 0.09016,-0.107446 0.107447,0.09016 0.107447,0.09016 z m -4.538532,6.934673 0.21813,-0.01908 -0.09587,-0.441804 -0.09588,-0.441801 -0.179283,-0.440954 -0.17929,-0.440947 0.05703,0.901836 0.05703,0.901838 z m -2.130045,-1.019232 1.439889,-0.598747 -0.215567,-0.180882 -0.215565,-0.18088 -1.00895,0.526613 -1.008952,0.526612 -0.66592,0.09782 -0.665919,0.09782 0.450547,0.155195 0.450547,0.155195 z m 9.131251,-13.657542 0.576385,-0.693598 -0.47878,0.147545 -0.478781,0.147544 -0.318844,0.373295 -0.318846,0.373296 -0.296024,-0.248395 -0.296023,-0.248392 0.0031,-0.570846 0.0031,-0.570839 -0.344485,-0.825318 -0.344482,-0.825316 -0.619976,-0.130023 -0.619969,-0.13003 -0.175501,0.209153 -0.175494,0.209145 0.624857,0.08799 0.624859,0.08799 0.198551,0.785459 0.198553,0.78546 0.18705,0.729741 0.18705,0.72974 0.643668,0.134995 0.643661,0.135001 z m -9.815824,11.268314 0.544807,-0.649276 -0.319886,-0.670534 -0.319894,-0.670527 -1.210351,-0.05635 -1.210346,-0.05636 -0.235646,-0.19773 -0.235649,-0.197733 -0.312176,0.10314 -0.312184,0.103141 0.758172,0.263776 0.758179,0.263767 0.885271,0.028 0.885276,0.02799 0.04843,0.553543 0.04843,0.553542 -0.373511,0.445133 -0.373504,0.445125 0.21489,0.180316 0.21489,0.180314 z m -1.177857,1.36924 0.328649,-0.426097 -0.349527,0.187338 -0.349526,0.187338 0.02089,0.238767 0.02088,0.238778 z m 6.563265,-12.151429 0.145283,-0.173141 0.05504,-1.215084 0.05504,-1.215076 -0.193155,0.505289 -0.193152,0.505289 -0.570978,0.228893 -0.570979,0.228893 -5.09604,-4.485748 -5.096042,-4.485748 -0.01105,-0.126628 -0.01105,-0.126629 -1.032331,-0.258562 -1.032333,-0.258562 -8.506728,0.53198 -8.5067287,0.53198 -0.3745955,0.207697 -0.3745892,0.207688 0.013276,0.103557 0.013276,0.103556 2.6765817,2.483516 2.6765877,2.483508 -0.136805,-0.491575 -0.136813,-0.491569 -2.4604397,-2.086485 -2.4604413,-2.086486 7.420219,-0.551262 7.420221,-0.551263 1.781074,0.02533 1.781075,0.02533 5.792875,4.913537 5.792874,4.913537 0.497773,0.388701 0.497773,0.388701 z m -5.669399,6.320117 0.260419,-0.310355 -1.009802,-0.869517 -1.009802,-0.869516 -4.244336,-3.74607 -4.244335,-3.746071 -0.876087,-0.189098 -0.876087,-0.189098 -3.285852,0.171537 -3.285859,0.171544 -0.809939,-0.527292 -0.809946,-0.527284 0.774939,0.708864 0.774939,0.708864 3.680033,-0.176387 3.680033,-0.176388 0.877264,0.493802 0.877265,0.493803 3.561896,3.212076 3.561889,3.212084 0.588697,0.674617 0.588697,0.674618 -0.144119,0.418397 -0.144119,0.4184 -0.435138,0.275714 -0.435134,0.275716 1.062029,-0.136301 1.062037,-0.136301 z m -2.709276,1.01228 0.328649,-0.426097 -0.349526,0.187338 -0.349527,0.187337 0.02089,0.238768 0.02089,0.238771 0.328625,-0.426116 z m 3.554014,-5.946698 0.526565,-0.627535 -0.196896,-0.735274 -0.196902,-0.735266 -0.33403,-0.268535 -0.334029,-0.268536 -0.555312,-0.01987 -0.555307,-0.01988 -0.459775,0.259387 -0.459768,0.259381 -0.207008,0.746219 -0.207009,0.746221 0.396238,0.547169 0.396238,0.547171 0.830166,0.09849 0.830166,0.09849 z m -1.225519,-0.732448 -0.316242,-0.124988 -0.03846,-0.439667 -0.03847,-0.43966 0.329498,0.276482 0.3295,0.276483 0.02522,0.288166 0.02521,0.288173 z"
       id="pinced"
       inkscape:connector-curvature="0"
       inkscape:label="#path158" />
    <path
       inkscape:connector-curvature="0"
       id="path195"
       d="m 124.89864,131.96345 -1.37347,1.63684 -0.15578,-0.47145 -0.15575,-0.47145 -0.51341,0.61186 -0.51343,0.61188 -4.73975,2.04255 -4.73974,2.04256 -8.0807,9.62243 -8.080688,9.62242 0.787815,0.66105 0.787808,0.66105 0.565169,1.01194 0.56517,1.01195 -0.57032,0.67968 -0.570327,0.67968 -3.083212,0.67916 -3.083214,0.67914 -0.323731,-0.27164 -0.323738,-0.27164 0.582348,-0.20056 0.582333,-0.20056 -0.913995,-0.0153 -0.914009,-0.0153 -0.05529,0.3798 -0.05529,0.37981 -0.740989,-0.35097 -0.740975,-0.35097 -0.191301,-0.57904 -0.191299,-0.57903 -3.04529,-2.64432 -3.04529,-2.64433 -0.130052,-0.39364 -0.130053,-0.39364 -0.424131,0.50546 -0.424131,0.50546 -6.967144,-5.90618 -6.967137,-5.90617 -0.737784,-1.09393 -0.737791,-1.09392 -0.912911,-0.19146 -0.912913,-0.19147 -1.08994,-1.2802 -1.089942,-1.28021 0.247628,-0.2951 0.247627,-0.29512 1.113331,0.93419 1.113331,0.9342 0.386156,-0.12754 0.38615,-0.12754 -1.141231,-0.74075 -1.141225,-0.74076 -0.643735,-0.21845 -0.643736,-0.21846 -0.353829,-0.41007 -0.353828,-0.41008 -0.266243,0.49197 -0.266243,0.49196 -1.001687,-0.66209 -1.001686,-0.66209 0.387531,-0.81812 0.387512,-0.81813 -0.285818,-0.23983 -0.285812,-0.23982 2.117632,-2.5237 2.117631,-2.5237 0.667554,-0.0584 0.667547,-0.0584 0.302316,0.54526 0.302326,0.54526 0.184185,-0.2195 0.184184,-0.21951 -0.07809,-0.89256 -0.07809,-0.89255 1.878746,-2.239 1.878746,-2.23901 0.99798,0.14353 0.997984,0.14355 -1.398956,-1.80119 -1.398963,-1.8012 2.557074,2.08377 2.557082,2.08376 -0.471456,0.15576 -0.471454,0.15577 -0.52016,-0.43647 -0.520152,-0.43645 0.02472,0.28261 0.02472,0.28262 2.980464,1.78792 2.980463,1.78792 0.445376,0.50072 0.445366,0.50072 0.05761,-0.39574 0.05762,-0.39576 -4.087606,-3.51097 -4.087604,-3.51098 -2.63708,-2.44246 -2.637076,-2.44246 -4.048481,-3.7173 -4.048483,-3.7173 -1.650359,-1.64714 -1.650361,-1.64713 0.49895,1.04808 0.49895,1.04809 1.222975,1.17085 1.222982,1.17084 4.168668,3.9026 4.168676,3.9026 0.02358,0.30049 0.02358,0.30049 -5.937432,-5.40864 -5.937437,-5.40863 -0.504224,-0.38471 -0.504223,-0.38472 -1.353918,-0.78414 -1.353925,-0.78414 0.07639,-0.52474 0.07638,-0.52473 -0.770686,-0.64669 -0.770686,-0.64668 0.07918,-0.54398 0.07919,-0.54398 0.470976,0.7424 0.470979,0.74239 0.685508,-0.12644 0.685514,-0.12643 -3.679795,-3.276 -3.679798,-3.275992 0.02795,0.346988 0.02795,0.346983 2.229103,2.219871 2.229105,2.21987 0.03413,0.23312 0.03412,0.23312 -2.232106,-1.88471 -2.232107,-1.884709 -6.518405,-6.009977 -6.518406,-6.009977 -0.422811,-0.666461 -0.422805,-0.666467 0.910348,-1.084911 0.910355,-1.084918 1.204471,0.630016 1.204472,0.630014 3.449303,3.281898 3.449303,3.281897 3.670844,-3.895266 3.670838,-3.895257 0.886606,-1.39919 0.886604,-1.399189 0.482655,0.178898 0.482661,0.17889 -0.618656,-0.381105 -0.618662,-0.381099 0.106752,-0.322999 0.106759,-0.323005 -3.128707,-3.006462 -3.128699,-3.00647 -0.452915,0.539762 -0.452908,0.539756 0.796965,0.0043 0.796966,0.0043 0.464224,0.731756 0.464224,0.731757 -0.184498,0.535629 -0.184499,0.535631 -1.910734,-1.972374 -1.910741,-1.972367 -0.05321,-0.608195 -0.05321,-0.608204 1.039202,-0.80065 1.039209,-0.800658 1.065914,0.557549 1.065921,0.55754 10.925134,10.571267 10.925134,10.571268 1.344939,1.447448 1.344932,1.447457 0.508709,-0.16807 0.508701,-0.168062 0.485326,0.407236 0.485325,0.407237 -0.471453,0.155756 -0.471459,0.155764 0.477457,0.400634 0.477459,0.400635 0.480833,-0.285735 0.480828,-0.285728 0.159715,1.0723 0.159705,1.072306 4.803364,4.115094 4.803365,4.11509 2.081671,-2.30862 2.081672,-2.30864 0.849162,-0.39018 0.849159,-0.39019 0.773078,-0.72972 0.773072,-0.72971 11.476499,9.48505 11.47651,9.48503 -0.36581,0.43596 -0.36581,0.43596 2.7954,2.0895 2.79542,2.0895 0.34406,-0.19102 0.34409,-0.19101 3.85563,3.23526 3.85564,3.23528 z m -3.63791,1.05007 0.13574,-0.16177 -0.16177,-0.13574 -0.16178,-0.13575 -0.13574,0.16178 -0.13575,0.16177 0.16178,0.13575 0.16176,0.13575 z m -0.39214,-0.84684 0.13833,-0.16484 -0.54037,-1.29463 -0.54038,-1.29463 -0.58615,-0.484 -0.58613,-0.48399 0.22352,0.70082 0.22354,0.70082 -0.61331,-0.23631 -0.61329,-0.23632 -0.93954,-0.52299 -0.93957,-0.52299 1.22546,0.83936 1.22546,0.83935 0.77192,0.39422 0.77194,0.39421 0.32041,0.76804 0.32043,0.76802 0.13833,-0.16485 z m -25.64057,29.07077 -0.445371,-0.62716 0.435775,-0.14398 0.435776,-0.14397 -0.872606,-0.80583 -0.872668,-0.80575 -1.636654,-1.33493 -1.636654,-1.33494 -3.131838,-2.50991 -3.131838,-2.50992 1.291318,1.41793 1.291326,1.41795 -1.088224,-0.19994 -1.088225,-0.19996 -0.06844,0.47016 -0.06845,0.47017 -0.668711,-0.23035 -0.668704,-0.23034 -0.24244,0.28893 -0.242446,0.28894 3.159124,2.64168 3.158474,2.64244 -0.222151,-0.72088 -0.222152,-0.72088 0.875171,0.72522 0.87517,0.72522 0.471448,-0.15577 0.471463,-0.15576 0.93246,0.78243 0.932467,0.78244 0.471455,-0.15578 0.471456,-0.15575 0.740387,0.5573 0.740393,0.55729 z m -3.526277,-2.85315 -0.407232,0.48532 -1.479085,-1.2411 -1.479095,-1.24112 0.89256,-0.0781 0.892565,-0.0781 0.993766,0.83387 0.993759,0.83386 z m -5.240056,-1.64015 -0.13575,0.16178 -0.161782,-0.13575 -0.161772,-0.13574 0.135749,-0.16179 0.135745,-0.16176 0.161773,0.13573 0.161782,0.13576 z m -0.647101,-0.54298 -0.13575,0.16178 -0.161781,-0.13575 -0.161773,-0.13575 0.13575,-0.16177 0.135744,-0.16178 0.161773,0.13575 0.161781,0.13574 z m 1.085964,-1.2942 -0.135744,0.16177 -0.161781,-0.13575 -0.161772,-0.13574 0.135743,-0.16178 0.135743,-0.16177 0.161774,0.13574 0.161781,0.13575 z m -2.056619,0.47972 -0.135749,0.16179 -0.161774,-0.13575 -0.161774,-0.13575 0.135751,-0.16178 0.135744,-0.16177 0.161772,0.13575 0.161774,0.13574 z m 9.208949,6.45532 -0.02914,-0.33311 -0.736375,0.0674 -0.736374,0.0674 0.765536,0.2659 0.765539,0.26591 z m 22.68261,-26.73099 0.0885,-0.0961 -0.49133,-0.0715 -0.49136,-0.0715 -0.31874,0.3892 -0.31874,0.3892 0.72088,-0.22215 0.72087,-0.22216 0.0885,-0.0961 z m -1.75996,1.4504 0.13575,-0.16178 -0.16178,-0.13573 -0.16177,-0.13576 -0.13575,0.16178 -0.13574,0.16177 0.16178,0.13575 0.16178,0.13575 z m -15.147536,15.90292 -0.0315,-0.35951 -0.567246,-0.18639 -0.567262,-0.1864 0.59874,0.54588 0.598728,0.54586 -0.0315,-0.3595 z m -1.193325,0.067 -0.03471,-0.3967 -0.396699,0.0347 -0.396691,0.0347 0.431398,0.36199 0.431397,0.36198 z m -7.862703,8.93234 0.135744,-0.16178 -0.161781,-0.13574 -0.161774,-0.13575 -0.135743,0.16178 -0.13575,0.16177 0.161773,0.13575 0.16178,0.13575 z m -1.025633,0.41479 0.194431,-0.49198 -0.276756,-0.45046 -0.276742,-0.45047 -0.265073,0.31591 -0.265065,0.31589 0.347383,0.62654 0.347382,0.62653 z m 8.9181,-11.13484 -0.209752,-0.73565 -0.615643,-0.52573 -0.615636,-0.52571 0.03726,0.22937 0.03725,0.22939 0.78847,1.03159 0.788461,1.03159 -0.209737,-0.73566 z m 11.331337,-12.84708 0.13575,-0.16178 -0.16178,-0.13575 -0.16177,-0.13573 -0.13574,0.16176 -0.13575,0.16178 0.16178,0.13574 0.16177,0.13575 z m 2.71491,-3.23551 0.13575,-0.16177 -0.16178,-0.13575 -0.16177,-0.13574 -0.13574,0.16177 -0.13575,0.16178 0.16178,0.13574 0.16176,0.13574 z m 5.42983,-6.47101 0.13574,-0.16178 -1.13242,-0.95022 -1.13244,-0.95021 -0.26978,0.32151 -0.26979,0.32152 0.84187,0.47515 0.84184,0.47516 0.42463,0.31532 0.42462,0.3153 0.13574,-0.16177 z m -17.156,19.78864 0.13574,-0.16177 -0.16178,-0.13575 -0.16177,-0.13575 -0.13575,0.16178 -0.13574,0.16178 0.16177,0.13573 0.16178,0.13576 z m 1.76469,-2.10307 0.36199,-0.4314 -0.3967,0.0347 -0.3967,0.0347 0.0347,0.39669 0.0347,0.3967 z m 1.17357,-1.45042 0.54588,-0.59874 -0.35951,0.0315 -0.35951,0.0315 -0.1864,0.56725 -0.18639,0.56725 0.54587,-0.59873 z m 2.11987,-2.67804 1.63201,-1.93873 -0.87597,0.77133 -0.87596,0.77134 -0.75629,1.1672 -0.75627,1.16719 1.632,-1.93873 z m 2.13645,-2.3425 0.36198,-0.4314 -0.39669,0.0347 -0.3967,0.0347 0.0347,0.39671 0.0347,0.39668 z m 2.53102,-3.06817 0.54587,-0.59874 -0.3595,0.0314 -0.35951,0.0315 -0.1864,0.56726 -0.18639,0.56725 0.54587,-0.59873 z m -16.533234,17.78414 0.239452,-0.28536 -0.123431,-0.3736 -0.12343,-0.37358 -0.577607,0.59176 -0.577614,0.59176 0.461605,0.0672 0.461603,0.0672 z m 8.592764,-10.32697 0.95998,-1.23056 -1.18858,0.93242 -1.18858,0.93241 4.50489,-5.45521 4.50488,-5.45521 -3.27013,-2.74396 -3.27011,-2.74395 -0.19475,0.56534 -0.19474,0.56537 -0.91876,-0.12936 -0.91875,-0.12937 0.53663,-0.29753 0.53663,-0.29754 -0.35306,-0.63675 -0.35305,-0.63677 -0.0658,0.45176 -0.0657,0.45176 -0.49936,-0.0727 -0.49936,-0.0727 0.30581,-0.36444 0.30581,-0.36446 -0.93045,-0.36958 -0.930426,-0.36957 -0.86121,-0.61638 -0.861197,-0.61637 -0.296789,-0.17789 -0.29679,-0.17789 -0.06392,0.43916 -0.06393,0.43916 -0.77132,-0.72645 -0.771321,-0.72646 0.286518,-0.69631 0.286515,-0.69633 -0.617246,-0.21261 -0.617245,-0.21261 -0.06402,0.43985 -0.06403,0.43986 -0.80617,-0.67646 -0.806163,-0.67645 -0.775434,0.49193 -0.775419,0.49193 -0.340269,-0.61368 -0.340269,-0.6137 -0.0045,0.83588 -0.0045,0.83585 -0.614061,-0.49855 -0.614054,-0.49854 0.289488,0.8049 0.289487,0.8049 -0.27404,0.32658 -0.274019,0.32657 -0.17983,-0.54431 -0.179822,-0.5443 -0.08313,0.57104 -0.08312,0.57102 -0.905216,0.0792 -0.905218,0.0792 -0.240913,0.69939 -0.240897,0.6994 -0.206302,-0.62443 -0.206295,-0.62443 -0.08167,0.56107 -0.08168,0.56105 -0.781045,0.0952 -0.781046,0.0952 -0.449426,-0.63369 -0.449427,-0.63369 -0.303152,0.36128 -0.303157,0.36129 0.48532,0.40723 0.485326,0.40723 -0.244934,0.29191 -0.244928,0.29189 0.724852,1.27168 0.724857,1.27168 2.75366,2.9503 2.753667,2.95029 1.050665,-0.0919 1.050658,-0.0919 0.395433,0.35008 0.395443,0.3501 -1.297775,-0.005 -1.297789,-0.005 0.728164,0.611 0.728163,0.611 0.909901,-0.20138 0.909901,-0.20138 -0.359943,0.80068 -0.359941,0.80071 4.111831,3.28088 4.111809,3.28086 z m -0.37163,-13.92644 -0.13575,0.16177 -0.16177,-0.13574 -0.16177,-0.13575 0.13574,-0.16177 0.13575,-0.16178 0.16178,0.13574 0.16177,0.13574 z m -1.2942,-1.08597 -0.13575,0.16177 -0.16177,-0.13574 -0.16177,-0.13574 0.13574,-0.16178 0.13575,-0.16178 0.16177,0.13575 0.16178,0.13574 z m -1.294196,-1.08596 -0.13575,0.16177 -0.16177,-0.13574 -0.16177,-0.13575 0.13574,-0.16177 0.13575,-0.16178 0.16177,0.13575 0.16178,0.13573 z m -9.239941,5.75506 -0.271488,0.32355 -0.342652,-0.28752 -0.342636,-0.28751 0.471449,-0.15576 0.471454,-0.15577 0.142683,0.11973 0.142684,0.11973 z m 2.338014,-2.86257 -0.376903,0.37295 -0.623072,0.44204 -0.62308,0.44205 -0.247891,-0.208 -0.247892,-0.208 0.305751,-1.10215 0.305752,-1.10216 0.480821,0.07 0.48083,0.07 0.06658,-0.45739 0.06659,-0.45738 0.523515,0.43928 0.523507,0.43927 -0.471455,0.15577 -0.471449,0.15576 0.342637,0.2875 0.342652,0.28752 z m -2.577877,1.83426 -0.135744,0.16177 -0.161773,-0.13575 -0.161781,-0.13574 0.135744,-0.16178 0.135751,-0.16178 0.16178,0.13575 0.161774,0.13575 z m 3.66513,-4.36793 -0.271488,0.32354 -0.34265,-0.28751 -0.342637,-0.28751 0.471448,-0.15576 0.471454,-0.15577 0.142684,0.11972 0.142684,0.11973 z m 0.950221,-1.13243 -0.135744,0.16178 -0.161774,-0.13575 -0.161781,-0.13575 0.135744,-0.16177 0.13575,-0.16179 0.161782,0.13576 0.161773,0.13574 z m 1.085963,-1.2942 -0.135743,0.16177 -0.161774,-0.13574 -0.16178,-0.13575 0.135743,-0.16178 0.135751,-0.16177 0.161781,0.13574 0.161773,0.13575 z m -5.448168,3.69882 -1.092859,1.28842 0.473316,-0.84983 0.473308,-0.84984 0.619183,-0.43888 0.619189,-0.4389 -1.092865,1.28842 z m 13.910584,12.49941 0.36199,-0.4314 -0.3967,0.0347 -0.39669,0.0347 0.0347,0.39669 0.0347,0.3967 z m -10.143497,10.11729 1.63439,-1.94779 -0.938621,-0.52409 -0.93862,-0.5241 0.267085,-0.3183 0.267091,-0.31831 -0.808462,-0.004 -0.808455,-0.004 -1.149932,-0.96491 -1.149924,-0.9649 -0.146953,-0.80779 -0.146941,-0.80777 -0.262392,0.76179 -0.262399,0.76176 -0.284212,-0.74947 -0.284198,-0.74947 -2.098614,-1.44441 -2.098606,-1.44441 0.25958,-0.35385 0.259581,-0.35385 -1.055504,0.49272 -1.055519,0.49272 -0.726444,0.0796 -0.72645,0.0796 -0.346666,-0.29089 -0.346658,-0.29088 0.31674,-0.37748 0.316739,-0.37747 -0.415359,0.0363 -0.415358,0.0363 0.172704,-0.89706 0.172706,-0.89704 -1.656772,-0.65388 -1.656766,-0.65388 0.891063,0.58657 0.891062,0.58657 -1.153519,1.13563 -1.153526,1.13564 1.213615,1.08675 1.213622,1.08675 4.467226,3.87534 4.467234,3.87534 1.821048,1.27945 1.821041,1.27945 z m 0.84031,-1.65852 -0.135744,0.16178 -0.161774,-0.13575 -0.16178,-0.13574 0.135744,-0.16178 0.135743,-0.16178 0.161782,0.13576 0.161773,0.13574 z m -13.819749,-7.18528 -0.13575,0.16179 -0.161773,-0.13575 -0.161781,-0.13575 0.13575,-0.16178 0.135744,-0.16177 0.161781,0.13575 0.161774,0.13574 z m 15.70965,5.37105 -0.03471,-0.39669 -0.396693,0.0347 -0.396691,0.0347 0.431398,0.36199 0.431398,0.36198 z m 15.214036,-18.56945 0.13575,-0.16178 -0.16177,-0.13574 -0.16178,-0.13575 -0.13575,0.16178 -0.13575,0.16177 0.16178,0.13575 0.16178,0.13575 z m 3.09603,-3.6897 0.18207,-0.21698 -0.58169,-0.56784 -0.58167,-0.56786 -0.50471,0.27982 -0.50472,0.27985 0.90436,0.50497 0.90435,0.50495 z m -20.181571,19.45187 -1.290451,-2.07607 -0.709677,-0.9612 -0.709692,-0.96122 -0.492954,0.58748 -0.492953,0.58748 1.494595,1.32905 1.494595,1.32904 0.998475,1.12078 0.998469,1.12078 z m 18.733181,-21.01118 0.1112,-0.13252 -0.66003,-0.22736 -0.66005,-0.22736 0.0248,0.2836 0.0248,0.2836 0.52404,0.0763 0.52402,0.0763 z m -1.92622,-1.1541 -0.44205,-0.62307 -0.69038,-0.32714 -0.69037,-0.32714 1.13243,0.95022 1.13241,0.95021 z m -24.508835,28.05861 0.135744,-0.16177 -0.161781,-0.13575 -0.161773,-0.13575 -0.135744,0.16178 -0.135751,0.16178 0.161774,0.13574 0.161781,0.13575 z m -3.162917,2.31931 -0.03166,-0.15489 -0.963767,-1.15122 -0.963767,-1.15122 0.42074,1.1082 0.420732,1.10818 0.57466,0.19795 0.574673,0.19794 z m 0.88688,-0.92097 0.13575,-0.16178 -0.161773,-0.13574 -0.161774,-0.13575 -0.135751,0.16178 -0.135743,0.16178 0.161773,0.13574 0.161773,0.13574 z m 24.914092,-31.00563 0.17676,-0.21066 -6.58972,-5.12408 -6.589724,-5.12408 -0.887133,-0.58546 -0.887141,-0.58545 -1.752386,-1.40006 -1.752378,-1.40006 -0.07119,0.48897 -0.07118,0.48897 2.138495,1.68567 2.138494,1.68567 0.216627,-0.25816 0.216626,-0.25817 0.342643,0.28752 0.342644,0.28751 -0.471462,0.15576 -0.471454,0.15577 0.504417,0.42325 0.504425,0.42327 0.271494,-0.32356 0.271494,-0.32355 1.151518,0.96624 1.151521,0.96624 -0.471456,0.15576 -0.471456,0.15577 1.426312,1.13155 1.42633,1.13156 -0.7634,-1.06146 -0.76341,-1.06146 2.02726,1.5265 2.02728,1.5265 1.1821,0.891 1.18213,0.891 1.56907,1.25121 1.56906,1.25121 z m -30.100087,31.60085 -0.936297,-1.51249 -1.785314,-1.48631 -1.785315,-1.48632 2.381307,2.74728 2.381314,2.74728 0.340523,0.25127 0.340516,0.25127 z m 3.912624,-2.85591 -0.2675,-0.50255 -0.541374,-0.17617 -0.541381,-0.17617 0.808882,0.67873 0.808875,0.67873 z m 19.411883,-22.86039 -0.0347,-0.39669 -0.39669,0.0347 -0.3967,0.0347 0.4314,0.36199 0.43142,0.36199 z m -13.219646,14.82369 -0.267501,-0.50256 -0.541373,-0.17616 -0.541374,-0.17618 0.808875,0.67873 0.80888,0.67873 z m -1.945968,-2.19925 -0.574727,-0.71227 -3.754715,-1.68456 -3.754709,-1.68457 -0.781948,0.0474 -0.781942,0.0474 0.1707,0.51669 0.170713,0.5167 0.406621,-0.48459 0.406628,-0.4846 1.70315,1.0914 1.703164,1.0914 0.737137,0.15287 0.737138,0.15288 0.724755,0.88934 0.724761,0.88935 0.638653,-0.35411 0.638659,-0.3541 0.730331,0.53775 0.73033,0.53777 z m -1.748572,-0.3519 0.0347,0.3967 -0.431398,-0.36199 -0.431399,-0.36199 0.396693,-0.0347 0.396698,-0.0347 z m 0.761758,1.28245 0.135744,-0.16177 -0.161774,-0.13575 -0.16178,-0.13575 -0.135743,0.16178 -0.135745,0.16176 0.161782,0.13576 0.161773,0.13574 z m 15.694418,-19.36098 0.13576,-0.16178 -0.16178,-0.13575 -0.16178,-0.13574 -0.13574,0.16178 -0.13575,0.16178 0.16178,0.13573 0.16176,0.13575 z m 2.1126,-2.69564 -0.0315,-0.35949 -0.56726,-0.18641 -0.56725,-0.18639 0.59873,0.54586 0.59867,0.54594 -0.0314,-0.3595 z m -3.68882,2.38385 -0.0347,-0.3967 -0.39668,0.0347 -0.3967,0.0347 0.43139,0.36199 0.43141,0.36199 z m -23.400299,27.23031 -0.03471,-0.3967 -0.396693,0.0347 -0.396691,0.0347 0.431398,0.36199 0.431398,0.36198 z m 25.660089,-30.8418 -0.26307,-0.49534 -0.69753,-0.33112 -0.69752,-0.33112 0.96062,0.82643 0.96056,0.8265 z m -19.948236,23.59662 0.135744,-0.16178 -0.161774,-0.13575 -0.16178,-0.13574 -0.135743,0.16177 -0.135745,0.16177 0.161781,0.13576 0.161773,0.13573 z m 4.208112,-5.01504 0.271495,-0.32355 -0.142685,-0.11973 -0.142683,-0.11972 -0.471454,0.15576 -0.471449,0.15576 0.342637,0.28751 0.342652,0.28752 z m -8.061053,8.9497 0.135745,-0.16177 -0.161774,-0.13575 -0.161773,-0.13574 -0.135743,0.16177 -0.135744,0.16178 0.161773,0.13574 0.161773,0.13574 z m 18.461401,-22.00144 0.135745,-0.16177 -0.161774,-0.13575 -0.161774,-0.13574 -0.135744,0.16177 -0.135743,0.16178 0.161772,0.13574 0.161774,0.13574 z m -21.228368,24.64191 0.135743,-0.16178 -0.161773,-0.13574 -0.161781,-0.13575 -0.135744,0.16178 -0.135744,0.16176 0.161781,0.13576 0.161773,0.13574 z m 5.701312,-6.79457 0.135751,-0.16177 -0.161772,-0.13575 -0.161781,-0.13575 -0.135751,0.16178 -0.135744,0.16178 0.161781,0.13574 0.161774,0.13575 z m 17.375432,-20.70724 0.13575,-0.16177 -1.294195,-1.08597 -1.294202,-1.08596 -0.856839,1.07294 -0.856839,1.07295 1.071576,-0.61708 1.071569,-0.61708 0.94369,0.79185 0.943694,0.79185 0.135736,-0.16178 z m -3.309946,3.28757 0.135744,-0.16178 -0.161774,-0.13574 -0.161773,-0.13574 -0.135744,0.16176 -0.13575,0.16179 0.161773,0.13574 0.161773,0.13575 z m -20.800053,23.25534 -0.03471,-0.39669 -0.396693,0.0347 -0.396699,0.0347 0.431406,0.362 0.431397,0.36198 z m 21.031586,-24.85297 0.0717,-0.0777 -1.617747,-1.35745 -1.617756,-1.35746 -0.529489,0.63102 -0.529491,0.63102 -0.84294,-0.14531 -0.842941,-0.14533 0.23883,0.21711 0.238822,0.21711 0.803519,0.18339 0.803518,0.18339 1.876283,0.54899 1.876283,0.549 0.07171,-0.0776 z m -22.430557,25.42506 0.135744,-0.16177 -0.161774,-0.13575 -0.161772,-0.13574 -0.135745,0.16177 -0.13575,0.16178 0.161773,0.13574 0.161774,0.13575 z m 0.428323,-1.38657 -0.03471,-0.39669 -0.396692,0.0347 -0.396691,0.0347 0.431398,0.36199 0.431398,0.36199 z m 2.182468,-3.03901 0.135744,-0.16178 -0.161773,-0.13575 -0.161773,-0.13574 -0.135745,0.16177 -0.135743,0.16178 0.161773,0.13575 0.161773,0.13573 z m 24.653639,-30.03816 0.13574,-0.16177 -0.16177,-0.13575 -0.16178,-0.13574 -0.13575,0.16177 -0.13573,0.16177 0.16176,0.13575 0.16179,0.13575 z m -27.806761,32.2627 -0.03471,-0.39669 -0.396685,0.0347 -0.396699,0.0347 0.431398,0.36199 0.431405,0.36199 z m 8.913726,-11.06103 0.223812,-0.26673 -0.49134,-0.0715 -0.491341,-0.0715 0.710769,-0.84706 0.710776,-0.84707 -0.49134,-0.0715 -0.491341,-0.0715 -0.516499,0.61554 -0.516494,0.61553 -1.528373,-0.7104 -1.52838,-0.7104 -1.676401,-1.0555 -1.676409,-1.0555 -0.234592,0.27957 -0.234592,0.27958 0.565572,0.47587 0.565571,0.47588 3.43864,1.65148 3.438638,1.65146 0.22382,-0.26674 z m -11.200585,11.37688 0.376423,-0.44861 -0.140714,-0.11807 -0.140708,-0.11807 -1.09471,-0.38086 -1.094711,-0.38086 -0.231192,0.27552 -0.231191,0.27553 1.090187,0.67201 1.090194,0.67201 z m 0.992551,-1.4019 -0.03471,-0.3967 -0.396692,0.0347 -0.396692,0.0347 0.431399,0.36198 0.431405,0.36199 z m 22.86786,-27.03383 0.135744,-0.16178 -0.161773,-0.13574 -0.16178,-0.13575 -0.135744,0.16177 -0.135744,0.16177 0.161781,0.13575 0.161773,0.13575 z m 0.81447,-0.97065 0.135751,-0.16178 -0.161774,-0.13575 -0.16178,-0.13575 -0.13575,0.16178 -0.135744,0.16178 0.161781,0.13575 0.161773,0.13574 z m 4.552749,-5.64479 -0.0347,-0.39669 -0.39668,0.0347 -0.3967,0.0347 0.4314,0.36199 0.4314,0.36199 z m -27.138576,31.90444 0.407237,-0.48533 -0.323546,-0.27148 -0.323554,-0.2715 -0.407238,0.48533 -0.407239,0.48532 0.323556,0.27151 0.323545,0.27148 z m 1.28756,-1.8456 -0.02914,-0.3331 -0.736382,0.0674 -0.736374,0.0674 0.765545,0.2659 0.765538,0.26592 z m 1.17188,-1.08545 0.119725,-0.14267 -0.142675,-0.11973 -0.142684,-0.11973 -0.544299,0.17983 -0.544304,0.17983 0.567262,0.0826 0.567255,0.0826 z m 23.60371,-28.12983 0.135736,-0.16177 -0.161766,-0.13574 -0.16177,-0.13575 -0.13574,0.16177 -0.13575,0.16178 0.16177,0.13574 0.16178,0.13575 z m -7.977359,8.19288 0.135745,-0.16177 -0.161774,-0.13574 -0.161773,-0.13575 -0.135744,0.16178 -0.135751,0.16178 0.161774,0.13574 0.161773,0.13575 z m -20.476498,23.52684 -0.03471,-0.39669 -0.396693,0.0347 -0.396691,0.0347 0.431398,0.36199 0.431398,0.36199 z m 18.795494,-22.18057 0.135743,-0.16178 -0.16178,-0.13574 -0.161774,-0.13575 -0.135744,0.16178 -0.135744,0.16177 0.161773,0.13574 0.161782,0.13576 z m -16.493301,18.99887 0.287512,-0.34265 -0.323546,-0.27149 -0.323555,-0.27149 -0.119725,0.14268 -0.119719,0.14268 0.155761,0.47146 0.155754,0.47146 z m 0.906893,-1.25876 -0.03145,-0.3595 -0.567252,-0.18639 -0.567254,-0.18641 0.598738,0.54587 0.598732,0.54587 -0.03145,-0.35951 z m 15.701265,-20.53536 -0.278594,-1.04037 -0.913411,-0.51002 -0.913412,-0.51003 0.215212,-0.25648 0.215211,-0.25647 -2.984481,-2.67996 -2.984488,-2.67996 -0.497394,0.27695 -0.497401,0.27695 -0.302603,-0.39687 -0.302607,-0.39687 -0.454315,0.25952 -0.4543,0.25951 1.364113,0.87388 1.364117,0.87387 0.71437,1.44843 0.714373,1.44844 -0.415039,-0.32672 -0.415048,-0.32673 -0.950219,1.13243 -0.95022,1.13243 0.519944,0.43628 0.519938,0.43628 0.219499,-0.63723 0.219505,-0.63724 0.957512,0.46516 0.957514,0.46517 0.170109,-0.8111 0.170111,-0.81109 0.419236,0.28625 0.419227,0.28624 2.216071,1.47985 2.216072,1.47985 z m -6.898228,-6.20482 -0.135744,0.16177 -0.161774,-0.13574 -0.161781,-0.13575 0.135744,-0.16178 0.135744,-0.16177 0.161781,0.13575 0.161774,0.13574 z m 14.500434,-2.16802 0.135744,-0.16178 -0.161774,-0.13574 -0.161773,-0.13574 -0.135744,0.16177 -0.135743,0.16177 0.161772,0.13575 0.161774,0.13574 z m -17.020257,19.62688 0.271494,-0.32356 -0.323554,-0.27149 -0.323547,-0.27149 -0.271494,0.32355 -0.271488,0.32355 0.323547,0.27149 0.323554,0.27149 z m -11.433602,12.09284 -0.03471,-0.3967 -0.396693,0.0347 -0.396691,0.0347 0.431398,0.36199 0.431397,0.36197 z m 3.591985,-4.06174 0.135744,-0.16177 -0.161781,-0.13575 -0.161773,-0.13574 -0.135745,0.16177 -0.135742,0.16177 0.161772,0.13575 0.161781,0.13575 z m 8.823462,-10.51539 0.361993,-0.4314 -0.396699,0.0347 -0.396699,0.0347 0.03471,0.39669 0.03471,0.3967 z m 1.131216,-1.34813 0.226242,-0.26963 -0.246524,-0.19902 -0.247159,-0.19825 -0.661118,-0.0886 -0.66112,-0.0886 0.326002,0.58797 0.325993,0.58796 0.355701,-0.0311 0.355696,-0.0311 0.226248,-0.26964 z m 10.287437,-12.26009 1.069945,-1.27511 -0.323553,-0.2715 -0.323555,-0.27149 -1.237733,1.47507 -1.237732,1.47507 0.491341,0.0715 0.491347,0.0715 z m -19.7884,22.85024 0.244141,-0.34649 0.419694,-1.02624 0.41968,-1.02624 -1.384806,1.59481 -1.384722,1.59487 0.720887,-0.22214 0.72088,-0.22214 0.244223,-0.34645 z m 9.905505,-11.7293 0.101579,-0.12107 -1.247943,-0.70246 -1.247943,-0.70244 -0.04294,-1.1464 -0.04293,-1.14641 -0.2734,-0.22941 -0.273402,-0.22941 -0.436285,0.51995 -0.436286,0.51994 -0.289214,-0.52162 -0.289206,-0.52161 -1.261966,1.35507 -1.26196,1.35506 1.283035,0.30749 1.283036,0.30751 1.307873,0.3617 1.307879,0.3617 0.859268,0.17675 0.859261,0.17675 z m -3.058609,-2.92573 -0.135743,0.16177 -0.161781,-0.13575 -0.161773,-0.13574 0.135744,-0.16178 0.13575,-0.16179 0.161772,0.13575 0.161782,0.13576 z m -1.785125,0.15616 -0.135743,0.16178 -0.161773,-0.13575 -0.161773,-0.13573 0.135743,-0.16178 0.135744,-0.16178 0.161773,0.13575 0.161774,0.13575 z m -7.650171,15.35942 -0.413775,-0.82104 -0.22357,-0.22638 -0.223576,-0.22636 -0.271488,0.32354 -0.271495,0.32355 0.90886,0.72386 0.908851,0.72384 z m -2.832133,3.70374 0.246948,-0.29429 -0.144997,-0.43889 -0.144996,-0.43888 -0.429746,0.14199 -0.429745,0.14198 0.327795,0.59119 0.327796,0.5912 z m 10.679346,-13.38422 0.13575,-0.16178 -0.161773,-0.13574 -0.161782,-0.13576 -0.13575,0.16179 -0.135744,0.16177 0.161781,0.13575 0.161774,0.13575 z m 12.760086,-15.20688 0.13575,-0.16178 -0.161773,-0.13574 -0.161781,-0.13576 -0.135751,0.16179 -0.135744,0.16177 0.161781,0.13575 0.161774,0.13574 z m 3.529385,-4.20616 0.135751,-0.16178 -0.161774,-0.13574 -0.161781,-0.13575 -0.135749,0.16178 -0.135744,0.16177 0.161781,0.13575 0.161772,0.13575 z m -28.610688,32.78273 0.135744,-0.16177 -0.161774,-0.13575 -0.16178,-0.13575 -0.135744,0.16177 -0.13575,0.16179 0.161781,0.13574 0.161772,0.13575 z m 24.189595,-29.49518 0.0885,-0.0961 -0.49134,-0.0715 -0.491341,-0.0715 -0.318745,0.3892 -0.318746,0.3892 0.72088,-0.22215 0.720873,-0.22215 0.08849,-0.0961 z m -23.719107,26.30614 -0.591517,-0.93778 -1.21321,-1.07296 -1.213218,-1.07297 -0.20455,0.51756 -0.204552,0.51755 0.404603,0.28442 0.404601,0.28441 1.60465,1.2088 1.604651,1.2088 z m 1.597321,-0.58945 0.135744,-0.16177 -0.161781,-0.13575 -0.161773,-0.13575 -0.135744,0.16178 -0.135743,0.16178 0.161772,0.13573 0.161782,0.13576 z m 25.248679,-30.0902 0.135749,-0.16178 -0.16178,-0.13575 -0.161773,-0.13575 -0.135751,0.16178 -0.135744,0.16178 0.161773,0.13574 0.161781,0.13575 z m -24.757757,28.84805 0.135745,-0.16177 -0.161774,-0.13574 -0.161774,-0.13575 -0.135744,0.16178 -0.13575,0.16177 0.161773,0.13575 0.161774,0.13575 z m 1.628946,-1.9413 0.135744,-0.16178 -0.161773,-0.13573 -0.161773,-0.13575 -0.135744,0.16178 -0.135751,0.16177 0.161774,0.13575 0.161773,0.13574 z m -2.599593,1.12684 0.135744,-0.16178 -0.16178,-0.13574 -0.161774,-0.13575 -0.135744,0.16177 -0.135751,0.16178 0.161774,0.13575 0.161781,0.13575 z m 1.357451,-1.61776 0.135745,-0.16176 -0.161782,-0.13576 -0.161773,-0.13574 -0.135744,0.16177 -0.135743,0.16178 0.161773,0.13574 0.16178,0.13575 z m 21.470791,-26.24498 0.210788,-0.25121 -1.39776,-0.96254 -1.397768,-0.96254 -0.10723,0.12779 -0.107229,0.12779 1.294202,1.08596 1.2942,1.08597 z m 2.639864,-3.14607 0.135743,-0.16177 -0.161772,-0.13574 -0.161774,-0.13575 -0.135744,0.16178 -0.135744,0.16177 0.161774,0.13574 0.161773,0.13575 z m -28.41703,29.9236 -1.629554,-1.67193 -0.503343,-0.21772 -0.503346,-0.21771 -0.04686,0.31643 -0.04686,0.31643 2.179756,1.57322 2.179756,1.57322 z m 3.523531,-0.91375 0.361986,-0.4314 -0.396693,0.0347 -0.396698,0.0347 0.03471,0.39671 0.03471,0.39668 z m 12.624342,-15.04511 0.135744,-0.16177 -0.161781,-0.13575 -0.161773,-0.13575 -0.135744,0.16178 -0.135751,0.16178 0.161774,0.13574 0.161781,0.13575 z m -2.970595,0.81554 3.217267,-3.64103 -0.637001,-0.60343 -0.637001,-0.60344 -0.255675,-0.35237 -0.255682,-0.35238 -0.462764,-0.45723 -0.462776,-0.45724 0.840221,-0.33683 0.840223,-0.33683 -0.521041,-0.73467 -0.521042,-0.73466 0.613474,-0.48919 0.613477,-0.48918 0.681684,0.61286 0.681682,0.61285 0.05894,-0.4049 0.05894,-0.40489 -2.864289,-2.29716 -2.864295,-2.29717 1.910231,1.79792 1.910227,1.79792 -0.575098,0.31886 -0.575105,0.31888 -1.232647,-1.03432 -1.232621,-1.03429 0.17617,-0.54138 0.176171,-0.54138 -0.72982,0.76602 -0.729814,0.766 0.166975,-0.51811 0.166976,-0.51812 -0.579405,-0.19958 -0.579406,-0.19957 -0.345142,-1.1202 -0.345141,-1.1202 -1.868283,-1.71597 -1.868291,-1.71596 -0.969997,0.95009 -0.97,0.9501 0.344055,0.2887 0.344049,0.28869 -0.707779,0.8435 -0.707775,0.84349 -0.294805,-0.5317 -0.294807,-0.53171 -0.465302,0.83332 -0.465302,0.83332 -0.901955,-0.005 -0.901948,-0.005 0.865158,-0.62651 0.865164,-0.62652 -0.804824,-1.21106 -0.80482,-1.21105 0.763144,-1.01371 0.763151,-1.013723 -0.456138,0.857813 -0.456138,0.85781 0.705704,0.59171 0.705697,0.59172 1.370813,-1.46827 1.370812,-1.46827 -0.818882,0.28213 -0.818876,0.28212 -0.07096,0.48745 -0.07096,0.48745 -0.474129,-0.39784 -0.474131,-0.39785 0.610803,-0.45235 0.610801,-0.452356 0.06239,-0.575716 0.0624,-0.575723 -3.402667,-3.172783 -3.402666,-3.172781 -2.970588,-2.866358 -2.970589,-2.866357 -0.343569,0.409451 -0.343564,0.409443 -0.146397,-0.804763 -0.146388,-0.80477 -1.964363,-1.9364 -1.964357,-1.936408 -3.973796,4.735786 -3.973791,4.735779 -0.210662,0.236746 -0.210671,0.236754 2.657009,2.597241 2.657014,2.597233 2.902592,2.619183 2.902592,2.619179 0.594673,-0.70903 0.594665,-0.70903 -0.155757,-0.47146 -0.155764,-0.471449 0.662708,-0.789784 0.662707,-0.789784 0.323607,0.271538 0.32355,0.271491 0.526957,-0.628004 0.526965,-0.628011 0.468744,0.06824 0.468744,0.06824 0.650274,0.89796 0.650268,0.89797 -0.497524,0.592926 -0.49753,0.592937 0.155764,0.47145 0.155757,0.47146 -0.662708,0.78978 -0.662701,0.78978 -0.32355,-0.27149 -0.323551,-0.27149 -0.643714,0.76714 -0.643706,0.76714 2.654456,2.58603 2.654461,2.58602 5.075364,4.7933 5.07537,4.79329 2.271888,1.91156 2.271891,1.91157 3.217267,-3.64102 z m -5.590497,-9.79106 -0.367192,0.65677 -0.347301,-0.29142 -0.347272,-0.29139 0.271493,-0.32356 0.271488,-0.32355 -0.485325,-0.40723 -0.485326,-0.40724 0.290379,-0.34606 0.290373,-0.34605 0.637925,0.71147 0.637928,0.71148 z m -2.982945,3.0106 -0.615834,0.72381 0.05699,-0.55066 0.05698,-0.55066 -0.339192,-0.90994 -0.339193,-0.90993 0.897991,0.7368 0.897986,0.73679 z m -15.08125,-16.842249 -2.265595,2.700031 -0.2986,-0.250556 -0.298601,-0.250555 2.135168,-2.205734 2.135162,-2.205727 0.05062,-1.011469 0.05062,-1.011463 -3.227059,-2.756645 -3.227057,-2.756644 0.686546,-0.128877 0.686547,-0.128877 2.77567,2.67407 2.775663,2.674076 0.143283,0.979144 0.143273,0.979144 z m -6.878991,-0.344028 -0.135743,0.161774 -0.161776,-0.135746 -0.161776,-0.135746 0.135744,-0.161773 0.135743,-0.161773 0.161776,0.135746 0.161776,0.135746 z m -2.692548,-3.362032 -0.135744,0.161773 -0.161774,-0.135745 -0.161776,-0.135746 0.135744,-0.161773 0.135744,-0.161774 0.161776,0.135746 0.161774,0.135746 z m 44.371323,12.262449 -0.294404,-0.47921 -0.359498,0.0314 -0.359506,0.0315 0.03123,0.35711 0.03124,0.35711 0.622666,0.0906 0.622667,0.0907 z m -29.012188,33.64949 -0.03145,-0.35951 -0.567252,-0.18639 -0.567254,-0.1864 0.598738,0.54587 0.598732,0.54586 z m 2.443416,-2.91195 -0.03145,-0.35951 -0.567246,-0.1864 -0.567261,-0.1864 0.598739,0.54588 0.598731,0.54586 z m 2.367023,-2.64295 0.271495,-0.32355 -0.142676,-0.11972 -0.142684,-0.11973 -0.471462,0.15576 -0.471448,0.15576 0.342644,0.28752 0.342644,0.28751 z m 15.966889,-19.13237 0.678726,-0.80887 -0.502564,0.2675 -0.502558,0.26749 -0.176168,0.54138 -0.176168,0.54138 z m 6.70263,-7.88411 0.135744,-0.16178 -0.161773,-0.13574 -0.161774,-0.13574 -0.135744,0.16177 -0.135751,0.16178 0.161774,0.13574 0.161773,0.13575 z m -21.687667,24.53219 0.361985,-0.4314 -0.396699,0.0347 -0.396684,0.0347 0.0347,0.39669 0.03471,0.39671 z m 0.950214,-1.13242 0.13575,-0.16179 -0.161773,-0.13573 -0.161774,-0.13575 -0.13575,0.16178 -0.135744,0.16177 0.161773,0.13575 0.161773,0.13574 z m 1.037834,-1.28866 0.545866,-0.59872 -0.359505,0.0315 -0.359499,0.0314 -0.186398,0.56726 -0.186404,0.56725 0.545871,-0.59874 z m 1.490237,-1.82795 0.678732,-0.80888 -0.502556,0.26751 -0.502565,0.2675 -0.176161,0.54137 -0.176177,0.54138 z m 14.516524,-17.37433 -0.03146,-0.3595 -0.567246,-0.18639 -0.567252,-0.18641 0.598672,0.54595 0.598731,0.54587 z m -22.870119,26.43689 -0.0269,-0.30743 -0.704132,0.0616 -0.704134,0.0616 0.33434,0.28054 0.334332,0.28054 0.396696,-0.0347 0.396693,-0.0347 z m 0.563065,-0.98862 0.135751,-0.16178 -0.161771,-0.13575 -0.161773,-0.13573 -0.13575,0.16177 -0.135744,0.16178 0.161773,0.13574 0.16177,0.13574 z m 13.932358,-28.65046 -0.03471,-0.39669 -0.396691,0.0347 -0.396695,0.0347 0.4314,0.36199 0.431399,0.36198 z m -1.231606,-0.94154 0.135744,-0.16177 -0.161776,-0.13575 -0.161774,-0.13575 -0.135745,0.16178 -0.13575,0.16178 0.161776,0.13574 0.161774,0.13575 z m -0.375614,-0.86653 0.135744,-0.16177 -0.161774,-0.13575 -0.161776,-0.13574 -0.135744,0.16177 -0.135744,0.16177 0.161776,0.13575 0.161774,0.13574 z m -1.617753,-1.35746 0.135744,-0.16177 -0.161775,-0.13574 -0.161776,-0.13575 -0.135743,0.16177 -0.135744,0.16178 0.161776,0.13574 0.161775,0.13575 z m -0.970651,-0.81447 0.135744,-0.16177 -0.161776,-0.13575 -0.161776,-0.13574 -0.135744,0.16177 -0.135743,0.16177 0.161776,0.13575 0.161775,0.13574 z m -1.356801,-1.23039 -0.0347,-0.396698 -0.396697,0.03471 -0.396696,0.03471 0.4314,0.361988 0.431401,0.361989 z m -0.967399,-0.777283 -0.03145,-0.359504 -0.567256,-0.186394 -0.56725,-0.1864 0.598734,0.545868 0.598734,0.545867 z m -1.297455,-1.123156 -0.0347,-0.396697 -0.396697,0.03471 -0.396696,0.03471 0.431401,0.361989 0.4314,0.361988 z m -1.465671,-1.812485 -0.94204,-1.012843 -1.161039,-0.751851 -1.161038,-0.75185 2.103079,1.764692 2.103079,1.764694 z m -9.844485,4.750684 0.64619,-1.180776 0.427601,-0.509595 0.427602,-0.509596 -0.636549,0.0557 -0.636542,0.05569 -0.765235,1.359473 -0.76523,1.359464 0.327987,0.27521 0.327986,0.27522 z m 6.074981,-8.460144 -0.77134,-0.875965 -1.167193,-0.756284 -1.167199,-0.756276 1.938732,1.632011 1.938733,1.632012 -0.771334,-0.875974 z m -8.07583,10.433984 0.375196,-0.44714 -0.155764,-0.47145 -0.155757,-0.47146 -0.710776,0.84707 -0.710768,0.84706 0.491337,0.0715 0.491344,0.0715 z m -3.318471,3.29772 0.398714,-0.47517 -0.639137,-0.22016 -0.639144,-0.22015 -0.06403,0.43986 -0.06403,0.43985 0.304456,0.25547 0.304455,0.25547 z m 6.446484,-18.373922 -0.03145,-0.359506 -0.567256,-0.186393 -0.567249,-0.186401 0.598734,0.545868 0.598734,0.545867 z m -16.371582,7.697072 -1.106818,-1.14501 -1.319812,-0.891174 -1.319811,-0.891174 2.426629,2.036184 2.426629,2.036184 z m 11.466259,-12.364479 -0.03145,-0.359505 -0.56725,-0.1864 -0.567257,-0.186393 0.598735,0.545867 0.598733,0.545867 z m -16.637746,7.850005 -1.406321,-1.609431 -1.304423,-1.073785 -1.304422,-1.073784 1.238593,1.480778 1.238593,1.480779 1.472112,1.202483 1.472112,1.202483 z m 6.741319,-16.904624 0.230054,-0.274167 -0.822447,-0.389559 -0.822448,-0.389559 0.200429,0.606666 0.200429,0.606667 0.391964,0.05706 0.391966,0.05706 z m 24.466875,51.662828 -0.13575,0.16178 -0.161773,-0.13574 -0.161773,-0.13574 0.13575,-0.16178 0.135744,-0.16178 0.161773,0.13575 0.161773,0.13574 z m 0.178565,-4.81238 -0.135744,0.16177 -0.161775,-0.13574 -0.161775,-0.13575 0.135744,-0.16177 0.13575,-0.16178 0.161776,0.13574 0.161774,0.13575 z m -1.294202,-1.08597 -0.135744,0.16178 -0.161776,-0.13575 -0.161774,-0.13574 0.135744,-0.16178 0.13575,-0.16178 0.161775,0.13575 0.161776,0.13574 z"
       style="fill:#000000;stroke-width:0.42236531" />
  </g>
  <path
     inkscape:label="#path274"
     inkscape:connector-curvature="0"
     id="base1"
     d="m 209.24562,164.50694 -3.57121,0.13993 -0.0169,-5.82366 -0.0169,-5.82366 1.23349,1.66398 1.23348,1.66398 2.97756,-2.50544 2.97755,-2.50545 -2.86952,-1.81685 -2.86953,-1.81686 v -1.30834 -1.30835 h -1.4 -1.4 v -0.93333 -0.93333 h 1.0456 1.04559 l -0.67291,-11.66667 -0.6729,-11.66667 1.26064,0.009 1.26065,0.009 0.18772,7.67881 0.18771,7.67881 0.53007,2.11195 0.53006,2.11194 h 1.66222 1.66222 l 1.12,1.12 1.12,1.12 v 1.68 1.68 h -2.77078 -2.77071 l 0.53518,1.39464 0.53517,1.39464 0.97974,-0.60551 0.97975,-0.60552 -0.63702,1.03072 -0.63702,1.03071 1.74983,0.93648 1.74982,0.93647 1.07282,-1.07282 1.07282,-1.07281 1.37382,1.8165 1.37381,1.8165 0.0297,0.98358 0.0297,0.98358 -3.20266,3.10413 -3.20265,3.10413 -2.61293,-0.49949 -2.61293,-0.4995 1.44009,1.07845 1.44009,1.07845 0.55546,1.48373 0.55546,1.48373 z m -1.38871,-1.70739 h 0.46666 v -0.46666 -0.46667 h -0.46666 -0.46667 v 0.46667 0.46666 z m 4.37735,-5.6 h 0.46667 l 1.68931,-1.86666 1.68931,-1.86667 h -0.46667 -0.46666 l -1.68931,1.86667 -1.68931,1.86666 z m 0.44487,-14.31111 0.62222,-0.62222 -0.62222,-0.62222 -0.62222,-0.62222 v 1.24444 1.24445 z m 12.67778,21.38404 -3.96667,0.63952 v -5.19131 -5.19131 l 2.1,-0.40447 2.1,-0.40448 -2.1,-0.12711 -2.1,-0.1271 v -1.4 -1.4 h 1.86667 1.86666 v 0.82448 0.82448 l 1.86796,0.48848 1.86795,0.48848 -0.57334,-0.92769 -0.57334,-0.92769 2.67205,0.1803 2.67206,0.18029 0.46666,-0.21925 0.46667,-0.21925 2.33333,-0.22462 2.33334,-0.22462 4.2,-0.59513 4.2,-0.59513 -2.65498,1.04732 -2.65498,1.04731 0.4264,2.23058 0.42641,2.23058 -2.11655,2.46318 -2.11655,2.46319 -2.93461,-0.58693 -2.9346,-0.58692 0.53481,0.86536 0.53482,0.86535 4.17825,0.62657 4.17824,0.62656 v 0.89452 0.89452 l -5.36666,-0.68003 -5.36667,-0.68002 -0.93333,0.0962 -0.93334,0.0962 z m 2.1,-2.40626 h 0.46666 v -0.46667 -0.46666 h -0.46666 -0.46667 v 0.46666 0.46667 z m -1.86667,-3.73333 h 0.46667 v -0.46667 -0.46667 h -0.46667 -0.46667 v 0.46667 0.46667 z m 4.69664,0 h 3.29665 l 3.23669,-1.35238 3.23669,-1.35237 v -0.86046 -0.86046 l -4.43334,0.79961 -4.43333,0.79962 -2.1,0.49767 -2.1,0.49766 v 0.91556 0.91555 z m 16.07003,5.70297 -2.1,1.10198 1.77798,-2.00248 1.77799,-2.00247 h 0.32201 0.32202 v 0.90049 0.9005 z m 16.65534,0.72697 -12.22201,-0.10339 5.6,-1.2756 5.6,-1.2756 4.77485,-0.99327 4.77485,-0.99327 1.56983,-1.14789 1.56983,-1.14789 -4.94468,-5.27424 -4.94468,-5.27424 -2.33334,-3.26478 -2.33333,-3.26478 -2.41615,-1.43801 -2.41614,-1.43802 -1.08386,1.08385 -1.08385,1.08386 -0.12286,-4.62 -0.12287,-4.62 -0.6876,3.26666 -0.68761,3.26667 -0.12286,-4.02175 -0.12287,-4.02175 0.86885,0.53697 0.86884,0.53698 0.63042,-1.02004 0.63042,-1.02004 -1.96593,-1.83155 -1.96593,-1.83154 v 5.01403 5.01403 l 1.0404,5.18055 1.04041,5.18054 -0.82254,1.4698 -0.82254,1.4698 -2.31787,-1.15138 -2.31786,-1.15138 -0.29879,-2.08081 -0.2988,-2.08081 1.46546,-0.56235 1.46547,-0.56235 v -1.30014 -1.30014 l -1.16667,0.23333 -1.16667,0.23333 0.15939,-1.86666 0.15939,-1.86667 -2.06111,2.56667 -2.06112,2.56666 -1.36494,0.006 -1.36494,0.006 -2.51609,1.31266 -2.51608,1.31265 -0.31326,-0.93976 -0.31325,-0.93976 -4.16258,-0.76118 -4.16258,-0.76118 -0.87946,0.54353 -0.87946,0.54354 1.80471,0.70673 1.80472,0.70666 -2.00015,0.0656 -2.00014,0.0656 -0.49359,-1.28627 -0.49359,-1.28627 0.91207,-0.91206 0.91206,-0.91206 -0.57794,-2.30271 -0.57794,-2.3027 -2.04039,0.0677 -2.04039,0.0677 -0.3063,-2.68036 -0.3063,-2.68037 1.05669,-1.05297 1.05669,-1.05296 1.63652,2.16571 1.63652,2.16571 1.09308,-2.39905 1.09308,-2.39904 h 2.71115 2.71115 l 0.50836,-1.94396 0.50836,-1.94397 3.1005,0.20654 3.1005,0.20654 1.81069,-0.76383 1.81069,-0.76382 0.36655,1.09965 0.36655,1.09964 2.40131,-0.60269 2.40131,-0.60269 1.25478,1.71602 1.25478,1.71601 v -2.04505 -2.04506 h 1.46136 1.46136 l 1.80531,0.96617 1.8053,0.96618 v -0.96618 -0.96617 h 1.4901 1.49009 l -0.32342,8.86739 -0.32343,8.86739 0.66976,-7.2e-4 0.66977,-7.2e-4 3.96368,5.36666 3.96368,5.36667 3.41156,3.81382 3.41156,3.81383 1.64467,2.51009 1.64468,2.51009 -1.66767,1.84275 -1.66767,1.84275 z m 10.06782,-2.69661 h 0.46667 l 0.57683,-0.93333 0.57683,-0.93334 h -0.46666 -0.46667 l -0.57683,0.93334 -0.57683,0.93333 z m -24.00094,-18.04444 0.62222,-0.62222 -0.62222,-0.62223 -0.62222,-0.62222 v 1.24445 1.24444 z m -9.48889,-6.05972 1.86667,-0.4008 1.11084,-1.3829 1.11085,-1.3829 -1.10203,-1.76462 -1.10202,-1.76462 h -1.7726 -1.77259 l -1.26956,-1.63333 -1.26956,-1.63333 -1.34861,1.74144 -1.34862,1.74145 -3.31805,-0.38737 -3.31805,-0.38736 v 3.02206 3.02207 l 4.43333,0.58317 4.43333,0.58317 1.4,0.22234 1.4,0.22234 z m 15.03055,-2.28195 0.56389,-0.56389 -0.4902,-1.225 -0.49021,-1.225 -0.0737,1.78889 -0.0737,1.78889 z m -33.54166,-4.725 0.62222,-0.62222 -0.62222,-0.62222 -0.62222,-0.62222 v 1.24444 1.24444 z m 18.86349,-0.62222 h 0.81906 l 1.16189,-1.4 1.1619,-1.4 h -1.98095 -1.98095 v 1.4 1.4 z m -10.73333,-0.93333 h 3.38095 v -1.4 -1.4 h -2.21905 -2.21905 l -1.1619,1.4 -1.1619,1.4 z m 16.81555,-1.86667 h 0.36793 l -0.1346,-2.33267 -0.1346,-2.33268 -3.96666,-6.6e-4 -3.96667,-6.6e-4 v 0.83348 0.83348 l 1.47633,0.56652 1.47634,0.56652 h 2.257 2.257 v 0.93334 0.93333 z m 1.9654,-0.93333 h 0.46667 v -0.46667 -0.46667 h -0.46667 -0.46667 v 0.46667 0.46667 z m 8.49722,-1.18611 0.56389,-0.56389 -0.49021,-1.225 -0.4902,-1.225 -0.0737,1.78889 -0.0737,1.78888 z m -21.56389,-0.68056 h 0.46667 v -0.46667 -0.46666 h -0.46667 -0.46666 v 0.46666 0.46667 z m 19.6,0 h 0.46667 v -0.46667 -0.46666 h -0.46667 -0.46667 v 0.46666 0.46667 z m -0.46667,-1.86667 h 1.24445 l -0.62222,-0.62222 -0.62223,-0.62222 -0.62222,0.62222 -0.62222,0.62222 z m 2.86136,36.4 h -0.99469 l -0.11794,-0.7 -0.11794,-0.7 -0.11539,-2.33333 -0.1154,-2.33334 -3.03333,-0.29246 -3.03333,-0.29247 v -1.00051 -1.0005 l 2.56666,-2.23356 2.56667,-2.23355 1.12728,-0.9068 1.12727,-0.90681 h 1.53925 1.53925 l -0.4967,1.29436 -0.49669,1.29436 1.79684,-0.46988 1.79683,-0.46989 v 1.92044 1.92044 l -0.96197,0.59453 -0.96197,0.59454 0.5841,3.11352 0.5841,3.11352 -1.8941,1.0137 -1.8941,1.01369 z m 1.33864,-2.8 h 0.46667 v -0.46667 -0.46666 h -0.46667 -0.46666 v 0.46666 0.46667 z m 0,-2.8 h 0.46667 v -0.46667 -0.46666 h -0.46667 -0.46666 v 0.46666 0.46667 z m -2.8,-2.8 h 0.46667 v -0.46667 -0.46666 h -0.46667 -0.46666 v 0.46666 0.46667 z m -41.06666,-1.86667 h -0.46667 v -0.46666 -0.46667 h 0.46667 0.46667 v 0.46667 0.46666 z m 21.62222,-1.24444 -0.62222,0.62222 v -1.24444 -1.24445 l 0.62222,0.62223 0.62222,0.62222 z m 7.31111,-5.28889 h -0.46666 v -0.46666 -0.46667 h 0.46666 0.46667 v 0.46667 0.46666 z"
     style="fill:#000000;stroke-width:0.93333328" />
  <g
     id="g18"
     transform="rotate({{servoleft}}, 230, 118)">
    <path
       inkscape:label="#path287"
       style="fill:#000000;stroke-width:0.93333328"
       d="m 213.58378,137.48648 c 1.32557,-2.25792 1.32557,-2.25792 1.32557,-2.25792 l -3.59491,-4.28424 -3.59491,-4.28425 -0.72591,-3.23281 -0.72591,-3.2328 2.17298,-28.075839 2.17299,-28.075833 0.38704,-0.770943 0.38704,-0.770938 2.17955,-0.526347 2.17955,-0.526345 3.48478,-1.655046 3.48477,-1.655039 5.18692,-4.345549 5.1869,-4.345541 0.66469,0.79214 0.66468,0.792139 -8.36735,6.58015 -8.36736,6.580157 -2.56962,-0.09623 -2.56962,-0.09623 -0.62092,1.159049 -0.62091,1.159046 1.13019,-0.831105 1.13019,-0.831103 3.38751,0.407056 3.38751,0.407052 -1.69204,0.599943 -1.69203,0.599939 0.90413,0.298704 0.90412,0.29871 1.75851,-0.832934 1.75851,-0.832936 -0.94464,-0.312102 -0.94467,-0.312091 0.62981,-0.528469 0.6298,-0.528468 4.12517,-1.598746 4.12515,-1.598729 4.03041,0.169434 4.03041,0.169438 0.93371,1.112768 0.93373,1.112763 -0.81646,0.685092 -0.81646,0.685088 -7.05624,0.957204 -7.05623,0.957207 -0.0694,0.79282 -0.0694,0.792821 0.75006,1.216813 0.75006,1.216812 6.03191,-0.67843 6.03192,-0.678437 0.72734,0.86681 0.72734,0.86681 -1.63006,16.166288 -1.63006,16.166297 -1.12289,0.94222 -1.12288,0.94221 -6.46445,3.48782 -6.46444,3.48782 -1.58993,0.0117 -1.58993,0.0117 1.67334,-19.311804 1.67332,-19.311802 -1.31002,0.190696 -1.31002,0.190706 -1.43577,-2.329227 -1.43578,-2.329224 -1.37246,0.0074 -1.37248,0.0074 -2.10162,24.174232 -2.10161,24.174233 1.81431,0.33003 1.81432,0.33004 0.17875,1.22791 0.17875,1.22791 -1.50886,0.71468 -1.50887,0.71468 0.28412,2.01789 0.28413,2.01788 0.64483,0.76848 0.64484,0.76849 2.80649,-3.17534 2.80649,-3.17533 4.62444,0.1036 4.62442,0.10362 0.858,0.76312 0.858,0.7631 -5.62908,1.32372 -5.62908,1.32373 -1.23843,-0.40915 -1.23845,-0.40916 2.4003,2.68154 2.40028,2.68154 -1.71996,1.1613 -1.71995,1.16131 1.29515,0.71811 1.29518,0.71812 z m 12.04565,-14.80691 0.69197,-0.54186 -2.26868,0.11483 -2.26868,0.11483 -0.69198,0.54186 -0.69197,0.54187 2.26869,-0.11484 2.26867,-0.11481 0.69199,-0.54187 z m -11.14835,6.95656 0.35749,-0.29996 -0.29997,-0.35749 -0.29997,-0.35749 -0.35749,0.29996 -0.35748,0.29997 0.29997,0.35749 0.29997,0.3575 z m 1.77506,-5.1446 0.35749,-0.29997 -0.29996,-0.35748 -0.29997,-0.35749 -0.35749,0.29997 -0.35748,0.29996 0.29997,0.35749 0.29996,0.35748 z m 15.68812,-21.83585 2.15441,-1.66446 1.37935,-14.787066 1.37933,-14.787057 -6.39176,0.703402 -6.39176,0.703405 -0.70347,0.908747 -0.70345,0.908743 -1.61761,17.081008 -1.61761,17.081018 1.19388,0.10444 1.19388,0.10446 3.9852,-2.34609 3.9852,-2.34609 z m 4.98528,-39.37287 0.26994,-0.226506 -0.22651,-0.269939 -0.22651,-0.269945 -2.07458,0.06862 -2.07458,0.06862 2.03116,0.427824 2.03114,0.427835 z m -4.70505,0.292868 0.31529,-0.264559 -0.26456,-0.315291 -0.26456,-0.315294 -1.25352,0.182479 -1.25351,0.182477 1.20278,0.39738 1.20278,0.397374 z m -3.387,0.405268 0.35749,-0.299971 -0.29996,-0.357487 -0.29997,-0.357487 -0.3575,0.299971 -0.35747,0.299961 0.29997,0.357486 0.29996,0.357488 z m -9.89461,7.08418 0.3575,-0.299971 -0.29997,-0.357487 -0.29997,-0.357487 -0.35748,0.299968 -0.3575,0.29997 0.29997,0.357487 0.29997,0.357487 z m 7.86474,-6.59929 0.35748,-0.299964 -0.29997,-0.357488 -0.29997,-0.357486 -0.35748,0.299964 -0.35749,0.29997 0.29996,0.357487 0.29997,0.357488 z m -2.0299,0.4849 0.3575,-0.299972 -0.29997,-0.357487 -0.29997,-0.357488 -0.35749,0.299972 -0.35749,0.299967 0.29997,0.357488 0.29997,0.357487 z m 6.17252,58.176414 -1.07247,0.8999 -0.5811,-0.69253 -0.58111,-0.69255 1.41778,-0.48836 1.4178,-0.48837 0.23578,0.281 0.23578,0.28099 z m 15.55699,-13.29754 -2.55488,2.14379 0.82296,-9.96363 0.82296,-9.963635 -2.13806,-0.294983 -2.13808,-0.294973 -0.8458,-1.513108 -0.84581,-1.513103 1.46131,-1.628469 1.4613,-1.628464 1.79259,0.439116 1.79259,0.439108 1.1778,-8.463877 1.17779,-8.463877 0.92158,0.08063 0.92159,0.08063 -1.94732,17.680084 -1.94731,17.680091 1.30985,1.52042 1.30986,1.52042 z m -13.33577,10.17658 -0.71555,0.63919 -2.52295,0.22036 -2.52295,0.22034 -1.72957,-2.06123 -1.72957,-2.06121 2.49495,-2.47167 2.49496,-2.47166 -0.98962,-0.78118 -0.98964,-0.78119 1.76364,-1.08667 1.76364,-1.08666 0.97385,0.6035 0.97385,0.60349 -1.01001,1.41769 -1.01002,1.41768 1.3208,-0.96695 1.32079,-0.96695 0.53575,0.63848 0.53576,0.63848 -0.76746,1.38415 -0.76744,1.38416 1.05055,0.64081 1.05056,0.64081 -0.40438,1.82354 -0.40437,1.82354 -0.71555,0.63918 z m -2.06367,-1.98095 0.50712,-0.32931 -0.45654,-1.32538 -0.45654,-1.32538 -0.786,-0.0688 -0.78601,-0.0688 -1.31079,1.09989 -1.31078,1.09987 0.8499,1.01288 0.84991,1.01288 1.1963,-0.38934 1.19631,-0.38934 0.5071,-0.3293 z m 4.59246,-3.75733 -0.35748,0.29998 -0.29997,-0.35749 -0.29997,-0.35749 0.3575,-0.29997 0.35748,-0.29997 0.29997,0.35749 0.29996,0.35748 z m 11.94101,-45.35271 -1.0473,0.878793 -1.94265,-0.77877 -1.94263,-0.778773 0.22552,-2.577771 0.22553,-2.577771 -0.88944,0.351523 -0.88943,0.351523 -0.11847,-2.323288 -0.11849,-2.323286 3.77235,4.449501 3.77234,4.449503 z m -1.82493,-2.12384 0.35748,-0.299968 -0.29996,-0.35749 -0.29997,-0.357488 -0.35749,0.299972 -0.35748,0.299964 0.29996,0.357487 0.29997,0.357487 z"
       id="bras"
       inkscape:connector-curvature="0"
       sodipodi:nodetypes="ccccccccccccccccccccccccccccccccccccccccccccccccccccccccccccccccccccccccccccccccccccccccccccccccccccccccccccccccccccccccccccccccccccccccccccccccccccccccccccccccccccccccccccccccccccccccccccccccccccccccccccccccccccccccccccccccccccccccccccccccccccccccccccccccccccccccccccccccccccccccccccccccccccccccccccc" />
    <path
       inkscape:label="#path300"
       style="fill:#000000;stroke-width:0.93333334"
       d="m 318.45293,56.900105 -3.20727,3.573113 -1.90803,-0.281684 -1.90804,-0.281672 -2.61555,1.014256 -2.61555,1.014264 -1.00411,-1.004103 -1.00409,-1.004095 -2.55906,2.55905 -2.55904,2.559061 -1.50251,-0.147423 -1.50249,-0.147432 -1.81238,-1.355904 -1.81236,-1.355908 -20.0125,4.406264 -20.01248,4.406262 -0.8422,0.807702 -0.84223,0.807713 -4.94974,-4.949749 -4.94975,-4.949748 1.31994,-1.319937 1.31993,-1.319935 1.28099,1.280982 1.28097,1.280989 -0.24245,1.027044 -0.24246,1.027044 2.3933,1.074747 2.3933,1.074752 v 1.294499 1.294508 l 11.97122,-2.591224 11.97123,-2.591237 4.86732,-1.15712 4.8673,-1.157129 -0.18954,-0.977066 -0.18954,-0.977056 0.7546,-1.638943 0.75459,-1.638947 -1.36202,-0.29721 -1.36205,-0.297205 -1.51999,-1.449854 -1.52,-1.44985 0.2428,-0.242792 0.2428,-0.2428 2.01383,-2e-6 2.01381,1e-6 0.59342,1.33243 0.59342,1.332429 2.09738,-0.635039 2.09738,-0.635032 v -1.353488 -1.353492 l -1.24711,-0.555411 -1.24708,-0.555413 -18.02698,3.901556 -18.02695,3.901545 -0.58632,0.586319 -0.58631,0.586319 0.69504,1.560605 0.69504,1.560606 2.72163,-0.312583 2.72165,-0.312592 -3.62823,1.273423 -3.62823,1.273414 -1.31358,-0.560798 -1.31357,-0.560801 0.18274,-0.948212 0.18274,-0.948211 -0.72883,-1.581068 -0.72881,-1.581064 -0.65267,0.652666 -0.65267,0.652667 -1.27551,-3.932383 -1.27551,-3.93239 -1.0599,0.250211 -1.0599,0.250207 -1.35444,-1.354435 -1.35444,-1.354435 -1.93283,2.825521 -1.93285,2.82552 -0.55872,-1.117433 -0.55872,-1.117435 2.50405,-4.20341 2.50404,-4.203403 11.39022,-2.271156 11.39021,-2.271142 19.4538,-4.304993 19.4538,-4.305 2.58508,2.175428 2.5851,2.175436 -0.69981,0.699803 -0.6998,0.699802 0.98995,0.989948 0.98994,0.98995 1.64992,-1.649912 1.64992,-1.649915 1.97989,1.979898 1.97991,1.979901 1.97989,-1.979899 1.97991,-1.979898 -0.65997,-0.659967 -0.65997,-0.659971 1.9799,-1.9799 1.9799,-1.979898 0.9036,0.903599 0.90358,0.903592 2.88395,-2.065798 2.88395,-2.065798 3.15861,-3.144044 3.15861,-3.144052 5.00844,-2.403393 5.00843,-2.403377 0.59532,-5e-6 0.59532,-4e-6 0.86621,1.671721 0.8662,1.671726 -2.72156,4.843017 -2.72157,4.843026 -4.81965,5.739796 -4.81965,5.739812 -4.37165,4.72321 -4.37163,4.723203 0.30207,1.279559 0.30207,1.279569 -3.20726,3.573099 z m -2.29922,-1.227619 2.99816,-2.779611 -0.99113,-0.991122 -0.99111,-0.991113 -1.53991,1.539923 -1.53994,1.539924 0.69892,0.698913 0.69891,0.698912 -0.85186,0.20113 -0.85186,0.201131 -0.31415,1.330797 -0.31416,1.330795 z m 0.57594,-1.682007 -0.87996,0.879956 -1e-5,-0.879958 -10e-6,-0.879955 0.87996,3e-6 0.87995,3e-6 z m 5.60971,-7.58961 0.25209,-1.067852 -0.62103,-0.621017 -0.621,-0.621017 -0.65997,0.659973 -0.65997,0.659961 1.0289,1.028901 1.0289,1.028891 z m 3.52561,-3.074055 1.64992,-1.649915 -1.15783,0.492076 -1.15785,0.492083 -0.49207,1.157837 -0.49208,1.157832 z m -6.82544,5.713925 0.32998,-0.329991 -0.32998,-0.329976 -0.32998,-0.329988 -0.32999,0.32998 -0.32998,0.32998 0.32999,0.329985 0.32998,0.329989 z m 9.89126,-11.54118 -0.88493,-1.424947 1.27154,-1.27154 1.27154,-1.271547 -0.59818,-0.598185 -0.59817,-0.598178 -0.90756,1.55029 -0.90755,1.55029 -1.40059,-0.623774 -1.40061,-0.623775 1.5289,-3.240677 1.5289,-3.240685 -3.64158,2.843086 -3.64157,2.843078 -0.0411,0.561568 -0.0411,0.561559 1.90727,-1.116523 1.90726,-1.116529 -0.30663,1.298898 -0.30663,1.298894 3.07249,2.021801 3.07249,2.021789 z m -3.93042,4.080658 0.20087,-0.02114 0.65373,-1.467828 0.65371,-1.467833 -1.67048,-0.155283 -1.67051,-0.155285 -2.55904,2.559053 -2.55905,2.559055 0.73056,0.730577 0.73059,0.730575 0.63118,-1.417253 0.63119,-1.417269 0.23123,0.97926 0.23113,0.979281 1.782,-1.207418 1.78202,-1.207422 z m 10.0544,-10.18253 5.0109,-4.888581 -1.82084,0.798014 -1.82083,0.798005 1.7875,-3.471209 1.78751,-3.471223 0.0467,-1.015453 0.0467,-1.015451 -3.60112,2.080824 -3.60113,2.080818 -1.2979,1.580504 -1.29789,1.58051 0.90869,0.214515 0.9087,0.214517 1.67339,-2.490727 1.6734,-2.490729 -0.30004,1.679853 -0.30005,1.679852 0.94506,-0.924846 0.94506,-0.924833 3e-5,0.793626 4e-5,0.793624 -2.99718,4.018791 -2.9972,4.018793 2.82978,-2.449965 2.82977,-2.449955 -3.18498,4.074639 -3.185,4.07464 z m -23.75794,22.439694 2.30988,-2.309878 -1.45676,0.853125 -1.45677,0.853118 -0.85311,1.456771 -0.85313,1.456753 z m 3.78293,-3.476689 0.32998,-0.329991 -0.32998,-0.329989 -0.32998,-0.329978 -0.32998,0.32999 -0.33,0.329981 0.32999,0.32998 0.32997,0.329988 z m 1.64992,-1.649921 0.87995,-0.879952 -0.87996,6e-6 -0.87995,-2e-6 1e-5,0.879954 v 0.879955 z M 340.81845,24.622 l 0.32998,-0.329986 -0.32998,-0.329984 -0.32999,-0.329979 -0.32999,0.329986 -0.32998,0.329986 0.32997,0.329978 0.33,0.329985 z m 0.65997,-1.9799 0.32997,-0.329978 -0.33,-0.330007 -0.32999,-0.329984 -0.32998,0.329979 -0.32999,0.329986 0.33,0.329984 0.32997,0.329986 z m -38.89909,36.259173 1.61096,-1.61096 -0.92802,-0.928022 -0.92802,-0.928023 2.9817,-3.947942 2.98169,-3.947956 -1.8423,0.797573 -1.84229,0.79756 -2.53167,2.438893 -2.53166,2.438897 -7.09408,1.118338 -7.09409,1.118341 1.26996,2.197218 1.26997,2.197221 3.33879,-0.211986 3.3388,-0.211979 0.77271,-0.73098 0.77269,-0.730986 2.93322,-0.182864 2.9332,-0.182861 -1.56688,0.811544 -1.56688,0.811553 1.05561,0.249206 1.05562,0.249195 z m 3.26087,-3.260877 0.32999,-0.329982 -0.32999,-0.329986 -0.32997,-0.329979 -0.32999,0.329988 -0.32999,0.329981 0.32998,0.329979 0.32999,0.329989 z m 11.86043,-12.957382 1.8001,-2.419371 -0.28267,-1.820697 -0.28268,-1.820701 -1.25776,0.279651 -1.25773,0.279645 -1.49505,1.474814 -1.49503,1.474813 0.57746,0.742462 0.57748,0.742467 0.40237,0.587579 0.40238,0.587577 0.25548,1.155557 0.25549,1.155572 z m 14.53823,-13.441273 0.32998,-0.329978 -0.32998,-0.329987 -0.32998,-0.329978 -0.32998,0.329979 -0.32999,0.329985 0.32998,0.329978 0.32999,0.329988 z m 2.30988,-2.309876 0.87995,-0.879954 -0.87995,-2e-6 -0.87996,6e-6 10e-6,0.879952 10e-6,0.87995 z m -27.3886,26.068674 0.32999,-0.329991 -0.33,-0.329987 -0.32997,-0.329979 -0.32999,0.329982 -0.32998,0.32999 0.32997,0.329979 0.33,0.329987 z m 21.40996,-21.409959 1.94095,-1.94095 -0.19941,-0.844679 -0.19942,-0.84468 -1.99932,2.527856 -1.99933,2.527845 0.25778,0.257775 0.25778,0.257783 z m -18.77008,14.810288 0.98993,-0.989949 -0.25937,-0.259376 -0.25937,-0.259372 -1.36983,0.61007 -1.36982,0.610063 0.63924,0.63926 0.63926,0.639254 z m -6.60866,1.276074 3.34372,-3.290826 -2.89162,-2.388112 -2.89162,-2.388119 -5.1189,5.118893 -5.11888,5.118888 1.99078,1.351812 1.99078,1.351804 2.67603,-0.791737 2.67604,-0.791737 3.34371,-3.290825 z m -4.0608,2.173752 -5e-5,0.636152 -2.52217,-0.125791 -2.52216,-0.125799 0.68145,-0.681447 0.68144,-0.681443 1.84072,0.171079 1.84072,0.171081 z m -13.08934,11.069436 0.32999,-0.329978 -0.33,-0.329987 -0.32997,-0.329979 -0.32999,0.329979 -0.32999,0.32999 0.32999,0.32998 0.32999,0.329976 z m -2.0899,-6.269675 -1e-5,-0.879962 -0.87997,-4e-6 -0.87995,-2e-6 0.87996,0.879959 0.87995,0.879953 z m 9.78325,-11.115691 5.28398,-5.275489 -2.71527,2.199589 -2.71527,2.199591 -2.56882,3.075787 -2.56884,3.075781 5.28399,-5.275491 z m -4.48477,0.794951 3.97344,-3.946151 -2.00379,0.431492 -2.00377,0.431482 -8.27746,1.826635 -8.27747,1.826633 -5.43186,1.167794 -5.43186,1.167809 -7.55866,1.680854 -7.55867,1.680874 -1.43151,0.36598 -1.4315,0.365991 0.33346,1.485575 0.33345,1.485577 1.12983,1.150046 1.12981,1.150045 13.83581,-2.916349 13.83582,-2.916341 5.43076,-1.245888 5.43077,-1.245886 3.97345,-3.946149 z m 7.95112,-8.42857 2.03963,-2.039638 -0.38856,-0.38856 -0.38856,-0.388555 -10.51655,2.352805 -10.51654,2.352808 -2.11356,0.494956 -2.11358,0.494968 -6.60234,1.348592 -6.60233,1.348586 -8.40239,2.034523 -8.40243,2.034526 0.31495,1.407197 0.31494,1.407204 0.33889,0.321069 0.33889,0.321076 11.11941,-2.371826 11.11942,-2.371827 9.17594,-2.043483 9.17594,-2.043482 5.03458,-1.115638 5.03459,-1.115643 2.03962,-2.03963 z m -48.11782,26.338921 0.32999,-0.329985 -0.32998,-0.329988 -0.32998,-0.329978 -0.32999,0.329986 -0.32998,0.329987 0.32997,0.329977 0.32998,0.329987 z m -4.61976,1.979899 0.32998,-0.329986 -0.32997,-0.329978 -0.32999,-0.329987 -0.32999,0.329986 -0.32998,0.329978 0.32998,0.329988 0.32998,0.329978 z m 3.8498,-4.289784 v -0.879953 l -0.87996,-3e-6 -0.87995,-3e-6 0.87995,0.879952 0.87996,0.879957 z m 31.05052,-2.891953 -0.98996,0.989951 -0.25207,-1.06785 -0.25206,-1.067849 0.98994,-0.989948 0.98996,-0.989951 0.25207,1.06785 0.25207,1.067848 z m -0.91209,-3.047736 -0.87994,0.879951 -1e-5,-0.879949 -10e-6,-0.879953 0.87995,2e-6 0.87996,-6e-6 z m -5.60971,4.289784 -0.32998,0.329986 -0.32999,-0.329987 -0.32997,-0.329979 0.32997,-0.329983 0.32999,-0.329987 0.32998,0.32998 0.32999,0.329984 z m -1.94095,0.621013 -0.29103,0.29104 -1.23285,-0.29103 -1.23282,-0.291042 1.23283,-0.291036 1.23284,-0.291028 0.29102,0.291031 0.29104,0.291036 z m -8.61851,2.018847 -0.32998,0.329986 -0.32999,-0.329987 -0.32998,-0.329978 0.32998,-0.329984 0.32999,-0.329978 0.32997,0.329978 0.33,0.329985 z m -3.29983,0.659966 -0.32999,0.329985 -0.32998,-0.329979 -0.32998,-0.329987 0.32998,-0.329986 0.32999,-0.329978 0.32997,0.329986 0.32998,0.329979 z"
       id="avant_bras"
       transform="rotate({{servoright}}, 244, 60)"
       inkscape:connector-curvature="0" />
  </g>
</svg>
