<?xml version="1.0" encoding="UTF-8" standalone="no"?>
<!-- Created with Inkscape (http://www.inkscape.org/) -->

<svg
   xmlns:dc="http://purl.org/dc/elements/1.1/"
   xmlns:cc="http://creativecommons.org/ns#"
   xmlns:rdf="http://www.w3.org/1999/02/22-rdf-syntax-ns#"
   xmlns:svg="http://www.w3.org/2000/svg"
   xmlns="http://www.w3.org/2000/svg"
   xmlns:sodipodi="http://sodipodi.sourceforge.net/DTD/sodipodi-0.dtd"
   xmlns:inkscape="http://www.inkscape.org/namespaces/inkscape"
   width="450"
   height="200"
   viewBox="0 0 450 200"
   version="1.1"
   id="svg279"
   inkscape:version="0.92.3 (2405546, 2018-03-11)"
   sodipodi:docname="digital_twin.svg">
  <defs
     id="defs273" />
  <sodipodi:namedview
     id="base"
     pagecolor="#ffffff"
     bordercolor="#666666"
     borderopacity="1.0"
     inkscape:pageopacity="0.0"
     inkscape:pageshadow="2"
     inkscape:zoom="2.8"
     inkscape:cx="201.27001"
     inkscape:cy="107.19428"
     inkscape:document-units="px"
     inkscape:current-layer="svg279"
     showgrid="false"
     units="px"
     inkscape:window-width="1817"
     inkscape:window-height="1053"
     inkscape:window-x="1911"
     inkscape:window-y="-9"
     inkscape:window-maximized="1" />
  <metadata
     id="metadata276">
    <rdf:RDF>
      <cc:Work
         rdf:about="">
        <dc:format>image/svg+xml</dc:format>
        <dc:type
           rdf:resource="http://purl.org/dc/dcmitype/StillImage" />
        <dc:title />
      </cc:Work>
    </rdf:RDF>
  </metadata>
  <g
     id="g38"
     transform="rotate(-{{servo2}}, 92, 134)">
    <g
       id="g17">
      <path
         inkscape:label="#path78"
         style="fill:#000000;stroke-width:0.28051949"
         d="m 154.63486,90.290801 -0.20846,0.174912 -0.82012,-0.07175 -0.82013,-0.07174 -0.6165,-1.011482 -0.61648,-1.0115 0.0363,0.407912 0.0364,0.407915 -0.44366,0.06459 -0.44364,0.06458 -0.68345,1.129196 -0.68344,1.129206 -0.65312,-0.05713 -0.65312,-0.05715 -0.35515,-1.620038 -0.35515,-1.620028 -0.14302,-0.170444 -0.14302,-0.170446 -0.0963,0.291486 -0.0963,0.291486 -0.30669,-0.100981 -0.30669,-0.100979 -0.92066,0.804557 -0.92065,0.804568 -0.36102,0.05255 -0.36101,0.05255 -0.32204,-0.38379 -0.32204,-0.383789 0.0994,-0.645286 0.0994,-0.645287 0.40155,-0.93979 0.40155,-0.939787 -0.27226,-0.324453 -0.27224,-0.32445 -1.29427,0.390705 -1.29427,0.390698 -0.54381,-0.218048 -0.54383,-0.218049 -0.10355,-0.544491 -0.10355,-0.544494 0.23052,-0.193432 0.23054,-0.193439 0.003,0.530843 0.003,0.530842 0.36231,0.119733 0.36231,0.119734 1.26991,-0.367455 1.2699,-0.367449 0.53883,0.341835 0.53882,0.341835 -0.15413,0.79291 -0.15413,0.792911 -0.258,0.216492 -0.25801,0.216502 -0.10507,0.852111 -0.10506,0.852112 0.54342,0.09887 0.5434,0.09886 0.89106,-0.974341 0.89105,-0.974331 0.46234,-0.159256 0.46235,-0.159253 0.52165,0.621678 0.52165,0.621676 -0.16856,0.14144 -0.16856,0.141438 0.15501,0.933452 0.15503,0.933454 0.28772,0.342899 0.28774,0.342911 0.44411,-0.372659 0.44413,-0.372665 0.25357,-1.128237 0.25356,-1.128227 0.32946,-0.27645 0.32946,-0.276459 0.53473,0.09723 0.53474,0.09723 0.63623,1.025786 0.63623,1.025774 0.44448,0.138152 0.44447,0.138151 0.24067,-0.434082 0.24069,-0.43409 -0.38467,-1.32941 -0.38468,-1.329418 0.18726,-0.157129 0.18726,-0.15713 0.22918,-0.413324 0.22917,-0.413325 1.18989,0.60099 1.18989,0.601002 0.63606,-0.0034 0.63606,-0.0034 -0.0422,-0.631515 -0.0422,-0.631516 -0.99818,-0.938849 -0.99819,-0.938859 0.35102,-0.735748 0.351,-0.735759 0.84923,0.03446 0.84924,0.03445 0.63162,-0.143592 0.63162,-0.143593 0.1348,-0.408041 0.13481,-0.408042 -0.55979,-0.399928 -0.55979,-0.399927 0.64798,0.271496 0.648,0.271501 0.003,0.555483 0.003,0.555475 -0.30671,0.257351 -0.30669,0.257345 -0.82543,0.194728 -0.82545,0.194735 -0.74132,0.369456 -0.74131,0.369457 0.95883,0.847449 0.95884,0.847459 0.13311,0.634639 0.1331,0.634645 -0.51747,0.434211 -0.51749,0.434217 -0.71618,-0.191818 -0.71617,-0.191816 -0.78099,0.529624 -0.78101,0.529632 0.0645,1.047427 0.0645,1.047433 z m 4.21275,-10.126379 -0.0791,0.06635 -0.75187,-0.103737 -0.75186,-0.103736 0.0181,-0.207514 0.0181,-0.207523 0.81281,0.244867 0.81282,0.244868 z m -1.82767,-0.91746 0.0521,0.39324 -0.29932,-0.350502 -0.29932,-0.350491 0.24384,-0.439786 0.24384,-0.439783 1.00006,-0.612155 1.00006,-0.612156 -0.003,-0.584501 -0.003,-0.584508 -0.80006,-0.145745 -0.80006,-0.145742 0.93448,0.04491 0.93447,0.0449 0.0789,0.569542 0.0789,0.569552 -1.20665,1.124785 -1.20665,1.124794 z m -6.22647,2.320262 -0.32455,0.499425 -0.75721,0.06614 -0.7572,0.06613 -0.47875,-0.584543 -0.47874,-0.584553 -0.0301,-0.615594 -0.0301,-0.615593 0.53395,-0.448037 0.53395,-0.448047 0.68538,0.09457 0.6854,0.09455 0.45959,0.54772 0.45959,0.547711 -0.0883,0.440295 -0.0883,0.440296 -0.32455,0.499428 z m -1.17755,-0.98034 0.10739,-0.09017 -0.0902,-0.10742 -0.0902,-0.107419 -0.10749,0.09015 -0.10748,0.09015 0.0902,0.107421 0.0902,0.10742 z m 6.93467,-4.538529 -0.0191,0.21814 -0.4418,-0.09588 -0.44181,-0.09589 -0.44093,-0.179325 -0.44093,-0.179322 0.90183,0.05703 0.90184,0.05702 z m -1.01924,-2.130047 -0.59875,1.439892 -0.18087,-0.215564 -0.18089,-0.215566 0.52661,-1.008955 0.52662,-1.008955 0.0978,-0.665913 0.0978,-0.665923 0.1552,0.450553 0.15519,0.45054 z m -13.65754,9.131257 -0.6936,0.576387 0.14758,-0.478776 0.14758,-0.478775 0.3733,-0.318844 0.37329,-0.318845 -0.24839,-0.296028 -0.24839,-0.296017 -0.57085,0.0031 -0.57084,0.0031 -0.82533,-0.344453 -0.82533,-0.344451 -0.13001,-0.619978 -0.13003,-0.619963 0.20915,-0.175509 0.20914,-0.175492 0.088,0.624855 0.088,0.624867 0.78547,0.198522 0.78547,0.198521 0.72974,0.187069 0.72973,0.187069 0.135,0.64366 0.135,0.64366 z m 11.26832,-9.815824 -0.64928,0.5448 -0.67052,-0.319927 -0.67051,-0.319922 -0.0564,-1.210347 -0.0564,-1.210349 -0.19773,-0.235641 -0.19774,-0.23565 0.10308,-0.312199 0.10308,-0.312201 0.26378,0.758172 0.26376,0.758176 0.028,0.885277 0.028,0.885272 0.55354,0.04844 0.55355,0.04843 0.44513,-0.373511 0.44512,-0.373504 0.18032,0.214891 0.18031,0.214891 z m 1.36923,-1.177857 -0.42609,0.328646 0.18733,-0.349527 0.18733,-0.349527 0.23877,0.02092 0.23875,0.02093 z m -12.15142,6.56326 -0.17314,0.145284 -1.21509,0.05505 -1.21508,0.05504 0.50529,-0.19315 0.5053,-0.193159 0.22888,-0.570979 0.22889,-0.57098 -4.48575,-5.096036 -4.48575,-5.096045 -0.12661,-0.01107 -0.12662,-0.01108 -0.25857,-1.032332 -0.25855,-1.032328 0.53198,-8.506732 0.53198,-8.50673 0.20764,-0.374612 0.20765,-0.374603 0.10354,0.01328 0.10355,0.01328 2.48352,2.67658 2.48351,2.67659 -0.49158,-0.136781 -0.49159,-0.136782 -2.08648,-2.46044 -2.0865,-2.460436 -0.55125,7.420214 -0.55126,7.420222 0.0253,1.781073 0.0253,1.781076 4.91353,5.792872 4.91354,5.792881 0.3887,0.497772 0.38869,0.497772 z m 6.32011,-5.6694 -0.31035,0.260418 -0.86952,-1.009802 -0.86951,-1.009799 -3.74607,-4.244336 -3.74608,-4.244339 -0.18909,-0.876078 -0.1891,-0.876088 0.17153,-3.285854 0.17155,-3.285859 -0.52729,-0.809941 -0.52729,-0.809947 0.70886,0.774939 0.70888,0.774943 -0.17641,3.680031 -0.17638,3.680038 0.4938,0.877254 0.49381,0.877267 3.21208,3.561894 3.21208,3.561896 0.67462,0.588695 0.67462,0.588696 0.41839,-0.144122 0.4184,-0.14412 0.27571,-0.435133 0.27572,-0.435131 -0.13629,1.062023 -0.13629,1.062042 z m 1.01227,-2.709271 -0.42609,0.328647 0.18733,-0.349528 0.18734,-0.349526 0.23876,0.02092 0.23875,0.02092 -0.42611,0.32862 z m -5.94669,3.554013 -0.62754,0.526566 -0.73529,-0.196852 -0.73527,-0.19685 -0.26854,-0.334039 -0.26854,-0.334028 -0.0199,-0.555306 -0.0199,-0.555307 0.25939,-0.459782 0.25938,-0.459764 0.74622,-0.207011 0.74621,-0.207004 0.54718,0.39624 0.54717,0.39623 0.0985,0.830171 0.0985,0.830163 z m -0.73245,-1.225519 -0.12499,-0.316242 -0.43966,-0.03846 -0.43966,-0.03847 0.27648,0.329495 0.27649,0.329504 0.28817,0.02518 0.28818,0.02518 z"
         id="pinceg"
         transform="rotate({{servo1}}, 150, 81)"
         inkscape:connector-curvature="0" />
      <path
         inkscape:label="#path158"
         inkscape:connector-curvature="0"
         id="pinced"
         transform="rotate(-{{servo1}}, 161, 94)"
         d="m 154.19358,85.657636 -0.23567,0.136064 -0.21312,0.795193 -0.21302,0.79522 0.73962,0.925261 0.73965,0.925255 -0.37089,-0.173672 -0.37087,-0.17368 -0.21243,0.394801 -0.21242,0.394801 -1.29486,0.256019 -1.29485,0.256022 -0.16964,0.633282 -0.16965,0.633292 1.40087,0.887806 1.40086,0.887815 0.11125,0.192696 0.11125,0.192686 -0.30684,-0.0092 -0.30684,-0.0092 -0.01,0.322731 -0.01,0.32273 -1.07091,0.589961 -1.07094,0.589947 -0.17284,0.321286 -0.17286,0.321254 0.2505,0.43389 0.2505,0.433882 0.64035,0.127329 0.64036,0.127332 1.02045,-0.05591 1.02045,-0.0559 0.21177,0.366796 0.21177,0.366797 -0.80981,1.082594 -0.8098,1.082577 0.0189,0.585607 0.0189,0.58561 0.47625,0.28352 0.47624,0.28354 0.26061,-0.15047 0.26061,-0.15046 -0.49784,-0.18425 -0.49784,-0.18425 0.0114,-0.38141 0.0114,-0.38143 0.77963,-1.067647 0.77962,-1.06764 -0.13693,-0.623246 -0.13693,-0.623246 -0.79781,-0.126358 -0.79779,-0.126356 -0.2917,0.168406 -0.29168,0.168408 -0.83666,-0.192711 -0.83666,-0.192712 0.093,-0.54446 0.093,-0.54444 1.22033,-0.50408 1.22034,-0.504068 0.30778,-0.379987 0.30779,-0.379997 -0.40578,-0.702819 -0.40577,-0.702809 -0.19056,0.110021 -0.19056,0.110011 -0.82414,-0.464925 -0.82414,-0.464933 -0.22381,-0.387654 -0.22382,-0.387664 0.50209,-0.289868 0.50208,-0.289878 1.14691,0.147602 1.14693,0.147603 0.37246,-0.21504 0.37247,-0.215048 0.0914,-0.535764 0.0914,-0.535754 -0.74632,-0.9487 -0.74631,-0.948699 0.0222,-0.464934 0.0222,-0.464913 0.49023,-0.0777 0.49022,-0.07771 1.11767,0.816162 1.11768,0.816152 0.2117,-0.122226 0.2117,-0.122215 0.46678,-0.07399 0.46678,-0.07399 -0.15778,-1.323688 -0.15779,-1.323689 0.22074,-0.596531 0.22074,-0.596542 0.57899,0.255665 0.57899,0.255664 0.54083,1.259093 0.54084,1.259094 0.81143,-0.07819 0.81144,-0.0782 0.25807,-0.809801 0.25807,-0.809808 0.35096,-0.544418 0.35096,-0.544417 0.42955,0.01289 0.42953,0.01288 0.18435,0.662821 0.18435,0.662813 -0.0335,-0.701767 -0.0335,-0.701775 -0.52096,-0.192793 -0.52095,-0.192792 -0.34674,0.200192 -0.34672,0.200174 -0.4653,0.709063 -0.4653,0.709053 -0.60072,0.570249 -0.60072,0.57025 -0.46841,-1.190859 -0.46841,-1.190861 -0.55084,-0.34214 -0.55084,-0.342131 -0.58502,0.337764 -0.58502,0.337754 -0.0647,0.738599 -0.0647,0.738591 -0.76479,0.552752 -0.7648,0.552751 -0.96221,-0.418848 -0.96221,-0.418851 z m 10.95653,-0.495263 -0.0894,0.05166 -0.15968,0.742006 -0.15967,0.742005 0.2012,0.05396 0.20122,0.05386 0.0479,-0.847542 0.0479,-0.84755 z m 0.23702,2.031238 -0.35168,-0.183507 0.22698,0.401149 0.22698,0.40115 0.49666,-0.07872 0.49666,-0.07871 0.91728,-0.730383 0.91729,-0.730391 0.54815,0.202919 0.54816,0.202919 -0.13668,0.801665 -0.13668,0.801654 0.2774,-0.893483 0.27742,-0.893471 -0.50821,-0.268946 -0.50822,-0.268936 -1.46965,0.749179 -1.46966,0.749178 z m -4.30991,5.057385 -0.58031,0.134159 -0.32113,0.688932 -0.32112,0.688914 0.38555,0.649803 0.38556,0.649803 0.56818,0.238812 0.56818,0.238811 0.60364,-0.348513 0.60365,-0.348513 0.14556,-0.6764 0.14556,-0.676389 -0.3575,-0.619206 -0.35749,-0.619205 -0.44394,-0.06762 -0.44394,-0.06762 -0.58031,0.134158 z m 0.51847,1.441836 0.12148,-0.07017 0.0701,0.121474 0.0701,0.121474 -0.12148,0.07017 -0.12148,0.07017 -0.0701,-0.121474 -0.0701,-0.121474 z m 6.63662,-4.96419 -0.2115,-0.05669 -0.061,0.447951 -0.061,0.447952 0.0177,0.475683 0.0177,0.475675 0.25486,-0.866956 0.25485,-0.866956 z m 1.65299,1.686287 -1.55784,0.07016 0.1407,0.243704 0.1407,0.243705 1.12822,-0.149773 1.12822,-0.149772 0.65921,0.135835 0.65922,0.135835 -0.3703,-0.299937 -0.37029,-0.299928 z m -13.25172,9.710821 -0.77885,0.45463 0.50037,0.0251 0.50038,0.0251 0.42729,-0.24173 0.42729,-0.24174 0.19322,0.33467 0.19321,0.33466 -0.19815,0.53536 -0.19815,0.53534 0.0414,0.89337 0.0414,0.89337 0.53812,0.33423 0.53811,0.33423 0.23645,-0.13652 0.23644,-0.13651 -0.55708,-0.2964 -0.55708,-0.29639 0.0821,-0.806 0.0821,-0.806 0.0738,-0.74971 0.0738,-0.7497 -0.55868,-0.34701 -0.55867,-0.347001 z m 13.07784,-7.231548 -0.73401,0.423787 0.0712,0.739509 0.0713,0.73949 1.11808,0.466917 1.11808,0.466926 0.1538,0.266405 0.15381,0.266406 0.32863,0.0098 0.32864,0.0098 -0.62223,-0.507184 -0.62224,-0.507167 -0.82231,-0.329091 -0.82231,-0.329093 0.14382,-0.536721 0.14381,-0.53672 0.50323,-0.290539 0.50322,-0.290541 -0.14026,-0.242936 -0.14026,-0.242937 z m 1.57514,-0.883809 -0.45457,0.287991 0.39252,-0.0565 0.39252,-0.05649 0.062,-0.231515 0.062,-0.231523 z m -10.32349,9.173837 -0.19574,0.11301 -0.4673,1.12298 -0.4673,1.12298 0.35432,-0.40876 0.35432,-0.40876 0.61483,-0.0198 0.61483,-0.0198 3.2545,5.95818 3.2545,5.95817 -0.0329,0.12277 -0.0329,0.12277 0.88164,0.59605 0.88164,0.59605 8.17566,2.40957 8.17565,2.40957 0.42305,-0.0671 0.42303,-0.067 0.0229,-0.10185 0.0229,-0.10185 -1.66575,-3.24919 -1.66576,-3.24918 -0.0396,0.50872 -0.0396,0.50872 1.59844,2.80217 1.59843,2.80218 -7.16126,-2.01986 -7.16127,-2.01984 -1.665,-0.63296 -1.665,-0.63297 -3.76299,-6.59849 -3.763,-6.5985 -0.33481,-0.5355 -0.33481,-0.53552 z m 7.4891,-3.999919 -0.35086,0.202571 0.65151,1.162454 0.65151,1.162444 2.70714,4.9718 2.70714,4.97181 0.75858,0.47733 0.75857,0.47734 3.14636,0.96263 3.14637,0.96263 0.58075,0.77251 0.58076,0.77251 -0.48576,-0.93116 -0.48576,-0.93117 -3.51843,-1.09289 -3.51842,-1.09289 -0.65547,-0.76407 -0.65547,-0.76406 -2.24849,-4.23661 -2.24849,-4.23661 -0.32246,-0.835275 -0.32246,-0.835284 0.27853,-0.343869 0.27853,-0.343878 0.50319,-0.110256 0.5032,-0.110267 -1.0446,-0.235165 -1.04461,-0.235166 z m 2.89211,-0.0246 -0.45457,0.287991 0.39252,-0.05649 0.39253,-0.0565 0.062,-0.231515 0.062,-0.231515 -0.45454,0.288024 z m -5.37357,4.372529 -0.70944,0.40959 -0.0665,0.75828 -0.0665,0.75826 0.22204,0.36659 0.22204,0.36658 0.51503,0.2086 0.51502,0.20861 0.52076,-0.0865 0.52076,-0.0865 0.44974,-0.63041 0.44975,-0.63042 -0.1852,-0.64969 -0.1852,-0.6497 -0.74641,-0.37649 -0.74642,-0.37648 z m 0.90109,1.10743 0.25443,0.2256 -0.11424,0.42632 -0.11422,0.4263 -0.21506,-0.37251 -0.21507,-0.3725 0.0749,-0.27942 0.0749,-0.27941 z"
         style="fill:#000000;stroke-width:0.28051949" />
      <path
         style="fill:#000000;stroke-width:0.42236531"
         d="m 88.260258,164.73782 -1.373472,-1.63684 0.491338,-0.0715 0.491334,-0.0715 -0.513412,-0.61186 -0.513428,-0.61188 -1.18847,-5.02243 -1.188482,-5.02242 -8.073045,-9.62885 -8.073037,-9.62884 -0.78781,0.66106 -0.787808,0.66104 -1.094707,0.38087 -1.094717,0.38086 -0.570319,-0.67968 -0.570318,-0.67969 -0.133448,-3.15431 -0.133428,-3.1543 0.323729,-0.27165 0.323729,-0.27165 0.09639,0.60833 0.09639,0.60832 0.173781,-0.89746 0.173783,-0.89746 -0.364429,-0.12041 -0.364439,-0.1204 0.47431,-0.66879 0.474307,-0.66877 0.603462,-0.0878 0.603452,-0.0879 3.132956,-2.53984 3.132966,-2.53984 0.410243,-0.0597 0.410243,-0.0597 -0.424132,-0.50546 -0.424131,-0.50546 7.026284,-5.8357 7.026272,-5.83569 1.205426,-0.53662 1.205417,-0.53662 0.347077,-0.86579 0.347086,-0.8658 1.450017,-0.85108 1.450028,-0.85107 0.247616,0.29511 0.247637,0.29511 -1.113326,0.93419 -1.113335,0.9342 0.05855,0.40243 0.05855,0.40243 0.927669,-0.99526 0.927678,-0.99525 0.326915,-0.59602 0.326924,-0.59603 0.465282,-0.27724 0.465292,-0.27724 -0.438264,-0.34763 -0.438253,-0.34763 0.825973,-0.871497 0.825972,-0.871498 0.738397,0.523709 0.73841,0.523692 0.285818,-0.23983 0.285807,-0.239826 2.117637,2.5237 2.117635,2.52369 -0.0584,0.66755 -0.0584,0.66755 -0.58947,0.20304 -0.589477,0.20305 0.184182,0.2195 0.184195,0.2195 0.89256,0.0781 0.89255,0.0781 1.87874,2.239 1.87875,2.239 -0.31464,0.9579 -0.31467,0.95789 2.01675,-1.06493 2.01677,-1.06493 -2.49615,2.15638 -2.49613,2.1564 -0.0715,-0.49135 -0.0715,-0.49134 0.52016,-0.43646 0.52014,-0.43646 -0.28261,-0.0247 -0.28262,-0.0247 -2.27831,2.62472 -2.278305,2.62471 -0.570451,0.35166 -0.57045,0.35166 0.379724,0.12545 0.379742,0.12547 4.16743,-3.41584 4.16745,-3.41582 2.86328,-2.17289 2.86327,-2.17289 4.36384,-3.34147 4.36384,-3.34147 1.9087,-1.33926 1.90869,-1.339271 -1.1188,0.309372 -1.11881,0.309371 -1.36543,1.001078 -1.36542,1.00109 -4.56719,3.42765 -4.5672,3.42767 -0.30002,-0.029 -0.30002,-0.029 6.3575,-4.90802 6.35748,-4.908038 0.46643,-0.429759 0.46643,-0.429757 1.00733,-1.197184 1.00734,-1.197192 0.5035,0.16635 0.50349,0.166338 0.7707,-0.646681 0.77068,-0.646683 0.52197,0.172438 0.52196,0.172448 -0.8129,0.334905 -0.8129,0.334909 0.006,0.697049 0.006,0.697054 3.86522,-3.055019 3.86521,-3.055023 -0.34657,-0.03273 -0.34656,-0.03273 -2.57323,1.809761 -2.57322,1.809763 -0.23551,-0.0069 -0.2355,-0.0069 2.24368,-1.870919 2.24367,-1.87092 7.05059,-5.375754 7.05058,-5.375755 0.72975,-0.300658 0.72976,-0.300651 0.91035,1.08491 0.91036,1.084919 -0.8296,1.076771 -0.8296,1.076773 -3.831,2.827005 -3.83101,2.827005 3.19866,4.291481 3.19864,4.291474 1.22398,1.116103 1.22397,1.116101 -0.25999,0.444256 -0.25999,0.44427 0.48275,-0.54308 0.48274,-0.543089 0.29955,0.161218 0.29956,0.161231 3.50408,-2.559113 3.50409,-2.559099 -0.45291,-0.539763 -0.45291,-0.539755 -0.14263,0.784111 -0.14263,0.784112 -0.80125,0.330103 -0.80125,0.330103 -0.49545,-0.274706 -0.49546,-0.274707 2.27421,-1.539207 2.2742,-1.539214 0.60819,0.05321 0.60821,0.05321 0.60803,1.162445 0.60803,1.162454 -0.73417,0.952903 -0.73416,0.952912 -12.3078,8.923481 -12.3078,8.92347 -1.659,1.07316 -1.65901,1.07315 0.0772,0.53017 0.0772,0.53016 -0.48532,0.40723 -0.48533,0.40724 -0.0715,-0.49134 -0.0715,-0.49134 -0.47746,0.40063 -0.47745,0.40064 0.19789,0.52314 0.1979,0.52314 -1.08375,-0.0289 -1.08374,-0.0289 -4.88668,4.01581 -4.88666,4.01582 1.91206,2.45093 1.91209,2.45094 0.2368,0.90401 0.23681,0.90402 0.58439,0.88805 0.58438,0.88804 -11.33383,9.65508 -11.3338,9.6551 -0.36582,-0.43596 -0.36581,-0.43596 -2.543173,2.3901 -2.543175,2.39011 0.128372,0.372 0.128358,0.37204 -3.855632,3.23525 -3.855654,3.23527 z m -0.402401,-3.76498 0.135742,0.16177 0.161768,-0.13575 0.161781,-0.13574 -0.135751,-0.16178 -0.13574,-0.16177 -0.16178,0.13575 -0.161777,0.13573 z m 0.902069,-0.23913 0.138315,0.16485 1.368796,-0.30735 1.368798,-0.30736 0.578431,-0.4932 0.578417,-0.49318 -0.728987,0.0984 -0.72899,0.0984 0.33922,-0.56295 0.339227,-0.56294 0.678194,-0.83445 0.678199,-0.83448 -1.039407,1.06109 -1.039398,1.06109 -0.522273,0.69174 -0.522267,0.69176 -0.81201,0.18217 -0.811995,0.1822 0.138325,0.16485 z m -24.176681,-30.29912 0.69497,-0.3297 0.06612,0.45416 0.06611,0.45415 0.945114,-0.71942 0.945046,-0.71949 1.598851,-1.37998 1.598862,-1.37998 3.015616,-2.64842 3.015627,-2.64841 -1.620623,1.02548 -1.620645,1.02548 0.385871,-1.03697 0.38589,-1.03697 -0.451133,-0.14905 -0.451141,-0.14905 0.342971,-0.61855 0.34296,-0.61855 -0.242441,-0.28893 -0.24245,-0.28893 -3.150123,2.6524 -3.150759,2.65164 0.748505,-0.0936 0.748504,-0.0936 -0.866174,0.73595 -0.866174,0.73594 0.07154,0.49133 0.07153,0.49135 -0.932463,0.78243 -0.932474,0.78243 0.07155,0.49134 0.07152,0.49134 -0.6774,0.63236 -0.677391,0.63238 z m 3.422136,-2.97726 -0.407232,-0.48532 1.479085,-1.2411 1.479107,-1.24111 -0.07808,0.89256 -0.07808,0.89257 -0.993767,0.83387 -0.993756,0.83386 z m 2.525158,-4.87564 -0.135749,-0.16178 0.161781,-0.13575 0.161769,-0.13575 0.135759,0.16179 0.135731,0.16177 -0.16176,0.13574 -0.16179,0.13575 z m 0.647099,-0.54298 -0.135749,-0.16178 0.16178,-0.13575 0.161779,-0.13575 0.13574,0.16178 0.135751,0.16178 -0.16178,0.13574 -0.16177,0.13575 z m 1.085963,1.2942 -0.135741,-0.16177 0.161781,-0.13576 0.161769,-0.13574 0.13575,0.16178 0.135741,0.16177 -0.161769,0.13574 -0.161781,0.13575 z m -0.115304,-2.10868 -0.13576,-0.16178 0.16178,-0.13574 0.161779,-0.13575 0.135749,0.16178 0.135741,0.16178 -0.161779,0.13574 -0.16177,0.13574 z m -7.956367,7.94809 0.33311,0.0292 0.06149,-0.73689 0.06149,-0.73689 -0.394794,0.70773 -0.394805,0.70773 z m 22.386093,26.9798 0.07927,0.10384 0.155732,-0.47145 0.155738,-0.47148 -0.327939,-0.38148 -0.327938,-0.38148 0.0936,0.7485 0.09361,0.7485 0.07927,0.10384 z m -1.122752,-1.98508 0.13575,0.16178 0.161761,-0.13576 0.161788,-0.13573 -0.135749,-0.16178 -0.135742,-0.16177 -0.16178,0.13575 -0.161781,0.13575 z m -13.030977,-17.67893 0.359519,0.0314 0.282059,-0.52626 0.282072,-0.52628 -0.641557,0.49485 -0.641535,0.49485 0.359508,0.0314 z m 0.141237,-1.18683 0.396701,0.0347 0.03471,-0.3967 0.03471,-0.39669 -0.431402,0.36198 -0.431392,0.36199 z m -7.431294,-9.29433 0.135751,0.16177 0.161771,-0.13575 0.161779,-0.13574 -0.135751,-0.16178 -0.135739,-0.16178 -0.161779,0.13575 -0.161781,0.13575 z m -0.230389,-1.08208 0.450743,0.27691 0.491675,-0.19433 0.491682,-0.19432 -0.265081,-0.3159 -0.265063,-0.31589 -0.677344,0.23331 -0.677334,0.2333 z m 9.417065,10.71616 0.760897,-0.0788 0.624648,-0.515 0.624628,-0.515 -0.232356,-0.003 -0.232373,-0.003 -1.152834,0.59736 -1.152833,0.59735 0.760904,-0.0788 z m 10.684238,13.39006 0.13575,0.16178 0.16178,-0.13575 0.161759,-0.13574 -0.135731,-0.16177 -0.13575,-0.16178 -0.16177,0.13575 -0.161779,0.13574 z m 2.714916,3.2355 0.13574,0.16178 0.16178,-0.13575 0.161769,-0.13574 -0.135741,-0.16177 -0.13575,-0.16178 -0.16177,0.13575 -0.161767,0.13573 z m 5.429821,6.47102 0.135751,0.16177 1.132427,-0.95021 1.13242,-0.95023 -0.269778,-0.32152 -0.269787,-0.32152 -0.614121,0.74657 -0.614125,0.74654 -0.384266,0.36343 -0.384244,0.36342 0.135741,0.16176 z m -16.508898,-20.33162 0.135741,0.16177 0.161781,-0.13575 0.161779,-0.13574 -0.13575,-0.16178 -0.135751,-0.16177 -0.161759,0.13574 -0.16179,0.13575 z m 1.764685,2.10307 0.361987,0.4314 0.03471,-0.39669 0.03471,-0.3967 -0.396689,-0.0347 -0.396699,-0.0347 z m 1.224596,1.40761 0.494853,0.64155 0.03141,-0.35952 0.03141,-0.35951 -0.526264,-0.28207 -0.526266,-0.28206 0.494845,0.64154 z m 2.269243,2.5527 1.625881,1.94387 -0.607501,-0.9966 -0.607513,-0.9966 -1.018139,-0.94748 -1.018133,-0.94746 1.625882,1.94386 z m 1.935922,2.51076 0.361989,0.43139 0.03471,-0.39669 0.03471,-0.39669 -0.396709,-0.0347 -0.396679,-0.0347 z m 2.58205,3.02535 0.494855,0.64155 0.0315,-0.35949 0.03141,-0.35952 -0.526274,-0.28207 -0.526266,-0.28206 0.494845,0.64154 z m -14.642993,-19.37024 0.239445,0.28537 0.389357,-0.0567 0.389338,-0.0567 -0.482469,-0.67159 -0.482468,-0.67159 -0.146336,0.44292 -0.146336,0.44292 z m 8.677963,10.25548 1.045166,1.15908 -0.71186,-1.33244 -0.71185,-1.33243 4.590067,5.38374 4.590069,5.38373 3.270126,-2.74397 3.270111,-2.74395 -0.522933,-0.28996 -0.522964,-0.28996 0.286935,-0.88233 0.286944,-0.88233 0.199825,0.58014 0.199835,0.58015 0.688385,-0.23713 0.688402,-0.23711 -0.43347,-0.14325 -0.433489,-0.14315 0.158309,-0.47915 0.158308,-0.47915 0.3058,0.36445 0.30582,0.36445 0.525536,-0.85213 0.525522,-0.85212 0.756564,-0.74109 0.756551,-0.74109 0.226724,-0.26139 0.226721,-0.26139 -0.421385,-0.1392 -0.421387,-0.13922 0.849352,-0.63346 0.84936,-0.63345 0.63598,0.40308 0.636,0.40307 0.31656,-0.57094 0.31657,-0.57095 -0.42206,-0.13943 -0.42205,-0.13944 0.80617,-0.67645 0.80616,-0.67646 -0.3498,-0.84907 -0.34981,-0.84906 0.66344,-0.22854 0.66347,-0.22853 -0.8224,-0.14958 -0.82237,-0.14958 0.5976,-0.51816 0.5976,-0.51815 -0.84294,0.14532 -0.84294,0.14532 -0.27403,-0.32659 -0.27403,-0.32656 0.56727,-0.0826 0.56726,-0.0826 -0.54793,-0.18103 -0.54792,-0.18101 0.0792,-0.90522 0.0792,-0.90522 -0.64693,-0.3587 -0.64694,-0.35869 0.65077,-0.0947 0.65076,-0.0947 -0.53836,-0.17786 -0.53834,-0.17787 0.0419,-0.78571 0.0419,-0.78571 0.7021,-0.33256 0.70211,-0.33256 -0.30315,-0.36128 -0.30316,-0.36129 -0.48532,0.40723 -0.48532,0.40724 -0.24494,-0.2919 -0.24493,-0.29189 -1.378224,0.49301 -1.378231,0.49302 -3.383646,2.19951 -3.383638,2.19952 -0.09194,1.05066 -0.09194,1.05066 -0.413428,0.32863 -0.413449,0.32864 0.23028,-1.27719 0.230283,-1.2772 -0.728162,0.611 -0.728161,0.611 0.04032,0.93105 0.04032,0.93105 -0.726012,-0.49351 -0.726042,-0.49352 -3.945048,3.47965 -3.945025,3.47962 z m 13.779398,2.05232 -0.135739,-0.16178 0.161769,-0.13574 0.161778,-0.13574 0.135742,0.16177 0.135749,0.16178 -0.16177,0.13575 -0.161769,0.13574 z m 1.294208,-1.08596 -0.13574,-0.16178 0.161769,-0.13574 0.161769,-0.13575 0.135751,0.16177 0.135749,0.16179 -0.161778,0.13573 -0.161771,0.13576 z m 1.294196,-1.08596 -0.135739,-0.16178 0.161769,-0.13574 0.161778,-0.13574 0.135742,0.16177 0.135749,0.16178 -0.161779,0.13574 -0.16176,0.13575 z m -4.063129,-10.09892 -0.271491,-0.32355 0.342653,-0.28752 0.34264,-0.28751 0.07153,0.49134 0.07154,0.49134 -0.142688,0.11972 -0.142687,0.11973 z m 2.41309,2.79957 -0.301836,-0.43594 -0.327129,-0.69037 -0.327137,-0.69037 0.247885,-0.20801 0.247886,-0.208 1.032313,0.49249 1.032323,0.49249 -0.152431,0.46136 -0.152431,0.46137 0.438879,0.145 0.438868,0.145 -0.523513,0.43928 -0.523503,0.43928 -0.07154,-0.49135 -0.07153,-0.49133 -0.34263,0.28751 -0.342653,0.28752 z m -1.35875,-2.85723 -0.135741,-0.16177 0.161779,-0.13574 0.161771,-0.13576 0.135751,0.16178 0.135749,0.16178 -0.16178,0.13575 -0.16178,0.13574 z m 3.665128,4.36793 -0.271481,-0.32354 0.342642,-0.28752 0.342641,-0.28751 0.07153,0.49133 0.07154,0.49135 -0.142678,0.11972 -0.142688,0.11973 z m 0.950222,1.13243 -0.135751,-0.16177 0.16178,-0.13575 0.16178,-0.13575 0.135741,0.16178 0.135759,0.16178 -0.16179,0.13575 -0.16177,0.13574 z m 1.085962,1.2942 -0.13574,-0.16177 0.161769,-0.13575 0.161781,-0.13574 0.13575,0.16177 0.13574,0.16178 -0.161771,0.13575 -0.161779,0.13574 z m -2.696562,-6.00769 -1.079073,-1.29999 0.754729,0.6137 0.75474,0.61369 0.324692,0.68599 0.324711,0.68599 -1.079072,-1.29999 z m -14.725063,11.52875 0.361987,0.4314 0.03471,-0.3967 0.03471,-0.39668 -0.396689,-0.0347 -0.396699,-0.0347 z m -8.202186,-11.74624 1.63439,1.94779 0.679118,-0.83336 0.679127,-0.83335 0.267085,0.3183 0.267095,0.31831 0.144327,-0.79549 0.144326,-0.79547 1.149934,-0.96491 1.149924,-0.9649 0.821036,-0.004 0.821014,-0.004 -0.704653,-0.39069 -0.704622,-0.39069 0.787437,-0.14975 0.787434,-0.14974 1.786887,-1.81591 1.786885,-1.8159 0.303399,0.31708 0.303398,0.31708 -0.301948,-1.12503 -0.301946,-1.12504 0.04775,-0.72923 0.04776,-0.72924 0.346669,-0.29088 0.346657,-0.29089 0.316744,0.37748 0.316735,0.37748 0.03638,-0.41536 0.03638,-0.41535 0.853442,0.32586 0.853422,0.32585 0.931641,-1.51806 0.931641,-1.51805 -0.73239,0.77567 -0.73239,0.77567 -0.918071,-1.3332 -0.91808,-1.3332 -1.280981,1.00646 -1.280983,1.00648 -4.592191,3.72641 -4.592192,3.72642 -1.576234,1.57121 -1.576233,1.5712 z m 1.487405,1.11554 -0.13575,-0.16177 0.161779,-0.13575 0.161771,-0.13575 0.13575,0.16178 0.135751,0.16177 -0.161791,0.13575 -0.161769,0.13574 z m 9.475894,-12.36208 -0.13576,-0.16179 0.16178,-0.13574 0.16178,-0.13575 0.13575,0.16178 0.13574,0.16177 -0.16178,0.13575 -0.16177,0.13575 z m -8.017404,14.53831 0.396691,0.0347 0.03471,-0.39669 0.03471,-0.39669 -0.431402,0.36198 -0.431393,0.36199 z m 15.645449,18.20745 0.135749,0.16178 0.161769,-0.13574 0.16178,-0.13575 -0.135749,-0.16178 -0.13574,-0.16178 -0.16178,0.13575 -0.161781,0.13575 z m 3.096025,3.6897 0.182067,0.21699 0.660223,-0.47425 0.660239,-0.47423 -0.187927,-0.54563 -0.187955,-0.54565 -0.654339,0.80294 -0.654317,0.80292 z m -15.651859,-23.25275 2.268614,-0.91034 1.069831,-0.53198 1.069854,-0.532 -0.492955,-0.58748 -0.492954,-0.58748 -1.568392,1.24111 -1.568383,1.2411 -1.277136,0.78868 -1.277135,0.78868 z m 17.43899,22.09714 0.111197,0.13252 0.338519,-0.61052 0.338522,-0.61054 -0.283598,-0.0248 -0.283598,-0.0248 -0.166139,0.50283 -0.166136,0.50281 z m 1.471051,-1.69655 0.690365,-0.32714 0.442054,-0.62308 0.44205,-0.62308 -1.132427,0.95022 -1.132416,0.95021 z m -23.376422,-29.00882 0.13574,0.16178 0.161781,-0.13575 0.161779,-0.13575 -0.13575,-0.16177 -0.135749,-0.16178 -0.16177,0.13574 -0.161781,0.13575 z m -1.73484,-3.51761 0.158035,-0.004 1.301086,-0.74922 1.301087,-0.74921 -1.164424,0.22191 -1.164404,0.2219 -0.294731,0.53156 -0.294724,0.53157 z m 0.752973,1.03333 0.13575,0.16179 0.161769,-0.13575 0.16178,-0.13574 -0.13575,-0.16178 -0.13575,-0.16178 -0.16177,0.13575 -0.161769,0.13574 z m 26.208298,29.91967 0.17677,0.21065 6.19052,-5.59982 6.19053,-5.59982 0.73061,-0.77199 0.73061,-0.772 1.68309,-1.48265 1.68309,-1.48264 -0.46918,-0.15501 -0.46918,-0.15501 -2.03141,1.81329 -2.03141,1.81329 0.21662,0.25817 0.21663,0.25816 -0.34265,0.28751 -0.34264,0.28752 -0.0715,-0.49135 -0.0715,-0.49134 -0.50441,0.42326 -0.50443,0.42326 0.2715,0.32355 0.27149,0.32356 -1.15152,0.96623 -1.15152,0.96624 -0.0715,-0.49134 -0.0715,-0.49134 -1.36204,1.20815 -1.36205,1.20817 1.1779,-0.56748 1.1779,-0.56749 -1.85534,1.73138 -1.85534,1.73141 -1.08274,1.00942 -1.08273,1.00945 -1.50467,1.32796 -1.50467,1.32796 z m -25.893936,-35.13023 1.652098,-0.65943 1.773746,-1.5001 1.773756,-1.50009 -3.119052,1.86806 -3.119054,1.86808 -0.306583,0.29172 -0.306583,0.29171 z m 2.133102,4.3491 0.541366,-0.17617 0.267502,-0.50255 0.267504,-0.50257 -0.80888,0.67874 -0.808878,0.67872 z m 19.142251,23.08664 0.396689,0.0347 0.03471,-0.39669 0.03471,-0.39669 -0.431402,0.36198 -0.431406,0.36201 z m -12.302917,-15.59291 0.541376,-0.17617 0.267492,-0.50256 0.267512,-0.50256 -0.808878,0.67873 -0.808879,0.67873 z m 2.503752,-1.53451 0.801249,-0.44231 2.310968,-3.40516 2.310976,-3.40514 0.0891,-0.7783 0.0891,-0.77829 -0.538482,0.0784 -0.538494,0.0784 0.406619,0.48459 0.406628,0.4846 -1.370568,1.48775 -1.370571,1.48777 -0.27855,0.6994 -0.27856,0.69939 -1.001681,0.55931 -1.001692,0.55932 0.237829,0.69044 0.237818,0.69044 -0.656401,0.62586 -0.65642,0.62585 z m 0.65019,-1.6609 -0.396699,-0.0347 0.431402,-0.36198 0.431403,-0.36199 -0.03471,0.39669 -0.03471,0.3967 z m -1.395244,0.52749 0.13574,0.16177 0.16178,-0.13574 0.16178,-0.13575 -0.135751,-0.16178 -0.13573,-0.16177 -0.161791,0.13575 -0.161769,0.13574 z m 16.341532,18.81798 0.13575,0.16179 0.16178,-0.13575 0.16177,-0.13575 -0.13575,-0.16177 -0.13575,-0.16178 -0.16176,0.13575 -0.16178,0.13573 z m 2.28784,2.5486 0.3595,0.0314 0.28208,-0.52627 0.28206,-0.52627 -0.64153,0.49485 -0.64161,0.49477 0.35949,0.0315 z m -1.70708,-4.04673 0.3967,0.0347 0.0347,-0.39668 0.0347,-0.3967 -0.4314,0.36198 -0.4314,0.362 z m -22.753196,-27.77329 0.3967,0.0347 0.03471,-0.39669 0.03471,-0.39669 -0.431402,0.36198 -0.431392,0.36199 z m 25.917416,30.62587 0.5335,-0.17305 0.44721,-0.62944 0.44721,-0.62942 -0.98068,0.80252 -0.98075,0.80244 z m -19.77416,-23.74268 0.135751,0.16177 0.161779,-0.13574 0.161771,-0.13575 -0.135741,-0.16177 -0.135741,-0.16178 -0.16179,0.13575 -0.16176,0.13575 z m 4.208119,5.01503 0.27149,0.32356 0.142688,-0.11973 0.142678,-0.11973 -0.07153,-0.49134 -0.07153,-0.49133 -0.34264,0.28751 -0.342653,0.28751 z m -7.413946,-9.49269 0.13574,0.16178 0.16178,-0.13575 0.161769,-0.13574 -0.135741,-0.16177 -0.13575,-0.16178 -0.16177,0.13575 -0.161769,0.13574 z m 18.461397,22.00145 0.13574,0.16177 0.16178,-0.13574 0.16177,-0.13575 -0.13574,-0.16177 -0.13575,-0.16178 -0.16177,0.13575 -0.16177,0.13574 z m -20.581274,-25.18489 0.135751,0.16177 0.161769,-0.13574 0.161781,-0.13575 -0.135751,-0.16177 -0.13573,-0.16178 -0.161791,0.13575 -0.161769,0.13575 z m 5.701323,6.79456 0.135739,0.16178 0.161779,-0.13574 0.161781,-0.13575 -0.135749,-0.16178 -0.135751,-0.16178 -0.161771,0.13576 -0.161779,0.13574 z m 17.375441,20.70724 0.13574,0.16178 1.2942,-1.08596 1.2942,-1.08597 -0.90785,-1.03013 -0.90786,-1.03014 0.42163,1.16245 0.42163,1.16245 -0.94369,0.79185 -0.9437,0.79185 0.13576,0.16177 z m -2.66286,-3.83054 0.13575,0.16177 0.16177,-0.13574 0.16177,-0.13575 -0.13573,-0.16177 -0.13576,-0.16178 -0.16177,0.13574 -0.16178,0.13574 z m -19.290149,-24.5223 0.396691,0.0347 0.03471,-0.3967 0.03471,-0.39669 -0.431413,0.36199 -0.431392,0.36198 z m 20.823299,25.02774 0.0641,0.0841 1.61775,-1.35745 1.61776,-1.35746 -0.52949,-0.63102 -0.52949,-0.63102 0.28948,-0.8049 0.28949,-0.8049 -0.25528,0.1975 -0.25528,0.19749 -0.32014,0.75947 -0.32013,0.75946 -0.86646,1.75245 -0.86648,1.75245 0.064,0.0841 z m -21.143769,-26.5048 0.135741,0.16177 0.161779,-0.13575 0.16177,-0.13574 -0.135741,-0.16177 -0.135749,-0.16178 -0.16177,0.13574 -0.161779,0.13574 z m 1.291128,0.66259 0.39669,0.0347 0.03471,-0.39669 0.03471,-0.39669 -0.431402,0.36198 -0.431402,0.36199 z m 2.613859,2.67703 0.13575,0.16177 0.161779,-0.13574 0.16177,-0.13575 -0.135741,-0.16177 -0.13575,-0.16177 -0.16178,0.13574 -0.161759,0.13575 z m 25.300752,29.49516 0.13574,0.16177 0.16178,-0.13574 0.16177,-0.13575 -0.13574,-0.16178 -0.13574,-0.16176 -0.16178,0.13573 -0.16178,0.13576 z m -26.943963,-32.98667 0.396691,0.0347 0.03471,-0.39668 0.03471,-0.3967 -0.431402,0.36199 -0.431403,0.36199 z m 9.345136,10.69903 0.223813,0.26673 0.155734,-0.47146 0.155735,-0.47146 0.710767,0.84706 0.710776,0.84707 0.155734,-0.47146 0.155735,-0.47146 -0.5165,-0.61554 -0.51649,-0.61553 0.965006,-1.38179 0.965008,-1.3818 1.330569,-1.46765 1.33057,-1.46766 -0.234587,-0.27957 -0.234596,-0.27958 -0.566851,0.47435 -0.56686,0.47434 -2.223504,3.09962 -2.223484,3.09963 0.223822,0.26674 z m -9.259078,-13.00599 0.376429,0.4486 0.140711,-0.11807 0.14071,-0.11807 0.565168,-1.01194 0.565169,-1.01195 -0.231188,-0.27552 -0.231199,-0.27552 -0.851109,0.95693 -0.851111,0.95693 z m 1.208247,1.22091 0.396701,0.0347 0.03471,-0.39669 0.03471,-0.39669 -0.431393,0.36199 -0.431403,0.36199 z m 22.652158,27.21482 0.13576,0.16177 0.16176,-0.13574 0.16178,-0.13575 -0.13574,-0.16177 -0.13574,-0.16178 -0.16178,0.13575 -0.16178,0.13575 z m 0.81448,0.97065 0.13575,0.16178 0.16178,-0.13575 0.16178,-0.13575 -0.13575,-0.16178 -0.13575,-0.16177 -0.16178,0.13575 -0.16177,0.13574 z m 4.76845,5.46379 0.39669,0.0347 0.0347,-0.39668 0.0347,-0.3967 -0.4314,0.36199 -0.4314,0.36198 z m -26.707172,-32.26643 0.407241,0.48532 0.323539,-0.27148 0.32356,-0.2715 -0.407241,-0.48533 -0.40723,-0.48532 -0.323571,0.27149 -0.323538,0.27149 z m 1.593979,1.58848 0.3331,0.0292 0.0615,-0.7369 0.06149,-0.73689 -0.394796,0.70774 -0.394814,0.70773 z m 0.865465,1.34256 0.119712,0.14268 0.142687,-0.11971 0.142687,-0.11973 -0.08258,-0.56725 -0.08258,-0.56727 -0.179849,0.5443 -0.179848,0.5443 z m 23.603728,28.12981 0.13575,0.16177 0.16176,-0.13574 0.16178,-0.13574 -0.13574,-0.16177 -0.13575,-0.16178 -0.16177,0.13574 -0.16178,0.13575 z m -6.68315,-9.27884 0.13574,0.16177 0.16177,-0.13574 0.16178,-0.13574 -0.13575,-0.16178 -0.13575,-0.16178 -0.16177,0.13575 -0.16178,0.13574 z m -19.613711,-24.25081 0.396691,0.0347 0.03471,-0.3967 0.03471,-0.39669 -0.431402,0.36199 -0.431402,0.36198 z m 18.579791,22.36157 0.13575,0.16177 0.16177,-0.13575 0.16178,-0.13574 -0.13575,-0.16178 -0.13574,-0.16177 -0.16177,0.13574 -0.16179,0.13575 z m -15.846199,-19.54185 0.287518,0.34264 0.323549,-0.27148 0.32355,-0.2715 -0.119722,-0.14268 -0.119724,-0.14268 -0.491345,0.0715 -0.491344,0.0715 z m 1.082156,1.11169 0.3595,0.0315 0.28206,-0.52627 0.282081,-0.52627 -0.641547,0.49486 -0.641546,0.49484 0.35951,0.0315 z m 17.496883,19.02866 1.07294,-0.0937 0.66089,-0.81097 0.66089,-0.81097 0.21521,0.25648 0.21521,0.25647 3.15749,-2.47377 3.1575,-2.47377 -0.18637,-0.53793 -0.18637,-0.53794 0.44338,-0.22909 0.44339,-0.22909 -0.17668,-0.49248 -0.17668,-0.49246 -1.09748,1.19164 -1.09747,1.19165 -1.55048,0.452 -1.55048,0.452 0.39383,-0.352 0.39383,-0.35201 -0.95022,-1.13243 -0.95022,-1.13242 -0.51994,0.43628 -0.51994,0.43628 0.58944,0.32682 0.58944,0.32683 -0.62437,0.86219 -0.62437,0.86219 0.76924,0.30837 0.76923,0.30837 -0.3547,0.36316 -0.35469,0.36315 -1.84219,1.92543 -1.84218,1.92543 z m 7.30842,-5.71597 -0.13574,-0.16178 0.16177,-0.13574 0.16178,-0.13575 0.13575,0.16177 0.13574,0.16178 -0.16178,0.13575 -0.16177,0.13574 z m -0.38289,14.65661 0.13575,0.16177 0.16177,-0.13574 0.16177,-0.13575 -0.13574,-0.16177 -0.13574,-0.16177 -0.16178,0.13574 -0.16177,0.13575 z m -16.373166,-20.16985 0.2715,0.32355 0.32355,-0.27149 0.323549,-0.27149 -0.27149,-0.32355 -0.271491,-0.32355 -0.323549,0.27149 -0.32355,0.27149 z m -9.923698,-13.3598 0.3967,0.0347 0.03471,-0.39669 0.03471,-0.39669 -0.431402,0.36198 -0.431382,0.36199 z m 3.376291,4.24273 0.135741,0.16177 0.16178,-0.13575 0.16177,-0.13575 -0.135741,-0.16177 -0.135741,-0.16177 -0.161779,0.13574 -0.16178,0.13575 z m 8.823463,10.51539 0.36198,0.4314 0.0347,-0.39669 0.0347,-0.3967 -0.39669,-0.0347 -0.396699,-0.0347 z m 1.13121,1.34813 0.22625,0.26962 0.2388,-0.20822 0.23816,-0.20897 0.20206,-0.63569 0.20205,-0.63569 -0.63564,0.21895 -0.63564,0.21894 -0.0311,0.3557 -0.0311,0.35569 0.22626,0.26963 z m 10.28744,12.26009 1.06994,1.27511 0.32356,-0.27149 0.32355,-0.2715 -1.23773,-1.47507 -1.23773,-1.47507 -0.15573,0.47146 -0.15574,0.47146 z m -19.066875,-23.45567 0.298831,0.3006 0.93777,0.59152 0.937773,0.59151 -1.330112,-1.64071 -1.330186,-1.64063 0.09358,0.74851 0.09359,0.7485 0.298778,0.30068 z m 9.831035,11.79179 0.10159,0.12106 0.90849,-1.10701 0.90847,-1.107 1.13644,0.15678 1.13645,0.15679 0.2734,-0.22941 0.2734,-0.22941 -0.43629,-0.51994 -0.43628,-0.51995 0.56392,-0.19424 0.5639,-0.19424 -1.11534,-1.4781 -1.11534,-1.47809 -0.52562,1.21015 -0.52563,1.21015 -0.58332,1.22519 -0.58331,1.2252 -0.32328,0.81552 -0.32327,0.81552 z m 3.4124,-2.5041 -0.13574,-0.16177 0.16178,-0.13575 0.16177,-0.13574 0.13575,0.16177 0.13576,0.16178 -0.16178,0.13574 -0.16179,0.13575 z m 0.1562,-1.78512 -0.13575,-0.16177 0.16178,-0.13575 0.16175,-0.13574 0.13576,0.16177 0.13575,0.16178 -0.16178,0.13574 -0.16178,0.13574 z m -13.79764,-10.20108 0.880418,-0.26492 0.261763,-0.18086 0.261744,-0.18088 -0.271481,-0.32354 -0.27149,-0.32356 -0.870685,0.76936 -0.870663,0.76935 z m -3.155677,-3.43226 0.246937,0.2943 0.4574,-0.0666 0.457391,-0.0666 -0.06521,-0.44788 -0.0652,-0.44787 -0.639129,0.22016 -0.63914,0.22015 z m 11.326437,12.84125 0.13575,0.16178 0.16177,-0.13574 0.16179,-0.13575 -0.13576,-0.16178 -0.13574,-0.16178 -0.16178,0.13575 -0.16178,0.13575 z m 12.76008,15.20688 0.13575,0.16178 0.16177,-0.13574 0.16179,-0.13575 -0.13576,-0.16179 -0.13574,-0.16177 -0.16178,0.13575 -0.16177,0.13575 z m 3.52939,4.20616 0.13575,0.16178 0.16177,-0.13575 0.16178,-0.13575 -0.13575,-0.16178 -0.13574,-0.16177 -0.16178,0.13575 -0.16178,0.13574 z m -27.31649,-33.86869 0.13574,0.16177 0.16178,-0.13574 0.16178,-0.13575 -0.13574,-0.16177 -0.13576,-0.16179 -0.161771,0.13576 -0.161779,0.13574 z m 24.8466,28.94388 0.0793,0.10385 0.15574,-0.47146 0.15573,-0.47146 -0.32794,-0.38149 -0.32793,-0.38149 0.0936,0.74851 0.0936,0.74849 0.0793,0.10384 z m -21.787708,-27.92677 1.026249,-0.41969 1.267331,-1.00846 1.267342,-1.00846 -0.474178,-0.29132 -0.474167,-0.29131 -0.350357,0.34906 -0.350348,0.34907 -1.46908,1.37036 -1.46908,1.37037 z m 0.303123,1.67541 0.13574,0.16177 0.161781,-0.13575 0.161779,-0.13574 -0.13575,-0.16177 -0.135751,-0.16178 -0.161759,0.13575 -0.161791,0.13575 z m 25.248675,30.0902 0.13575,0.16178 0.16178,-0.13575 0.16178,-0.13574 -0.13575,-0.16178 -0.13575,-0.16177 -0.16177,0.13574 -0.16178,0.13575 z m -24.110644,-29.39104 0.13574,0.16178 0.16177,-0.13575 0.161779,-0.13574 -0.13575,-0.16178 -0.13574,-0.16178 -0.161779,0.13575 -0.161779,0.13574 z m 1.628944,1.9413 0.13575,0.16178 0.16176,-0.13575 0.161779,-0.13574 -0.135751,-0.16178 -0.135739,-0.16177 -0.161779,0.13574 -0.16177,0.13574 z m -0.658306,-2.75577 0.13575,0.16177 0.161771,-0.13575 0.161779,-0.13574 -0.135741,-0.16177 -0.135749,-0.16178 -0.161779,0.13574 -0.161781,0.13575 z m 1.357463,1.61775 0.135731,0.16177 0.161791,-0.13575 0.161769,-0.13574 -0.135741,-0.16178 -0.13575,-0.16177 -0.16177,0.13575 -0.16178,0.13575 z m 22.117893,25.70199 0.21079,0.25121 1.19064,-1.20938 1.19064,-1.20939 -0.10723,-0.12779 -0.10723,-0.12779 -1.2942,1.08596 -1.29421,1.08597 z m 2.63987,3.14607 0.13574,0.16177 0.16177,-0.13574 0.16178,-0.13574 -0.13575,-0.16178 -0.13574,-0.16177 -0.16177,0.13574 -0.16178,0.13575 z m -24.534428,-33.18149 1.929499,-1.31446 0.301817,-0.45789 0.301807,-0.4579 -0.303485,-0.10109 -0.303486,-0.1011 -1.92783,1.87345 -1.92783,1.87346 z m 0.288013,3.62867 0.361988,0.4314 0.03471,-0.39669 0.03471,-0.3967 -0.39671,-0.0347 -0.396681,-0.0347 z m 12.624345,15.04511 0.13574,0.16177 0.16178,-0.13575 0.16178,-0.13574 -0.13575,-0.16178 -0.13575,-0.16178 -0.16177,0.13575 -0.16178,0.13575 z m -0.28731,-3.06708 3.02704,3.80065 0.70488,-0.52254 0.70489,-0.52254 0.39141,-0.1906 0.39142,-0.19061 0.53065,-0.37634 0.53065,-0.37634 0.18581,0.88594 0.18581,0.88595 0.81399,-0.38555 0.81397,-0.38555 0.37523,0.6891 0.37522,0.6891 -0.72192,0.5649 -0.72191,0.56491 0.38851,0.12835 0.3885,0.12836 2.75964,-2.42188 2.75965,-2.42188 -2.10231,1.569 -2.10231,1.56901 -0.21415,-0.62173 -0.21417,-0.62175 1.23265,-1.03431 1.23262,-1.03429 0.50256,0.2675 0.50257,0.26751 -0.62765,-0.85175 -0.62764,-0.85174 0.48125,0.2544 0.48125,0.25441 0.29716,-0.53594 0.29715,-0.53595 1.16312,-0.14538 1.16311,-0.14538 2.01433,-1.54192 2.01431,-1.54193 -0.76721,-1.12025 -0.76723,-1.12024 -0.34406,0.28869 -0.34405,0.28869 -0.70778,-0.84349 -0.70777,-0.8435 0.57481,-0.19799 0.57483,-0.198 -0.73986,-0.60294 -0.73986,-0.60294 0.16154,-0.88738 0.16155,-0.88738 0.46676,0.96081 0.46677,0.96081 1.33241,-0.5823 1.33241,-0.58229 0.86579,0.92758 0.8658,0.92758 -0.76557,-0.59816 -0.76557,-0.59817 -0.70526,0.59224 -0.70528,0.59222 1.20793,1.60495 1.20792,1.60495 -0.13565,-0.85543 -0.13563,-0.85543 -0.46773,-0.15452 -0.46772,-0.15453 0.47413,-0.39784 0.47414,-0.39785 0.33941,0.68008 0.33942,0.68007 0.55614,0.16141 0.55614,0.16143 3.71545,-2.80003 3.71544,-2.80002 3.33865,-2.42772 3.33865,-2.42772 -0.34357,-0.40945 -0.34356,-0.40944 0.81796,-0.004 0.81796,-0.004 2.24809,-1.59827 2.2481,-1.598258 -3.9738,-4.735785 -3.97379,-4.73578 -0.19657,-0.248572 -0.19657,-0.248582 -3.01917,2.165637 -3.01916,2.165643 -3.08342,2.403679 -3.08343,2.403679 0.595,0.70876 0.59499,0.708749 0.49135,-0.0715 0.49133,-0.0715 0.66271,0.78979 0.66271,0.78978 -0.3236,0.27154 -0.32356,0.27149 0.52696,0.628 0.52697,0.62802 -0.1486,0.44977 -0.1486,0.44977 -0.99724,0.48447 -0.99725,0.48445 -0.49752,-0.59292 -0.49754,-0.59294 -0.49133,0.0715 -0.49135,0.0715 -0.6627,-0.78978 -0.6627,-0.78978 0.32354,-0.27149 0.32355,-0.27149 -0.6437,-0.76715 -0.64371,-0.76714 -3.00768,2.16507 -3.00768,2.16507 -5.6018,4.16591 -5.6018,4.16592 -2.27703,1.90543 -2.27704,1.90544 3.02703,3.80065 z m 10.61309,-3.80537 -0.58303,-0.47566 0.3473,-0.29142 0.34727,-0.2914 0.2715,0.32356 0.27149,0.32355 0.48532,-0.40724 0.48533,-0.40724 0.29038,0.34606 0.29037,0.34606 -0.81144,0.50468 -0.81144,0.50469 z m -2.44688,-3.46041 -0.60587,-0.73217 0.5324,0.15175 0.53239,0.15173 0.95502,-0.17603 0.95501,-0.17603 -0.88154,0.75641 -0.88153,0.7564 z m 19.20522,-11.9275 -2.2656,-2.700033 0.2986,-0.250555 0.2986,-0.250557 1.80146,2.485755 1.80145,2.48574 0.98731,0.22549 0.98731,0.22549 3.27513,-2.69934 3.27514,-2.699349 0.008,0.698495 0.008,0.698494 -3.11543,2.26916 -3.11544,2.26914 -0.98915,-0.0289 -0.98915,-0.0289 z m 1.53332,-6.714746 -0.13574,-0.161773 0.16177,-0.135746 0.16178,-0.135746 0.13574,0.161773 0.13575,0.161773 -0.16178,0.135746 -0.16178,0.135746 z m 3.77851,-2.067832 -0.13574,-0.161773 0.16177,-0.135744 0.16178,-0.135747 0.13574,0.161774 0.13575,0.161773 -0.16178,0.135746 -0.16177,0.135745 z m -19.78116,41.567868 0.52306,-0.20672 0.0315,-0.35949 0.0314,-0.35951 -0.35711,-0.0313 -0.35711,-0.0312 -0.19735,0.59747 -0.19745,0.59746 z m -28.100361,-34.4146 0.35951,0.0315 0.28206,-0.526265 0.282071,-0.526268 -0.641546,0.494853 -0.641536,0.49485 z m 2.443417,2.91195 0.359509,0.0315 0.28207,-0.52626 0.282072,-0.52627 -0.641557,0.49485 -0.641536,0.49485 z m 2.191768,2.79 0.27149,0.32356 0.142677,-0.11972 0.142687,-0.11973 -0.07152,-0.49134 -0.07153,-0.49134 -0.342652,0.28752 -0.342641,0.28751 z m 16.069086,19.04662 0.67872,0.80888 -0.17617,-0.54138 -0.17615,-0.54138 -0.50257,-0.2675 -0.50256,-0.2675 z m 6.60043,7.96987 0.13575,0.16177 0.16177,-0.13574 0.16177,-0.13575 -0.13574,-0.16177 -0.13575,-0.16178 -0.16177,0.13574 -0.16178,0.13574 z m -20.39347,-25.61816 0.36199,0.4314 0.0347,-0.3967 0.0347,-0.39668 -0.39669,-0.0347 -0.39671,-0.0347 z m 0.95022,1.13242 0.13576,0.16179 0.16176,-0.13575 0.16178,-0.13574 -0.13575,-0.16178 -0.13574,-0.16178 -0.16178,0.13575 -0.16177,0.13574 z m 1.08886,1.24584 0.49484,0.64154 0.0314,-0.35951 0.0315,-0.35949 -0.52628,-0.28207 -0.52626,-0.28207 0.49485,0.64154 z m 1.5414,1.78502 0.67874,0.80888 -0.17618,-0.54137 -0.17617,-0.54138 -0.50255,-0.26749 -0.50257,-0.26751 z m 14.58961,17.31301 0.3595,0.0314 0.28206,-0.52626 0.28208,-0.52626 -0.64161,0.49477 -0.64155,0.49484 z m -22.063898,-27.11339 0.307431,0.0269 0.06161,-0.70413 0.06161,-0.70413 -0.334335,0.28054 -0.334334,0.28054 -0.03471,0.3967 -0.03471,0.39669 z m 0.875826,0.72619 0.135749,0.16178 0.161779,-0.13574 0.161759,-0.13575 -0.135739,-0.16178 -0.135751,-0.16177 -0.161769,0.13574 -0.161769,0.13574 z m 25.795862,18.69579 0.39669,0.0347 0.0347,-0.39669 0.0347,-0.3967 -0.4314,0.36199 -0.43139,0.36199 z m 1.14111,-1.0494 0.13574,0.16177 0.16178,-0.13574 0.16178,-0.13575 -0.13575,-0.16177 -0.13575,-0.16178 -0.16177,0.13574 -0.16178,0.13575 z m 0.91859,-0.21944 0.13574,0.16177 0.16178,-0.13574 0.16177,-0.13575 -0.13574,-0.16177 -0.13575,-0.16177 -0.16178,0.13574 -0.16176,0.13575 z m 1.61775,-1.35745 0.13574,0.16177 0.16177,-0.13575 0.16178,-0.13574 -0.13574,-0.16177 -0.13575,-0.16178 -0.16177,0.13575 -0.16178,0.13574 z m 0.97065,-0.81448 0.13574,0.16178 0.16178,-0.13575 0.16177,-0.13575 -0.13574,-0.16177 -0.13574,-0.16177 -0.16178,0.13574 -0.16177,0.13575 z m 1.4473,-1.12253 0.3967,0.0347 0.0347,-0.39669 0.0347,-0.3967 -0.4314,0.36199 -0.4314,0.36198 z m 0.93347,-0.81773 0.3595,0.0315 0.28206,-0.52627 0.28208,-0.52627 -0.64155,0.49485 -0.64154,0.49485 z m 1.33139,-1.08271 0.3967,0.0347 0.0347,-0.39669 0.0347,-0.3967 -0.43141,0.36199 -0.4314,0.36199 z m 2.03946,-1.12867 1.16104,-0.75185 0.94204,-1.01284 0.94204,-1.01284 -2.10307,1.76469 -2.10309,1.76469 z m -2.96903,-10.51987 1.05062,0.84142 0.42761,0.50959 0.4276,0.50959 0.0557,-0.63655 0.0557,-0.63653 -1.20594,-0.98968 -1.20593,-0.98968 -0.32799,0.27522 -0.32799,0.27521 z m 7.27671,7.45178 0.9966,-0.60752 0.94747,-1.01813 0.94747,-1.01814 -1.94387,1.62588 -1.94388,1.62589 0.99661,-0.60751 z m -8.87312,-9.76498 0.37519,0.44714 0.49134,-0.0715 0.49134,-0.0715 -0.71077,-0.84707 -0.71077,-0.847061 -0.15574,0.471457 -0.15573,0.471464 z m -2.67138,-3.840701 0.39872,0.475169 0.3278,-0.591196 0.32779,-0.591206 -0.42206,-0.139438 -0.42205,-0.139436 -0.30445,0.255468 -0.30446,0.255468 z m 16.97537,9.539141 0.3595,0.0315 0.28207,-0.52628 0.28207,-0.52626 -0.64154,0.49485 -0.64155,0.49485 z m -4.73724,-17.459439 1.31981,-0.891174 1.10682,-1.14501 1.10682,-1.14501 -2.42663,2.036184 -2.42663,2.036183 z m 10.18554,13.439129 0.3595,0.0315 0.28207,-0.52626 0.28207,-0.52627 -0.64155,0.49485 -0.64154,0.49484 z m -4.84163,-17.748119 1.82918,-1.105481 1.28398,-1.098145 1.28399,-1.098144 -1.67337,0.962641 -1.67336,0.962642 -1.43984,1.240938 -1.43985,1.240938 z m 15.47718,9.57436 0.23006,0.274168 0.52645,-0.742306 0.52646,-0.742307 -0.63225,0.09204 -0.63226,0.09204 -0.12425,0.376101 -0.12426,0.376103 z m -55.12658,15.124009 -0.13575,-0.16178 0.16177,-0.13575 0.16177,-0.13574 0.13575,0.16178 0.13575,0.16178 -0.16178,0.13574 -0.16177,0.13574 z m 4.70826,1.01151 -0.13574,-0.16177 0.16177,-0.13575 0.16178,-0.13574 0.13574,0.16177 0.13575,0.16178 -0.16177,0.13575 -0.16178,0.13574 z m 1.29421,-1.08596 -0.13575,-0.16178 0.16178,-0.13574 0.16176,-0.13575 0.13576,0.16178 0.13574,0.16178 -0.16177,0.13574 -0.16177,0.13575 z"
         id="path195"
         inkscape:connector-curvature="0" />
    </g>
  </g>
  <path
     inkscape:label="#path274"
     inkscape:connector-curvature="0"
     id="base1"
     d="m 247.81705,164.86408 -3.57121,0.13993 -0.0169,-5.82366 -0.0169,-5.82366 1.23349,1.66398 1.23348,1.66398 2.97756,-2.50544 2.97755,-2.50545 -2.86952,-1.81685 -2.86953,-1.81686 v -1.30834 -1.30835 h -1.4 -1.4 v -0.93333 -0.93333 h 1.0456 1.04559 l -0.67291,-11.66667 -0.6729,-11.66667 1.26064,0.009 1.26065,0.009 0.18772,7.67881 0.18771,7.67881 0.53007,2.11195 0.53006,2.11194 h 1.66222 1.66222 l 1.12,1.12 1.12,1.12 v 1.68 1.68 h -2.77078 -2.77071 l 0.53518,1.39464 0.53517,1.39464 0.97974,-0.60551 0.97975,-0.60552 -0.63702,1.03072 -0.63702,1.03071 1.74983,0.93648 1.74982,0.93647 1.07282,-1.07282 1.07282,-1.07281 1.37382,1.8165 1.37381,1.8165 0.0297,0.98358 0.0297,0.98358 -3.20266,3.10413 -3.20265,3.10413 -2.61293,-0.49949 -2.61293,-0.4995 1.44009,1.07845 1.44009,1.07845 0.55546,1.48373 0.55546,1.48373 z m -1.38871,-1.70739 h 0.46666 v -0.46666 -0.46667 h -0.46666 -0.46667 v 0.46667 0.46666 z m 4.37735,-5.6 h 0.46667 l 1.68931,-1.86666 1.68931,-1.86667 h -0.46667 -0.46666 l -1.68931,1.86667 -1.68931,1.86666 z m 0.44487,-14.31111 0.62222,-0.62222 -0.62222,-0.62222 -0.62222,-0.62222 v 1.24444 1.24445 z m 12.67778,21.38404 -3.96667,0.63952 v -5.19131 -5.19131 l 2.1,-0.40447 2.1,-0.40448 -2.1,-0.12711 -2.1,-0.1271 v -1.4 -1.4 h 1.86667 1.86666 v 0.82448 0.82448 l 1.86796,0.48848 1.86795,0.48848 -0.57334,-0.92769 -0.57334,-0.92769 2.67205,0.1803 2.67206,0.18029 0.46666,-0.21925 0.46667,-0.21925 2.33333,-0.22462 2.33334,-0.22462 4.2,-0.59513 4.2,-0.59513 -2.65498,1.04732 -2.65498,1.04731 0.4264,2.23058 0.42641,2.23058 -2.11655,2.46318 -2.11655,2.46319 -2.93461,-0.58693 -2.9346,-0.58692 0.53481,0.86536 0.53482,0.86535 4.17825,0.62657 4.17824,0.62656 v 0.89452 0.89452 l -5.36666,-0.68003 -5.36667,-0.68002 -0.93333,0.0962 -0.93334,0.0962 z m 2.1,-2.40626 h 0.46666 v -0.46667 -0.46666 h -0.46666 -0.46667 v 0.46666 0.46667 z m -1.86667,-3.73333 h 0.46667 v -0.46667 -0.46667 h -0.46667 -0.46667 v 0.46667 0.46667 z m 4.69664,0 h 3.29665 l 3.23669,-1.35238 3.23669,-1.35237 v -0.86046 -0.86046 l -4.43334,0.79961 -4.43333,0.79962 -2.1,0.49767 -2.1,0.49766 v 0.91556 0.91555 z m 16.07003,5.70297 -2.1,1.10198 1.77798,-2.00248 1.77799,-2.00247 h 0.32201 0.32202 v 0.90049 0.9005 z m 16.65534,0.72697 -12.22201,-0.10339 5.6,-1.2756 5.6,-1.2756 4.77485,-0.99327 4.77485,-0.99327 1.56983,-1.14789 1.56983,-1.14789 -4.94468,-5.27424 -4.94468,-5.27424 -2.33334,-3.26478 -2.33333,-3.26478 -2.41615,-1.43801 -2.41614,-1.43802 -1.08386,1.08385 -1.08385,1.08386 -0.12286,-4.62 -0.12287,-4.62 -0.6876,3.26666 -0.68761,3.26667 -0.12286,-4.02175 -0.12287,-4.02175 0.86885,0.53697 0.86884,0.53698 0.63042,-1.02004 0.63042,-1.02004 -1.96593,-1.83155 -1.96593,-1.83154 v 5.01403 5.01403 l 1.0404,5.18055 1.04041,5.18054 -0.82254,1.4698 -0.82254,1.4698 -2.31787,-1.15138 -2.31786,-1.15138 -0.29879,-2.08081 -0.2988,-2.08081 1.46546,-0.56235 1.46547,-0.56235 v -1.30014 -1.30014 l -1.16667,0.23333 -1.16667,0.23333 0.15939,-1.86666 0.15939,-1.86667 -2.06111,2.56667 -2.06112,2.56666 -1.36494,0.006 -1.36494,0.006 -2.51609,1.31266 -2.51608,1.31265 -0.31326,-0.93976 -0.31325,-0.93976 -4.16258,-0.76118 -4.16258,-0.76118 -0.87946,0.54353 -0.87946,0.54354 1.80471,0.70673 1.80472,0.70666 -2.00015,0.0656 -2.00014,0.0656 -0.49359,-1.28627 -0.49359,-1.28627 0.91207,-0.91206 0.91206,-0.91206 -0.57794,-2.30271 -0.57794,-2.3027 -2.04039,0.0677 -2.04039,0.0677 -0.3063,-2.68036 -0.3063,-2.68037 1.05669,-1.05297 1.05669,-1.05296 1.63652,2.16571 1.63652,2.16571 1.09308,-2.39905 1.09308,-2.39904 h 2.71115 2.71115 l 0.50836,-1.94396 0.50836,-1.94397 3.1005,0.20654 3.1005,0.20654 1.81069,-0.76383 1.81069,-0.76382 0.36655,1.09965 0.36655,1.09964 2.40131,-0.60269 2.40131,-0.60269 1.25478,1.71602 1.25478,1.71601 v -2.04505 -2.04506 h 1.46136 1.46136 l 1.80531,0.96617 1.8053,0.96618 v -0.96618 -0.96617 h 1.4901 1.49009 l -0.32342,8.86739 -0.32343,8.86739 0.66976,-7.2e-4 0.66977,-7.2e-4 3.96368,5.36666 3.96368,5.36667 3.41156,3.81382 3.41156,3.81383 1.64467,2.51009 1.64468,2.51009 -1.66767,1.84275 -1.66767,1.84275 z m 10.06782,-2.69661 h 0.46667 l 0.57683,-0.93333 0.57683,-0.93334 h -0.46666 -0.46667 l -0.57683,0.93334 -0.57683,0.93333 z m -24.00094,-18.04444 0.62222,-0.62222 -0.62222,-0.62223 -0.62222,-0.62222 v 1.24445 1.24444 z m -9.48889,-6.05972 1.86667,-0.4008 1.11084,-1.3829 1.11085,-1.3829 -1.10203,-1.76462 -1.10202,-1.76462 h -1.7726 -1.77259 l -1.26956,-1.63333 -1.26956,-1.63333 -1.34861,1.74144 -1.34862,1.74145 -3.31805,-0.38737 -3.31805,-0.38736 v 3.02206 3.02207 l 4.43333,0.58317 4.43333,0.58317 1.4,0.22234 1.4,0.22234 z m 15.03055,-2.28195 0.56389,-0.56389 -0.4902,-1.225 -0.49021,-1.225 -0.0737,1.78889 -0.0737,1.78889 z m -33.54166,-4.725 0.62222,-0.62222 -0.62222,-0.62222 -0.62222,-0.62222 v 1.24444 1.24444 z m 18.86349,-0.62222 h 0.81906 l 1.16189,-1.4 1.1619,-1.4 h -1.98095 -1.98095 v 1.4 1.4 z m -10.73333,-0.93333 h 3.38095 v -1.4 -1.4 h -2.21905 -2.21905 l -1.1619,1.4 -1.1619,1.4 z m 16.81555,-1.86667 h 0.36793 l -0.1346,-2.33267 -0.1346,-2.33268 -3.96666,-6.6e-4 -3.96667,-6.6e-4 v 0.83348 0.83348 l 1.47633,0.56652 1.47634,0.56652 h 2.257 2.257 v 0.93334 0.93333 z m 1.9654,-0.93333 h 0.46667 v -0.46667 -0.46667 h -0.46667 -0.46667 v 0.46667 0.46667 z m 8.49722,-1.18611 0.56389,-0.56389 -0.49021,-1.225 -0.4902,-1.225 -0.0737,1.78889 -0.0737,1.78888 z M 273.495,124.89003 h 0.46667 v -0.46667 -0.46666 h -0.46667 -0.46666 v 0.46666 0.46667 z m 19.6,0 h 0.46667 v -0.46667 -0.46666 h -0.46667 -0.46667 v 0.46666 0.46667 z m -0.46667,-1.86667 h 1.24445 l -0.62222,-0.62222 -0.62223,-0.62222 -0.62222,0.62222 -0.62222,0.62222 z m 2.86136,36.4 H 294.495 l -0.11794,-0.7 -0.11794,-0.7 -0.11539,-2.33333 -0.1154,-2.33334 -3.03333,-0.29246 -3.03333,-0.29247 v -1.00051 -1.0005 l 2.56666,-2.23356 2.56667,-2.23355 1.12728,-0.9068 1.12727,-0.90681 h 1.53925 1.53925 l -0.4967,1.29436 -0.49669,1.29436 1.79684,-0.46988 1.79683,-0.46989 v 1.92044 1.92044 l -0.96197,0.59453 -0.96197,0.59454 0.5841,3.11352 0.5841,3.11352 -1.8941,1.0137 -1.8941,1.01369 z m 1.33864,-2.8 h 0.46667 v -0.46667 -0.46666 h -0.46667 -0.46666 v 0.46666 0.46667 z m 0,-2.8 h 0.46667 v -0.46667 -0.46666 h -0.46667 -0.46666 v 0.46666 0.46667 z m -2.8,-2.8 h 0.46667 v -0.46667 -0.46666 h -0.46667 -0.46666 v 0.46666 0.46667 z m -41.06666,-1.86667 H 252.495 v -0.46666 -0.46667 h 0.46667 0.46667 v 0.46667 0.46666 z m 21.62222,-1.24444 -0.62222,0.62222 v -1.24444 -1.24445 l 0.62222,0.62223 0.62222,0.62222 z m 7.31111,-5.28889 h -0.46666 v -0.46666 -0.46667 h 0.46666 0.46667 v 0.46667 0.46666 z"
     style="fill:#000000;stroke-width:0.93333328" />
  <g
     id="g25"
     transform="rotate({{servoleft}}, 272, 120)">
    <path
       inkscape:label="#path287"
       style="fill:#000000;stroke-width:0.93333328"
       d="m 266.35739,142.86975 c -0.43592,-2.58173 -0.43592,-2.58173 -0.43592,-2.58173 l -5.50771,-0.97115 -5.50773,-0.97117 -2.63409,-2.00986 -2.63408,-2.00987 -16.3822,-22.9041 -16.38219,-22.904113 -0.19907,-0.839355 -0.19906,-0.839361 1.33131,-1.804192 1.3313,-1.804195 1.60565,-3.507808 1.60566,-3.5078 1.18014,-6.662973 1.18013,-6.662954 1.01836,0.179561 1.01836,0.179569 -2.18012,10.419114 -2.18013,10.419131 -2.0303,1.578002 -2.03029,1.578005 0.26936,1.287003 0.26938,1.286989 0.33155,-1.36313 0.33156,-1.363138 2.85663,-1.865627 2.85662,-1.865627 -0.91053,1.547206 -0.91054,1.547196 0.88461,-0.352345 0.8846,-0.352327 0.8117,-1.768422 0.81169,-1.768412 -0.92425,0.368117 -0.92426,0.368145 0.14276,-0.809659 0.14276,-0.809659 2.13241,-3.876319 2.13241,-3.876291 3.19639,-2.460903 3.19638,-2.460902 1.43054,0.252253 1.43054,0.252233 -0.18507,1.049623 -0.18509,1.049616 -4.7901,5.268927 -4.79012,5.268915 0.45646,0.651948 0.45646,0.651952 1.35673,0.449998 1.35672,0.449995 4.18463,-4.396944 4.18463,-4.396957 1.11435,0.19649 1.11434,0.196488 9.1428,13.431879 9.1428,13.431888 -0.25454,1.44356 -0.25453,1.44355 -2.71013,6.82709 -2.71012,6.82708 -1.21044,1.03096 -1.21043,1.03095 -11.13154,-15.86931 -11.13155,-15.86929 -0.88096,0.988149 -0.88095,0.988157 -2.59705,-0.861391 -2.59708,-0.861401 -1.04686,0.887561 -1.04688,0.887572 13.92896,19.869443 13.92898,19.86942 1.60198,-0.9134 1.60199,-0.9134 0.92621,0.82573 0.92622,0.82575 -0.69647,1.51735 -0.69647,1.51736 1.51472,1.36316 1.51473,1.36315 0.98794,0.17421 0.98795,0.17419 0.10883,-4.23642 0.10883,-4.23643 3.60912,-2.89317 3.60912,-2.89313 1.14779,0.0331 1.14777,0.0331 -3.46125,4.63233 -3.46125,4.63234 -1.21169,0.48262 -1.2117,0.48263 3.56239,0.5113 3.56238,0.51131 -0.5711,1.99517 -0.57108,1.99518 1.45374,-0.28241 1.45376,-0.28241 z m -0.29019,-19.08554 0.18178,-0.85988 -1.66411,1.54624 -1.66409,1.54624 -0.18179,0.85989 -0.18177,0.85988 1.6641,-1.54625 1.6641,-1.54622 0.18179,-0.85991 z m -4.06854,12.49505 0.0811,-0.45957 -0.45957,-0.0811 -0.45957,-0.0811 -0.0811,0.45956 -0.0811,0.45957 0.45957,0.0811 0.45958,0.0811 z m -1.94711,-5.08198 0.0811,-0.45957 -0.45956,-0.0811 -0.45956,-0.0811 -0.0811,0.45956 -0.0811,0.45956 0.45957,0.0811 0.45955,0.0811 z m -2.01802,-26.81136 0.58048,-2.65988 -8.44831,-12.21418 -8.44829,-12.214152 -4.44424,4.647379 -4.44424,4.647379 0.0452,1.148329 0.0453,1.148296 9.7403,14.124599 9.74031,14.1246 0.9817,-0.68741 0.9817,-0.68739 1.54478,-4.35885 1.54478,-4.35886 z m -21.48945,-33.365845 0.0612,-0.34703 -0.34703,-0.06119 -0.34704,-0.06119 -1.5451,1.386081 -1.54511,1.386082 1.83095,-0.977875 1.83095,-0.977849 z m -3.41603,3.248696 0.0714,-0.405338 -0.40533,-0.07147 -0.40533,-0.07147 -0.84295,0.945534 -0.84295,0.945528 1.17681,-0.468722 1.17682,-0.468725 z m -2.33408,2.487578 0.0811,-0.459569 -0.45957,-0.08104 -0.45958,-0.08103 -0.0811,0.459577 -0.0811,0.459547 0.45958,0.08103 0.45957,0.08104 z m -3.02609,11.786923 0.0811,-0.459577 -0.45957,-0.08107 -0.45956,-0.08107 -0.081,0.459592 -0.0811,0.459577 0.45956,0.08107 0.45956,0.08107 z m 1.7828,-10.110701 0.0811,-0.459557 -0.45958,-0.08103 -0.45957,-0.08103 -0.0811,0.459557 -0.0811,0.459568 0.45957,0.08104 0.45958,0.08103 z m -1.24332,1.676247 0.0811,-0.459577 -0.45958,-0.08103 -0.45958,-0.08103 -0.0811,0.459569 -0.0811,0.459566 0.45958,0.08103 0.45957,0.08103 z m 42.12351,40.598102 -0.24311,1.37874 -0.8903,-0.15699 -0.89032,-0.15699 0.77217,-1.28544 0.77218,-1.28546 0.36124,0.0637 0.36124,0.0637 z m 3.36986,-20.18635 -0.57916,3.28449 -5.77407,-8.161574 -5.77408,-8.16158 -1.82746,1.14835 -1.82746,1.148372 -1.62053,-0.615438 -1.62053,-0.615429 0.0727,-2.186792 0.0727,-2.186787 1.65547,-0.815868 1.65546,-0.815878 -4.53823,-7.240782 -4.53824,-7.240777 0.75778,-0.530638 0.75778,-0.530645 9.87282,14.795448 9.87281,14.795441 1.98071,0.322755 1.98072,0.322747 z m -3.67442,16.36779 -0.13728,0.94959 -1.79104,1.79052 -1.79107,1.79051 -2.64986,-0.46724 -2.64984,-0.46723 0.32248,-3.49714 0.3225,-3.49713 -1.26023,0.0377 -1.26025,0.0377 0.6525,-1.96611 0.65249,-1.96608 1.13393,-0.16368 1.13394,-0.16367 0.13756,1.73523 0.13754,1.73524 0.39025,-1.58972 0.39024,-1.58972 0.82082,0.14473 0.82082,0.14473 0.30181,1.55363 0.30182,1.55363 1.21668,-0.18439 1.21667,-0.1844 0.86239,1.65684 0.86237,1.65684 -0.13728,0.94958 z m -2.85419,-0.191 0.17683,-0.57822 -1.20167,-0.72185 -1.20167,-0.72184 -0.64633,0.45252 -0.64635,0.45254 -0.29712,1.68512 -0.29713,1.68511 1.30213,0.2296 1.30212,0.22961 0.66616,-1.06723 0.66617,-1.06722 0.17682,-0.57821 z m 1.10286,-5.83026 -0.081,0.4596 -0.45957,-0.0811 -0.45957,-0.0811 0.0811,-0.45957 0.0811,-0.45956 0.45957,0.0811 0.45956,0.0811 z m -20.00482,-42.417724 -0.23739,1.346385 -1.98874,0.652139 -1.98873,0.652126 -1.4842,-2.119651 -1.4842,-2.119655 -0.45539,0.841004 -0.45539,0.840996 -1.58414,-1.703591 -1.58414,-1.703576 5.74987,0.983697 5.74987,0.983701 z m -2.76315,-0.453912 0.0811,-0.45956 -0.45958,-0.08104 -0.45958,-0.08103 -0.0811,0.45957 -0.0811,0.459557 0.45957,0.08104 0.45958,0.08103 z"
       id="bras"
       inkscape:connector-curvature="0"
       sodipodi:nodetypes="ccccccccccccccccccccccccccccccccccccccccccccccccccccccccccccccccccccccccccccccccccccccccccccccccccccccccccccccccccccccccccccccccccccccccccccccccccccccccccccccccccccccccccccccccccccccccccccccccccccccccccccccccccccccccccccccccccccccccccccccccccccccccccccccccccccccccccccccccccccccccccccccccccccccccccccc" />
    <path
       inkscape:label="#path300"
       style="fill:#000000;stroke-width:0.93333334"
       d="m 297.60987,110.01663 -4.75367,0.67558 -1.28055,-1.44227 -1.28057,-1.44225 -2.65557,-0.90429 -2.65558,-0.9043 -0.12377,-1.41461 -0.12374,-1.41461 -3.60529,0.31542 -3.60528,0.31544 -1.05621,-1.07873 -1.05622,-1.07871 -0.51681,-2.203672 -0.51677,-2.203643 -18.16277,-9.488402 -18.16273,-9.488379 -1.16435,0.07737 -1.16438,0.07737 -0.61006,-6.973368 -0.61011,-6.973358 1.85958,-0.16269 1.85955,-0.162695 0.15791,1.804684 0.15787,1.804697 -0.84589,0.630916 -0.84591,0.630917 1.14254,2.36168 1.14253,2.361697 -0.83209,0.991641 -0.83208,0.991657 10.83609,5.709953 10.8361,5.709968 4.47237,2.242243 4.47235,2.242207 0.48284,-0.870304 0.48285,-0.870301 1.63156,-0.77045 1.63154,-0.770475 -0.85231,-1.103177 -0.85233,-1.103185 -0.23243,-2.0877 -0.23245,-2.087681 0.34206,-0.02993 0.34207,-0.02992 1.54268,1.294457 1.54267,1.294469 -0.4019,1.402133 -0.40186,1.402143 2.01487,0.861704 2.01488,0.861707 0.87,-1.03683 0.87,-1.036842 -0.59832,-1.227101 -0.59829,-1.227078 -16.31733,-8.598751 -16.31733,-8.598733 -0.82604,0.07226 -0.82601,0.07228 -0.47072,1.642252 -0.47068,1.642253 2.2858,1.509986 2.28583,1.50997 -3.59791,-1.356676 -3.59793,-1.356682 -0.64578,-1.27395 -0.64578,-1.273944 0.7495,-0.608913 0.74947,-0.608916 0.45797,-1.679642 0.458,-1.679638 -0.9195,0.08045 -0.91951,0.08043 1.5506,-3.832258 1.55059,-3.832267 -0.97278,-0.489584 -0.97279,-0.489583 -0.16694,-1.908171 -0.16696,-1.908172 -3.29684,0.922076 -3.29685,0.922065 0.29022,-1.21516 0.29022,-1.215147 4.62013,-1.61043 4.62009,-1.610427 10.18529,5.581692 10.18527,5.581689 17.66967,9.206849 17.66968,9.206832 0.58195,3.328134 0.58194,3.328146 -0.98591,0.08625 -0.98589,0.08627 0.12202,1.394663 0.122,1.394661 2.32444,-0.203358 2.32448,-0.203356 0.24402,2.789347 0.24405,2.789347 2.78934,-0.244042 2.78934,-0.244029 -0.0813,-0.929782 -0.0813,-0.929792 2.78936,-0.24403 2.78935,-0.244043 0.11137,1.273028 0.11135,1.272993 3.53711,0.271279 3.5371,0.271275 4.44059,-0.37816 4.44059,-0.378176 5.38157,1.37827 5.38154,1.378254 0.45604,0.38266 0.45605,0.382661 -0.41101,1.837406 -0.41101,1.837395 -5.19788,1.960596 -5.19787,1.96057 -7.38154,1.29893 -7.38155,1.29893 -6.3849,0.80816 -6.38488,0.80816 -0.59107,1.17436 -0.59108,1.17438 -4.75365,0.67558 z m -0.97221,-2.41832 4.08342,-0.20214 -0.12218,-1.39632 -0.12214,-1.39632 -2.1695,0.18983 -2.16951,0.18979 0.0862,0.98466 0.0861,0.98465 -0.78182,-0.39352 -0.78188,-0.39345 -1.09608,0.81751 -1.09607,0.8175 z m 1.52237,-0.91829 -1.23972,0.10846 0.56563,-0.67409 0.5656,-0.6741 0.6741,0.56564 0.67407,0.56563 z m 9.17578,-2.20811 0.87952,-0.65601 -0.0766,-0.87491 -0.0765,-0.87491 -0.92979,0.0814 -0.92979,0.0813 0.12683,1.44956 0.12683,1.44954 z m 4.67675,-0.0886 2.32446,-0.20336 -1.20325,-0.36729 -1.20328,-0.3673 -1.12118,0.57067 -1.1212,0.57064 z m -8.90142,-0.0102 0.46489,-0.0407 -0.0407,-0.46489 -0.0407,-0.4649 -0.46489,0.0407 -0.46489,0.0407 0.0407,0.46488 0.0407,0.46489 z m 14.99566,-2.48307 0.23804,-1.6604 1.79139,-0.15673 1.7914,-0.156722 -0.0737,-0.842736 -0.0737,-0.842726 -1.69172,0.604215 -1.69175,0.604232 -0.67195,-1.378119 -0.67199,-1.37814 3.25428,-1.499744 3.25427,-1.499749 -4.6171,-0.162821 -4.61711,-0.162837 -0.39244,0.403767 -0.39245,0.403755 2.17874,0.370666 2.17874,0.370667 -1.0698,0.797932 -1.06979,0.797925 1.05408,3.523755 1.05407,3.52372 z m -5.63386,0.59954 0.16743,0.11298 1.44431,-0.70421 1.44427,-0.70423 -1.17986,-1.19271 -1.17987,-1.192743 -3.60526,0.315419 -3.60528,0.315435 0.09,1.029249 0.0901,1.02926 1.39451,-0.67994 1.39451,-0.68 -0.4523,0.89882 -0.45238,0.89875 2.1412,0.22051 2.14123,0.22052 z m 14.2473,-1.33743 6.98089,-0.52392 -1.90779,-0.55911 -1.90778,-0.559091 3.60055,-1.510123 3.60058,-1.510116 0.68849,-0.747861 0.6885,-0.747861 -4.09615,-0.720737 -4.09615,-0.720738 -2.01017,0.376458 -2.01018,0.376481 0.55818,0.74845 0.55819,0.748446 2.8829,-0.832372 2.8829,-0.832353 -1.30977,1.093806 -1.30978,1.093801 1.31844,-0.10101 1.31842,-0.100985 -0.5101,0.607962 -0.51011,0.607987 -4.8792,1.152017 -4.8792,1.152006 3.74253,-0.05783 3.74254,-0.05783 -5.05898,1.074089 -5.05899,1.07408 z m -32.62358,1.91851 3.25422,-0.28473 -1.66432,-0.28279 -1.66432,-0.2829 -1.58992,0.56759 -1.58992,0.56756 z m 5.13265,-0.23167 0.4649,-0.0407 -0.0407,-0.46488 -0.0407,-0.46488 -0.46489,0.0407 -0.4649,0.0407 0.0407,0.46489 0.0407,0.46489 z m 2.32447,-0.20337 1.2397,-0.10848 -0.67408,-0.56562 -0.67408,-0.56564 -0.56563,0.67411 -0.56561,0.67408 z m 33.93702,-2.969125 0.46491,-0.04067 -0.0407,-0.464895 -0.0407,-0.464898 -0.4649,0.04068 -0.46489,0.04067 0.0407,0.464884 0.0407,0.46491 z m 1.77824,-1.092459 0.46486,-0.04069 -0.0407,-0.464913 -0.0407,-0.464895 -0.46489,0.04066 -0.4649,0.04067 0.0407,0.464908 0.0407,0.464884 z m -53.10538,2.772274 2.26957,-0.19856 -0.11438,-1.307425 -0.1144,-1.307426 4.82181,-1.107703 4.82181,-1.107708 -1.92396,-0.573233 -1.92395,-0.57324 -3.50706,0.240977 -3.50705,0.240971 -6.15324,-3.703277 -6.15323,-3.703296 -0.4397,2.49945 -0.43971,2.499445 2.69392,1.983738 2.69392,1.983762 1.0618,-0.06327 1.06178,-0.0633 2.36453,1.745356 2.36449,1.745336 -1.72195,-0.38547 -1.72195,-0.385463 0.64847,0.869423 0.64847,0.86942 z m 4.59402,-0.40192 0.46489,-0.0407 -0.0407,-0.46491 -0.0407,-0.464876 -0.4649,0.04067 -0.46488,0.0407 0.0406,0.46488 0.0407,0.4649 z m 17.41445,-2.302188 2.93411,-0.696277 0.95379,-1.576426 0.9538,-1.576423 -1.14325,-0.594243 -1.14325,-0.59424 -2.09326,0.168782 -2.09325,0.168776 -0.0349,0.939954 -0.0349,0.939973 -0.0694,0.708745 -0.0694,0.708749 -0.54711,1.049416 -0.54702,1.049479 z m 19.77683,-0.95163 0.46488,-0.04067 -0.0407,-0.464897 -0.0407,-0.464884 -0.46489,0.04067 -0.4649,0.04067 0.0407,0.464897 0.0407,0.464897 z m 3.25422,-0.284715 1.2397,-0.108447 -0.67406,-0.565622 -0.67411,-0.56564 -0.56561,0.674093 -0.56561,0.674094 z m -37.7375,2.364733 0.46488,-0.04068 -0.0407,-0.464906 -0.0407,-0.464874 -0.46491,0.04066 -0.46487,0.04069 0.0407,0.46487 0.0407,0.4649 z m 30.16303,-2.638932 2.73448,-0.239238 0.3902,-0.775239 0.39019,-0.775243 -3.15643,0.651317 -3.15646,0.651301 0.0317,0.363149 0.0318,0.363172 z m -23.89858,-0.719852 1.39466,-0.122025 -0.0319,-0.365408 -0.0319,-0.365397 -1.44148,-0.413163 -1.44149,-0.413166 0.0788,0.900584 0.0788,0.900609 z m -5.88278,-3.270427 4.67676,-0.371618 -0.68007,-3.688095 -0.68006,-3.688107 -7.21166,0.630946 -7.21166,0.630941 0.65611,2.315197 0.6561,2.315191 2.55888,1.113618 2.55888,1.113608 4.67673,-0.371624 z m -4.50801,-0.945035 -0.40895,0.48729 -1.85123,-1.717583 -1.85123,-1.717579 0.96006,-0.084 0.96002,-0.084 1.30011,1.314252 1.3001,1.314248 z m -17.14232,0.06601 0.4649,-0.04067 -0.0407,-0.464912 -0.0407,-0.464862 -0.46488,0.04066 -0.46491,0.04068 0.0407,0.4649 0.0407,0.464868 z m 2.42912,-6.146213 0.56562,-0.674101 -0.67409,-0.565636 -0.67408,-0.565629 0.10845,1.239727 0.10846,1.239698 z m 14.63944,-2.226563 7.43877,-0.644781 -3.49387,-0.06036 -3.49389,-0.06036 -3.9449,0.70499 -3.94492,0.704964 7.43877,-0.644785 z m -3.94646,-2.273874 5.58036,-0.46885 -1.81237,-0.957458 -1.81233,-0.957435 -7.51504,-3.921376 -7.51505,-3.921366 -4.9117,-2.596956 -4.91168,-2.596944 -6.87071,-3.570994 -6.87072,-3.571001 -1.33184,-0.639798 -1.33185,-0.63979 -0.69949,1.352349 -0.69949,1.352346 0.12626,1.607243 0.12626,1.60721 12.47343,6.65943 12.47344,6.659448 4.96105,2.536417 4.96105,2.536439 5.58037,-0.468843 z m 11.50868,-1.34578 2.87351,-0.251401 -0.0479,-0.547414 -0.0479,-0.547417 -9.56849,-4.957548 -9.56849,-4.957551 -1.93724,-0.979413 -1.93726,-0.979414 -5.92454,-3.210821 -5.92454,-3.210822 -7.74436,-3.842428 -7.74441,-3.842427 -0.66328,1.280408 -0.66327,1.280418 0.0532,0.463791 0.0532,0.463797 10.04255,5.330502 10.04254,5.330489 8.34271,4.332784 8.3427,4.332787 4.57383,2.381527 4.57385,2.38155 2.87348,-0.251412 z m -53.79072,-10.752762 0.46489,-0.04067 -0.0407,-0.464889 -0.0407,-0.464889 -0.46491,0.04067 -0.46489,0.04068 0.0407,0.464872 0.0407,0.4649 z m -4.8116,-1.452833 0.4649,-0.04067 -0.0407,-0.464876 -0.0407,-0.464906 -0.46489,0.04067 -0.4649,0.04068 0.0407,0.464892 0.0407,0.464896 z m 5.70654,-0.811553 0.56561,-0.674084 -0.67407,-0.565633 -0.67409,-0.565623 0.10847,1.239705 0.10846,1.239715 z m 25.64498,17.743522 -1.39467,0.122 0.49332,-0.980027 0.49331,-0.98005 1.39466,-0.12203 1.39468,-0.121996 -0.49331,0.98004 -0.4933,0.980044 z m 1.26037,-2.920977 -1.23971,0.108455 0.56561,-0.674085 0.56562,-0.67408 0.67408,0.565619 0.67409,0.56563 z m -7.05472,-0.319684 -0.46488,0.04067 -0.0407,-0.464903 -0.0407,-0.46488 0.46487,-0.04067 0.4649,-0.04069 0.0407,0.46489 0.0407,0.464897 z m -1.88602,-0.771909 -0.41003,0.03588 -0.75737,-1.015392 -0.75736,-1.015366 1.13146,0.56954 1.13147,0.569534 0.0359,0.409999 0.0359,0.410019 z m -7.89985,-3.993348 -0.4649,0.04068 -0.0407,-0.464887 -0.0407,-0.464899 0.46489,-0.04067 0.4649,-0.04067 0.0406,0.464869 0.0407,0.464916 z m -2.95203,-1.615562 -0.46491,0.04068 -0.0406,-0.46488 -0.0407,-0.4649 0.46488,-0.04067 0.4649,-0.04066 0.0406,0.46488 0.0407,0.464884 z"
       id="avant_bras"
       transform="rotate(-{{servoright}}, 236, 66)"
       inkscape:connector-curvature="0" />
  </g>
</svg>
